<svg width="681" height="420" viewBox="0 0 681 420" fill="none" xmlns="http://www.w3.org/2000/svg">
<path d="M12.0867 317.19C-19.1118 284.242 14.2622 196.096 64.5856 142.191C125.779 76.6533 210.141 21.5242 373.206 40.2713C507.856 55.7587 591.456 123.668 619.891 158.651C665.108 214.249 697.776 292.693 670.543 325.136C624.844 379.594 436.03 286.936 333.613 285.047C231.197 283.158 81.7518 390.639 12.0867 317.19Z" fill="#E1ECFF"/>
<path d="M495.958 264.551H140.532L65.7748 20.1602C65.0596 17.826 64.9025 15.3565 65.3161 12.9505C65.7297 10.5446 66.7025 8.26932 68.1561 6.308C69.6098 4.34668 71.5036 2.7541 73.6852 1.65847C75.8668 0.56284 78.2752 -0.00521796 80.7165 3.61174e-05H403.488C406.83 -0.000628805 410.083 1.07159 412.769 3.05879C415.455 5.04599 417.432 7.84315 418.409 11.0384L495.958 264.551Z" fill="#4F4F4F"/>
<path d="M437.751 235.458H182.762C179.391 235.458 176.108 234.376 173.397 232.371C170.686 230.367 168.69 227.545 167.702 224.322L111.09 39.243C110.729 38.0686 110.65 36.826 110.857 35.6153C111.065 34.4046 111.554 33.2595 112.285 32.2722C113.015 31.2848 113.968 30.4828 115.065 29.9306C116.162 29.3784 117.374 29.0915 118.602 29.093H373.591C376.963 29.0931 380.245 30.175 382.956 32.1796C385.667 34.1842 387.663 37.0057 388.652 40.2293L445.264 225.308C445.624 226.482 445.703 227.725 445.496 228.936C445.288 230.146 444.799 231.291 444.068 232.279C443.338 233.266 442.385 234.068 441.288 234.62C440.191 235.172 438.979 235.459 437.751 235.458V235.458Z" fill="#F2F2F2"/>
<path d="M140.532 264.551H617.947C621.167 264.551 624.256 265.83 626.533 268.108C628.811 270.385 630.09 273.474 630.09 276.695V292.916C630.09 296.137 628.811 299.226 626.533 301.503C624.256 303.781 621.167 305.06 617.947 305.06H152.676C151.081 305.06 149.502 304.746 148.029 304.136C146.555 303.525 145.217 302.631 144.089 301.503C142.961 300.376 142.067 299.037 141.457 297.564C140.846 296.09 140.532 294.511 140.532 292.916V264.551Z" fill="#333333"/>
<path d="M198.718 141.191L227.755 108.782" stroke="#FF5722" stroke-width="18" stroke-miterlimit="10" stroke-linecap="round"/>
<path d="M234.611 141.191L190.884 108.782" stroke="#FF5722" stroke-width="18" stroke-miterlimit="10" stroke-linecap="round"/>
<path d="M342.106 141.191L371.143 108.782" stroke="#FF5722" stroke-width="18" stroke-miterlimit="10" stroke-linecap="round"/>
<path d="M377.998 141.191L334.264 108.782" stroke="#FF5722" stroke-opacity="0.87" stroke-width="18" stroke-miterlimit="10" stroke-linecap="round"/>
<path d="M270.335 161.673C270.335 161.673 293.097 149.123 316.216 161.673" stroke="#FF5722" stroke-width="18" stroke-miterlimit="10" stroke-linecap="round"/>
<path d="M518.923 123.423C516.292 123.416 513.741 122.511 511.695 120.857C509.648 119.204 508.227 116.901 507.668 114.329C505.527 104.683 504.17 97.317 506.059 90.4268C508.325 82.2564 514.306 77.4717 520.749 72.8968C525.093 69.8189 528.108 65.1462 528.443 61.005C528.653 58.2559 527.688 55.9405 525.4 53.73C518.643 47.1755 507.703 57.3745 507.213 57.8152C507.213 57.8152 498.021 65.5939 491.194 57.4375C484.367 49.2811 491.194 41.1947 491.194 41.1947C495.598 37.1056 500.665 33.7942 506.178 31.4014C519.322 25.8052 531.843 27.9038 541.44 37.1724C548.617 44.1256 552.164 53.2264 551.429 62.7958C550.583 73.8342 544.099 84.6697 534.074 91.7628C529.367 95.0995 528.478 96.2817 528.261 96.6595C527.723 98.3663 529.5 106.362 530.171 109.377C530.542 111.062 530.53 112.809 530.138 114.489C529.746 116.17 528.982 117.741 527.904 119.088C526.825 120.435 525.459 121.523 523.905 122.273C522.351 123.024 520.648 123.416 518.923 123.423V123.423Z" fill="#2196F3"/>
<path d="M524.484 163.449C531.875 163.449 537.866 157.458 537.866 150.068C537.866 142.677 531.875 136.686 524.484 136.686C517.093 136.686 511.102 142.677 511.102 150.068C511.102 157.458 517.093 163.449 524.484 163.449Z" fill="#1976D2"/>
<path d="M155.326 404.859L155.655 407.109L156.135 405.082L159.51 393.176H161.409L164.701 405.082L165.17 407.144L165.534 404.847L168.182 393.176H170.444L166.307 410.238H164.256L160.741 397.804L160.471 396.504L160.201 397.804L156.557 410.238H154.506L150.381 393.176H152.631L155.326 404.859ZM178.483 399.504C178.155 399.449 177.799 399.422 177.416 399.422C175.994 399.422 175.03 400.027 174.522 401.238V410.238H172.354V397.558H174.463L174.498 399.023C175.209 397.89 176.217 397.324 177.522 397.324C177.944 397.324 178.264 397.379 178.483 397.488V399.504ZM179.678 403.781C179.678 402.539 179.92 401.422 180.405 400.429C180.897 399.437 181.576 398.672 182.444 398.133C183.319 397.594 184.315 397.324 185.432 397.324C187.159 397.324 188.553 397.922 189.616 399.117C190.686 400.312 191.221 401.902 191.221 403.886V404.039C191.221 405.273 190.983 406.383 190.506 407.367C190.037 408.344 189.362 409.105 188.479 409.652C187.604 410.199 186.596 410.472 185.455 410.472C183.737 410.472 182.342 409.875 181.272 408.679C180.209 407.484 179.678 405.902 179.678 403.933V403.781ZM181.858 404.039C181.858 405.445 182.182 406.574 182.83 407.426C183.487 408.277 184.362 408.703 185.455 408.703C186.557 408.703 187.432 408.273 188.08 407.414C188.729 406.547 189.053 405.336 189.053 403.781C189.053 402.39 188.721 401.265 188.057 400.406C187.401 399.539 186.526 399.105 185.432 399.105C184.362 399.105 183.498 399.531 182.842 400.383C182.186 401.234 181.858 402.453 181.858 404.039ZM195.991 397.558L196.061 399.152C197.03 397.933 198.295 397.324 199.858 397.324C202.537 397.324 203.889 398.836 203.912 401.859V410.238H201.744V401.847C201.737 400.933 201.526 400.258 201.112 399.82C200.705 399.383 200.069 399.164 199.201 399.164C198.498 399.164 197.881 399.351 197.35 399.726C196.819 400.101 196.405 400.594 196.108 401.203V410.238H193.94V397.558H195.991ZM206.666 403.793C206.666 401.816 207.123 400.246 208.037 399.082C208.951 397.91 210.162 397.324 211.67 397.324C213.217 397.324 214.424 397.871 215.291 398.965L215.397 397.558H217.377V409.933C217.377 411.574 216.889 412.867 215.912 413.812C214.944 414.758 213.639 415.23 211.998 415.23C211.084 415.23 210.19 415.035 209.315 414.644C208.44 414.254 207.772 413.719 207.311 413.039L208.436 411.738C209.366 412.886 210.502 413.461 211.846 413.461C212.901 413.461 213.721 413.164 214.307 412.57C214.901 411.976 215.198 411.14 215.198 410.062V408.972C214.33 409.972 213.147 410.472 211.647 410.472C210.162 410.472 208.959 409.875 208.037 408.679C207.123 407.484 206.666 405.855 206.666 403.793ZM208.846 404.039C208.846 405.469 209.139 406.594 209.725 407.414C210.311 408.226 211.131 408.633 212.186 408.633C213.553 408.633 214.557 408.011 215.198 406.769V400.98C214.534 399.769 213.537 399.164 212.209 399.164C211.155 399.164 210.33 399.574 209.737 400.394C209.143 401.215 208.846 402.429 208.846 404.039ZM237.323 404.039C237.323 405.969 236.881 407.523 235.998 408.703C235.116 409.883 233.92 410.472 232.412 410.472C230.873 410.472 229.662 409.984 228.78 409.008V415.113H226.612V397.558H228.592L228.698 398.965C229.58 397.871 230.807 397.324 232.377 397.324C233.901 397.324 235.104 397.898 235.987 399.047C236.877 400.195 237.323 401.793 237.323 403.84V404.039ZM235.155 403.793C235.155 402.363 234.85 401.234 234.241 400.406C233.631 399.578 232.795 399.164 231.733 399.164C230.42 399.164 229.436 399.746 228.78 400.91V406.969C229.428 408.125 230.42 408.703 231.756 408.703C232.795 408.703 233.619 408.293 234.229 407.472C234.846 406.644 235.155 405.418 235.155 403.793ZM242.444 410.238H240.276V392.238H242.444V410.238ZM253.752 410.238C253.627 409.988 253.526 409.543 253.448 408.902C252.44 409.949 251.237 410.472 249.838 410.472C248.588 410.472 247.561 410.121 246.756 409.418C245.959 408.707 245.561 407.808 245.561 406.722C245.561 405.402 246.061 404.379 247.061 403.652C248.069 402.918 249.483 402.551 251.303 402.551H253.412V401.554C253.412 400.797 253.186 400.195 252.733 399.75C252.28 399.297 251.612 399.07 250.729 399.07C249.955 399.07 249.307 399.265 248.784 399.656C248.26 400.047 247.998 400.519 247.998 401.074H245.819C245.819 400.441 246.041 399.832 246.487 399.246C246.94 398.652 247.549 398.183 248.315 397.84C249.088 397.496 249.936 397.324 250.858 397.324C252.319 397.324 253.463 397.691 254.291 398.426C255.119 399.152 255.549 400.156 255.58 401.437V407.273C255.58 408.437 255.729 409.363 256.026 410.051V410.238H253.752ZM250.155 408.586C250.834 408.586 251.479 408.41 252.088 408.058C252.698 407.707 253.139 407.25 253.412 406.687V404.086H251.713C249.057 404.086 247.729 404.863 247.729 406.418C247.729 407.097 247.955 407.629 248.409 408.011C248.862 408.394 249.444 408.586 250.155 408.586ZM264.065 408.703C264.838 408.703 265.514 408.469 266.092 408C266.67 407.531 266.991 406.945 267.053 406.242H269.104C269.065 406.969 268.815 407.66 268.354 408.316C267.893 408.972 267.276 409.496 266.502 409.886C265.737 410.277 264.924 410.472 264.065 410.472C262.338 410.472 260.963 409.898 259.94 408.75C258.924 407.594 258.416 406.015 258.416 404.015V403.652C258.416 402.418 258.643 401.32 259.096 400.359C259.549 399.398 260.198 398.652 261.041 398.121C261.893 397.59 262.897 397.324 264.053 397.324C265.475 397.324 266.655 397.75 267.592 398.601C268.537 399.453 269.041 400.558 269.104 401.918H267.053C266.991 401.097 266.678 400.426 266.116 399.902C265.561 399.371 264.873 399.105 264.053 399.105C262.951 399.105 262.096 399.504 261.487 400.301C260.885 401.09 260.584 402.234 260.584 403.734V404.144C260.584 405.605 260.885 406.73 261.487 407.519C262.088 408.308 262.948 408.703 264.065 408.703ZM276.803 410.472C275.084 410.472 273.686 409.91 272.608 408.785C271.53 407.652 270.991 406.14 270.991 404.25V403.851C270.991 402.594 271.229 401.472 271.705 400.488C272.19 399.496 272.862 398.722 273.721 398.168C274.588 397.605 275.526 397.324 276.534 397.324C278.182 397.324 279.463 397.867 280.377 398.953C281.291 400.039 281.748 401.594 281.748 403.617V404.519H273.159C273.19 405.769 273.553 406.781 274.248 407.554C274.951 408.32 275.842 408.703 276.92 408.703C277.686 408.703 278.334 408.547 278.866 408.234C279.397 407.922 279.862 407.508 280.26 406.992L281.584 408.023C280.522 409.656 278.928 410.472 276.803 410.472ZM276.534 399.105C275.659 399.105 274.924 399.426 274.33 400.066C273.737 400.699 273.369 401.59 273.229 402.738H279.58V402.574C279.518 401.472 279.221 400.621 278.69 400.019C278.159 399.41 277.44 399.105 276.534 399.105ZM300.932 404.039C300.932 405.969 300.491 407.523 299.608 408.703C298.725 409.883 297.53 410.472 296.022 410.472C294.483 410.472 293.272 409.984 292.389 409.008V415.113H290.221V397.558H292.201L292.307 398.965C293.19 397.871 294.416 397.324 295.987 397.324C297.51 397.324 298.713 397.898 299.596 399.047C300.487 400.195 300.932 401.793 300.932 403.84V404.039ZM298.764 403.793C298.764 402.363 298.459 401.234 297.85 400.406C297.241 399.578 296.405 399.164 295.342 399.164C294.03 399.164 293.045 399.746 292.389 400.91V406.969C293.037 408.125 294.03 408.703 295.366 408.703C296.405 408.703 297.229 408.293 297.838 407.472C298.455 406.644 298.764 405.418 298.764 403.793ZM306.053 410.238H303.885V392.238H306.053V410.238ZM314.795 410.472C313.076 410.472 311.678 409.91 310.6 408.785C309.522 407.652 308.983 406.14 308.983 404.25V403.851C308.983 402.594 309.221 401.472 309.698 400.488C310.182 399.496 310.854 398.722 311.713 398.168C312.58 397.605 313.518 397.324 314.526 397.324C316.174 397.324 317.455 397.867 318.369 398.953C319.284 400.039 319.741 401.594 319.741 403.617V404.519H311.151C311.182 405.769 311.545 406.781 312.241 407.554C312.944 408.32 313.834 408.703 314.912 408.703C315.678 408.703 316.326 408.547 316.858 408.234C317.389 407.922 317.854 407.508 318.252 406.992L319.576 408.023C318.514 409.656 316.92 410.472 314.795 410.472ZM314.526 399.105C313.651 399.105 312.916 399.426 312.323 400.066C311.729 400.699 311.362 401.59 311.221 402.738H317.573V402.574C317.51 401.472 317.213 400.621 316.682 400.019C316.151 399.41 315.432 399.105 314.526 399.105ZM330.088 410.238C329.963 409.988 329.862 409.543 329.784 408.902C328.776 409.949 327.573 410.472 326.174 410.472C324.924 410.472 323.897 410.121 323.092 409.418C322.295 408.707 321.897 407.808 321.897 406.722C321.897 405.402 322.397 404.379 323.397 403.652C324.405 402.918 325.819 402.551 327.639 402.551H329.748V401.554C329.748 400.797 329.522 400.195 329.069 399.75C328.616 399.297 327.948 399.07 327.065 399.07C326.291 399.07 325.643 399.265 325.119 399.656C324.596 400.047 324.334 400.519 324.334 401.074H322.155C322.155 400.441 322.377 399.832 322.823 399.246C323.276 398.652 323.885 398.183 324.651 397.84C325.424 397.496 326.272 397.324 327.194 397.324C328.655 397.324 329.799 397.691 330.627 398.426C331.455 399.152 331.885 400.156 331.916 401.437V407.273C331.916 408.437 332.065 409.363 332.362 410.051V410.238H330.088ZM326.491 408.586C327.17 408.586 327.815 408.41 328.424 408.058C329.034 407.707 329.475 407.25 329.748 406.687V404.086H328.049C325.393 404.086 324.065 404.863 324.065 406.418C324.065 407.097 324.291 407.629 324.744 408.011C325.198 408.394 325.78 408.586 326.491 408.586ZM342.698 406.875C342.698 406.289 342.475 405.836 342.03 405.515C341.592 405.187 340.823 404.906 339.721 404.672C338.627 404.437 337.756 404.156 337.108 403.828C336.467 403.5 335.991 403.109 335.678 402.656C335.373 402.203 335.221 401.664 335.221 401.039C335.221 400 335.659 399.121 336.534 398.402C337.416 397.683 338.541 397.324 339.909 397.324C341.346 397.324 342.51 397.695 343.401 398.437C344.299 399.179 344.748 400.129 344.748 401.285H342.569C342.569 400.691 342.315 400.179 341.807 399.75C341.307 399.32 340.674 399.105 339.909 399.105C339.119 399.105 338.502 399.277 338.057 399.621C337.612 399.965 337.389 400.414 337.389 400.969C337.389 401.492 337.596 401.886 338.01 402.152C338.424 402.418 339.17 402.672 340.248 402.914C341.334 403.156 342.213 403.445 342.885 403.781C343.557 404.117 344.053 404.523 344.373 405C344.701 405.469 344.866 406.043 344.866 406.722C344.866 407.855 344.412 408.765 343.506 409.453C342.6 410.133 341.424 410.472 339.979 410.472C338.963 410.472 338.065 410.293 337.284 409.933C336.502 409.574 335.889 409.074 335.444 408.433C335.006 407.785 334.787 407.086 334.787 406.336H336.955C336.994 407.062 337.284 407.64 337.823 408.07C338.369 408.492 339.088 408.703 339.979 408.703C340.799 408.703 341.455 408.539 341.948 408.211C342.448 407.875 342.698 407.429 342.698 406.875ZM352.951 410.472C351.233 410.472 349.834 409.91 348.756 408.785C347.678 407.652 347.139 406.14 347.139 404.25V403.851C347.139 402.594 347.377 401.472 347.854 400.488C348.338 399.496 349.01 398.722 349.869 398.168C350.737 397.605 351.674 397.324 352.682 397.324C354.33 397.324 355.612 397.867 356.526 398.953C357.44 400.039 357.897 401.594 357.897 403.617V404.519H349.307C349.338 405.769 349.701 406.781 350.397 407.554C351.1 408.32 351.991 408.703 353.069 408.703C353.834 408.703 354.483 408.547 355.014 408.234C355.545 407.922 356.01 407.508 356.409 406.992L357.733 408.023C356.67 409.656 355.076 410.472 352.951 410.472ZM352.682 399.105C351.807 399.105 351.073 399.426 350.479 400.066C349.885 400.699 349.518 401.59 349.377 402.738H355.729V402.574C355.666 401.472 355.369 400.621 354.838 400.019C354.307 399.41 353.588 399.105 352.682 399.105ZM371.455 408.703C372.229 408.703 372.905 408.469 373.483 408C374.061 407.531 374.381 406.945 374.444 406.242H376.494C376.455 406.969 376.205 407.66 375.744 408.316C375.284 408.972 374.666 409.496 373.893 409.886C373.127 410.277 372.315 410.472 371.455 410.472C369.729 410.472 368.354 409.898 367.33 408.75C366.315 407.594 365.807 406.015 365.807 404.015V403.652C365.807 402.418 366.034 401.32 366.487 400.359C366.94 399.398 367.588 398.652 368.432 398.121C369.284 397.59 370.287 397.324 371.444 397.324C372.866 397.324 374.045 397.75 374.983 398.601C375.928 399.453 376.432 400.558 376.494 401.918H374.444C374.381 401.097 374.069 400.426 373.506 399.902C372.951 399.371 372.264 399.105 371.444 399.105C370.342 399.105 369.487 399.504 368.877 400.301C368.276 401.09 367.975 402.234 367.975 403.734V404.144C367.975 405.605 368.276 406.73 368.877 407.519C369.479 408.308 370.338 408.703 371.455 408.703ZM381.1 399.094C382.061 397.914 383.311 397.324 384.85 397.324C387.53 397.324 388.881 398.836 388.905 401.859V410.238H386.737V401.847C386.729 400.933 386.518 400.258 386.104 399.82C385.698 399.383 385.061 399.164 384.194 399.164C383.491 399.164 382.873 399.351 382.342 399.726C381.811 400.101 381.397 400.594 381.1 401.203V410.238H378.932V392.238H381.1V399.094ZM397.412 410.472C395.694 410.472 394.295 409.91 393.217 408.785C392.139 407.652 391.6 406.14 391.6 404.25V403.851C391.6 402.594 391.838 401.472 392.315 400.488C392.799 399.496 393.471 398.722 394.33 398.168C395.198 397.605 396.135 397.324 397.143 397.324C398.791 397.324 400.073 397.867 400.987 398.953C401.901 400.039 402.358 401.594 402.358 403.617V404.519H393.768C393.799 405.769 394.162 406.781 394.858 407.554C395.561 408.32 396.451 408.703 397.53 408.703C398.295 408.703 398.944 408.547 399.475 408.234C400.006 407.922 400.471 407.508 400.869 406.992L402.194 408.023C401.131 409.656 399.537 410.472 397.412 410.472ZM397.143 399.105C396.268 399.105 395.534 399.426 394.94 400.066C394.346 400.699 393.979 401.59 393.838 402.738H400.19V402.574C400.127 401.472 399.83 400.621 399.299 400.019C398.768 399.41 398.049 399.105 397.143 399.105ZM409.963 408.703C410.737 408.703 411.412 408.469 411.991 408C412.569 407.531 412.889 406.945 412.951 406.242H415.002C414.963 406.969 414.713 407.66 414.252 408.316C413.791 408.972 413.174 409.496 412.401 409.886C411.635 410.277 410.823 410.472 409.963 410.472C408.237 410.472 406.862 409.898 405.838 408.75C404.823 407.594 404.315 406.015 404.315 404.015V403.652C404.315 402.418 404.541 401.32 404.994 400.359C405.448 399.398 406.096 398.652 406.94 398.121C407.791 397.59 408.795 397.324 409.951 397.324C411.373 397.324 412.553 397.75 413.491 398.601C414.436 399.453 414.94 400.558 415.002 401.918H412.951C412.889 401.097 412.576 400.426 412.014 399.902C411.459 399.371 410.772 399.105 409.951 399.105C408.85 399.105 407.994 399.504 407.385 400.301C406.784 401.09 406.483 402.234 406.483 403.734V404.144C406.483 405.605 406.784 406.73 407.385 407.519C407.987 408.308 408.846 408.703 409.963 408.703ZM420.979 404.367L419.619 405.785V410.238H417.451V392.238H419.619V403.125L420.78 401.73L424.729 397.558H427.366L422.432 402.855L427.94 410.238H425.397L420.979 404.367ZM446.291 404.039C446.291 405.976 445.846 407.535 444.955 408.715C444.065 409.886 442.869 410.472 441.369 410.472C439.768 410.472 438.53 409.906 437.655 408.773L437.549 410.238H435.557V392.238H437.725V398.953C438.6 397.867 439.807 397.324 441.346 397.324C442.885 397.324 444.092 397.906 444.967 399.07C445.85 400.234 446.291 401.828 446.291 403.851V404.039ZM444.123 403.793C444.123 402.316 443.838 401.176 443.268 400.371C442.698 399.566 441.877 399.164 440.807 399.164C439.377 399.164 438.35 399.828 437.725 401.156V406.64C438.389 407.969 439.424 408.633 440.83 408.633C441.869 408.633 442.678 408.23 443.256 407.426C443.834 406.621 444.123 405.41 444.123 403.793ZM456.862 410.238C456.737 409.988 456.635 409.543 456.557 408.902C455.549 409.949 454.346 410.472 452.948 410.472C451.698 410.472 450.67 410.121 449.866 409.418C449.069 408.707 448.67 407.808 448.67 406.722C448.67 405.402 449.17 404.379 450.17 403.652C451.178 402.918 452.592 402.551 454.412 402.551H456.522V401.554C456.522 400.797 456.295 400.195 455.842 399.75C455.389 399.297 454.721 399.07 453.838 399.07C453.065 399.07 452.416 399.265 451.893 399.656C451.369 400.047 451.108 400.519 451.108 401.074H448.928C448.928 400.441 449.151 399.832 449.596 399.246C450.049 398.652 450.659 398.183 451.424 397.84C452.198 397.496 453.045 397.324 453.967 397.324C455.428 397.324 456.573 397.691 457.401 398.426C458.229 399.152 458.659 400.156 458.69 401.437V407.273C458.69 408.437 458.838 409.363 459.135 410.051V410.238H456.862ZM453.264 408.586C453.944 408.586 454.588 408.41 455.198 408.058C455.807 407.707 456.248 407.25 456.522 406.687V404.086H454.823C452.166 404.086 450.838 404.863 450.838 406.418C450.838 407.097 451.065 407.629 451.518 408.011C451.971 408.394 452.553 408.586 453.264 408.586ZM467.174 408.703C467.948 408.703 468.623 408.469 469.201 408C469.78 407.531 470.1 406.945 470.162 406.242H472.213C472.174 406.969 471.924 407.66 471.463 408.316C471.002 408.972 470.385 409.496 469.612 409.886C468.846 410.277 468.034 410.472 467.174 410.472C465.448 410.472 464.073 409.898 463.049 408.75C462.034 407.594 461.526 406.015 461.526 404.015V403.652C461.526 402.418 461.752 401.32 462.205 400.359C462.659 399.398 463.307 398.652 464.151 398.121C465.002 397.59 466.006 397.324 467.162 397.324C468.584 397.324 469.764 397.75 470.701 398.601C471.647 399.453 472.151 400.558 472.213 401.918H470.162C470.1 401.097 469.787 400.426 469.225 399.902C468.67 399.371 467.983 399.105 467.162 399.105C466.061 399.105 465.205 399.504 464.596 400.301C463.994 401.09 463.694 402.234 463.694 403.734V404.144C463.694 405.605 463.994 406.73 464.596 407.519C465.198 408.308 466.057 408.703 467.174 408.703ZM478.19 404.367L476.83 405.785V410.238H474.662V392.238H476.83V403.125L477.991 401.73L481.94 397.558H484.576L479.643 402.855L485.151 410.238H482.608L478.19 404.367Z" fill="black"/>
</svg>