<svg width="749" height="471" viewBox="0 0 749 471" fill="none" xmlns="http://www.w3.org/2000/svg">
<path d="M723.229 271.434C717.529 320.347 711.88 369.209 706.181 418.122C704.537 432.032 702.945 445.941 701.302 459.901C701.2 460.877 702.74 460.877 702.843 459.901C708.543 410.988 714.191 362.126 719.891 313.213C721.534 299.304 723.126 285.395 724.769 271.434C724.872 270.459 723.331 270.459 723.229 271.434Z" fill="#E8E8E8"/>
<path d="M724.461 272.255C725.488 267.02 734.577 267.533 738.017 269.689C741.355 271.793 740.277 276.053 739.917 279.338C739.558 282.726 739.199 286.113 738.839 289.501C737.401 303.256 735.963 316.96 734.526 330.715C731.65 358.02 728.774 385.325 725.899 412.579C724.307 427.823 722.715 443.118 721.072 458.362C720.969 459.337 722.51 459.337 722.612 458.362C728.98 398.003 735.399 337.644 741.663 277.285C741.92 274.616 742.28 271.793 740.38 269.638C738.788 267.841 736.323 267.123 734.063 266.815C730.058 266.302 723.947 266.969 722.972 271.793C722.766 272.82 724.256 273.231 724.461 272.255Z" fill="#E8E8E8"/>
<path d="M718.299 311.263C708.132 309.158 706.694 323.222 703.202 329.329C698.272 337.849 689.389 343.752 679.632 344.984C678.862 345.086 678.503 346.267 679.427 346.472C682.713 347.293 683.33 351.297 683.638 354.119C683.946 357.045 683.997 360.022 683.74 362.947C683.124 369.312 681.122 375.42 677.886 380.911C677.373 381.784 678.708 382.554 679.222 381.681C680.505 379.526 683.586 379.834 685.281 381.373C687.232 383.17 687.232 386.198 686.975 388.61C686.462 392.819 684.87 396.72 685.948 400.98C686.103 401.647 686.975 401.698 687.335 401.185C692.727 393.64 700.224 387.943 708.953 384.812C709.877 384.504 709.467 383.016 708.542 383.324C699.402 386.608 691.648 392.511 686 400.415C686.462 400.466 686.924 400.518 687.386 400.62C685.846 394.41 691.289 386.865 687.027 381.168C684.87 378.242 679.889 377.575 677.835 380.963C678.297 381.219 678.708 381.476 679.17 381.733C682.97 375.214 685.178 367.875 685.384 360.33C685.538 355.608 685.743 346.472 679.786 345.035C679.735 345.548 679.632 346.061 679.581 346.523C687.848 345.497 695.5 341.391 700.943 335.078C703.561 332.049 705.564 328.559 706.951 324.761C708.696 319.885 710.904 311.314 717.888 312.751C718.864 312.956 719.275 311.468 718.299 311.263Z" fill="#E8E8E8"/>
<path d="M728.672 274.873C730.623 276.259 733.088 276.567 735.296 275.694C736.22 275.335 735.809 273.846 734.885 274.206C732.985 274.924 731.085 274.719 729.442 273.538C728.672 272.974 727.901 274.308 728.672 274.873Z" fill="#E8E8E8"/>
<path d="M729.441 278.004C730.417 279.646 732.522 280.467 734.32 279.749C735.244 279.39 734.833 277.901 733.909 278.26C732.728 278.722 731.393 278.363 730.777 277.234C730.263 276.361 728.979 277.131 729.441 278.004Z" fill="#E8E8E8"/>
<path d="M661.095 462.878C669.773 461.954 679.376 459.696 688.003 461.954C691.905 462.981 695.705 464.521 699.659 465.496C704.024 466.574 708.543 467.19 712.959 467.857C713.934 468.011 714.345 466.522 713.369 466.368C708.902 465.701 704.435 465.034 700.07 464.007C695.808 462.981 691.802 461.236 687.54 460.261C679.068 458.208 669.671 460.415 661.146 461.338C660.119 461.441 660.119 463.032 661.095 462.878Z" fill="#E8E8E8"/>
<path d="M707.618 462.365C714.191 462.878 720.404 460.877 726.72 459.439C733.806 457.848 740.995 457.284 748.236 457.746C749.211 457.797 749.211 456.257 748.236 456.206C741.509 455.795 734.833 456.206 728.261 457.54C721.431 458.926 714.756 461.39 707.669 460.825C706.591 460.723 706.591 462.262 707.618 462.365Z" fill="#E8E8E8"/>
<path d="M665.768 219.287C658.938 262.709 652.109 306.13 645.228 349.603C643.277 361.921 641.325 374.29 639.374 386.608C639.22 387.584 640.709 387.994 640.863 387.019C647.693 343.598 654.522 300.176 661.403 256.704C663.354 244.386 665.306 232.016 667.257 219.698C667.411 218.723 665.922 218.312 665.768 219.287Z" fill="#E8E8E8"/>
<path d="M651.236 221.7C643.379 265.07 635.779 308.491 628.436 351.913C626.382 364.179 624.328 376.395 622.274 388.662C622.12 389.637 623.609 390.047 623.763 389.072C631.004 345.599 638.45 302.178 646.152 258.757C648.309 246.541 650.517 234.326 652.725 222.059C652.93 221.135 651.441 220.724 651.236 221.7Z" fill="#E8E8E8"/>
<path d="M652.315 221.238C654.933 215.694 661.814 214.514 666.076 218.979C666.744 219.698 667.874 218.62 667.155 217.902C662.225 212.769 654.009 214.052 650.979 220.519C650.569 221.34 651.904 222.11 652.315 221.238Z" fill="#E8E8E8"/>
<path d="M645.741 244.283C643.944 251.468 636.395 254.445 630.079 256.55C624.277 258.5 618.269 260.604 614.52 265.737C614.007 266.456 614.982 267.071 615.599 266.815C620.015 264.916 618.782 272.461 618.32 274.308C617.653 276.772 616.677 279.133 615.445 281.34C615.188 281.751 615.393 282.366 615.907 282.469C618.731 283.085 617.242 287.345 616.626 289.09C615.599 291.964 614.52 294.787 613.493 297.661C611.388 303.359 609.334 309.056 607.229 314.753C607.023 315.369 607.639 315.831 608.153 315.677C609.129 315.471 609.796 315.009 610.515 314.342C611.182 313.726 611.901 312.956 612.774 312.648C613.75 312.34 614.828 312.546 615.855 312.597C618.782 312.7 621.709 312.34 624.431 311.314C629.669 309.364 634.033 305.566 636.601 300.587C637.063 299.714 635.728 298.945 635.266 299.817C632.544 305.104 627.666 309.004 621.915 310.493C618.988 311.263 616.266 310.698 613.391 311.006C610.874 311.263 610.053 313.726 607.742 314.188C608.05 314.496 608.358 314.804 608.666 315.112C611.439 307.516 614.263 299.92 617.036 292.324C618.063 289.501 621.401 282.058 616.317 280.929C616.472 281.289 616.626 281.699 616.78 282.058C618.834 278.414 621.144 273.333 620.477 269.022C620.066 266.25 617.601 264.249 614.828 265.429C615.188 265.788 615.547 266.148 615.907 266.507C623.661 255.985 643.687 259.219 647.333 244.694C647.436 243.718 645.998 243.308 645.741 244.283Z" fill="#E8E8E8"/>
<path d="M605.79 392.768C611.85 393.435 617.139 389.226 623.249 390.099C628.847 390.869 633.93 393.897 639.681 393.64C640.657 393.589 640.657 392.049 639.681 392.1C633.828 392.357 628.641 389.175 622.941 388.508C616.933 387.84 611.747 391.895 605.79 391.228C604.815 391.125 604.815 392.665 605.79 392.768Z" fill="#E8E8E8"/>
<path d="M637.834 294.992C636.858 297.045 635.677 298.945 634.239 300.741C633.623 301.511 634.701 302.589 635.318 301.819C636.858 299.971 638.142 297.969 639.117 295.762C639.58 294.89 638.244 294.12 637.834 294.992Z" fill="#E8E8E8"/>
<path d="M420.469 382.656C440.804 377.627 462.011 381.219 482.551 382.502C504.118 383.837 525.737 384.042 547.355 383.837C559.628 383.734 571.849 383.478 584.122 383.272C585.097 383.272 585.097 381.733 584.122 381.733C562.195 382.143 540.217 382.554 518.291 382.246C507.405 382.092 496.518 381.733 485.684 381.117C475.157 380.501 464.681 379.423 454.155 378.858C442.755 378.242 431.252 378.396 420.11 381.168C419.134 381.373 419.545 382.862 420.469 382.656Z" fill="#E8E8E8"/>
<path d="M589.77 409.397C605.534 411.707 621.042 407.498 636.704 406.369C652.982 405.188 669.26 407.601 685.127 411.347C686.102 411.553 686.513 410.116 685.538 409.859C670.235 406.266 654.471 403.854 638.655 404.726C622.48 405.599 606.407 410.321 590.181 407.96C589.205 407.755 588.794 409.243 589.77 409.397Z" fill="#E8E8E8"/>
<path d="M75.449 382.349C94.4485 380.501 113.345 381.733 132.037 385.582C140.715 387.378 149.444 389.277 158.379 389.175C167.057 389.072 175.684 387.43 184.208 385.993C194.478 384.248 204.902 382.759 215.275 384.453C216.251 384.607 216.661 383.118 215.686 382.964C198.073 380.039 180.922 386.147 163.514 387.43C153.758 388.148 144.361 386.557 134.861 384.607C125.875 382.759 116.888 381.219 107.697 380.501C96.9647 379.68 86.1812 379.782 75.449 380.86C74.4734 380.86 74.4734 382.4 75.449 382.349Z" fill="#E8E8E8"/>
<path d="M19.0665 258.808C34.4715 254.856 49.9278 250.904 65.6923 248.646C81.4054 246.387 97.0671 246.336 112.78 248.338C143.025 252.238 173.014 259.578 202.489 267.379C260.463 282.828 317.256 302.383 375.179 318.038C407.889 326.866 440.958 334.462 474.49 339.235C475.465 339.389 475.876 337.901 474.9 337.747C414.718 329.124 356.385 311.622 298.359 293.915C240.436 276.207 182.205 257.73 122.229 248.132C104.975 245.361 87.7728 244.334 70.3138 246.439C52.8034 248.543 35.6525 252.906 18.6043 257.268C17.68 257.576 18.0908 259.065 19.0665 258.808Z" fill="#E8E8E8"/>
<path d="M320.85 302.024C356.744 302.178 392.278 296.481 427.402 289.501C462.73 282.469 497.854 274.103 533.593 269.022C553.928 266.096 574.417 264.351 594.957 264.454C595.932 264.454 595.932 262.914 594.957 262.914C559.063 262.709 523.529 268.406 488.405 275.335C453.077 282.366 417.953 290.732 382.214 295.865C361.879 298.791 341.39 300.587 320.85 300.484C319.823 300.484 319.823 302.024 320.85 302.024Z" fill="#E8E8E8"/>
<path d="M673.522 272.717C684.871 276.618 695.859 281.494 706.335 287.345C707.208 287.807 707.978 286.524 707.105 286.011C696.476 280.108 685.384 275.181 673.882 271.229C673.009 270.921 672.598 272.409 673.522 272.717Z" fill="#E8E8E8"/>
<path d="M0.374963 328.508C6.02346 338.568 8.23151 350.116 6.84506 361.562C6.79371 361.972 7.25586 362.332 7.61531 362.332C9.36121 362.229 12.3909 362.332 13.6746 363.769C14.8557 365.052 13.6746 366.489 12.9044 367.567C11.8774 369.004 10.5423 370.492 10.5423 372.34C10.5423 373.367 10.9531 374.188 11.3125 375.112C12.1341 377.011 12.5963 378.807 12.9557 380.86C13.4179 383.632 13.9314 386.301 15.0611 388.867C19.4772 399.029 29.4904 405.496 38.5794 411.142C39.401 411.655 40.2226 410.321 39.3496 409.808C29.285 403.546 17.6286 396.052 15.0097 383.632C14.3422 380.449 13.9314 377.421 12.699 374.342C11.3125 371.057 13.8287 369.568 15.2151 366.951C17.834 362.178 11.3125 360.587 7.66666 360.792C7.92341 361.048 8.18016 361.305 8.43691 361.562C9.87471 349.859 7.51261 338.055 1.76141 327.738C1.24791 326.866 -0.0871871 327.636 0.374963 328.508Z" fill="#E8E8E8"/>
<path d="M3.04514 328.611C8.28284 331.69 13.5719 334.821 18.8096 337.901C20.9149 339.132 24.9716 341.134 24.0473 344.06C23.5338 345.702 21.6852 346.369 21.7365 348.268C21.7365 348.782 22.1987 349.141 22.7122 348.987C26.8202 347.909 28.5147 352.734 30.1066 355.454C31.4417 357.712 33.393 359.303 35.2416 361.151C38.9388 364.898 41.9171 369.26 44.1765 373.982C48.8493 383.734 50.1844 394.975 47.771 405.496C47.5656 406.471 49.0547 406.882 49.2601 405.907C51.879 394.41 50.2358 382.246 44.7927 371.775C42.0198 366.386 38.2712 361.972 33.9578 357.764C30.5174 354.427 28.6688 345.805 22.3014 347.447C22.6095 347.704 22.9689 347.96 23.277 348.166C23.2257 346.985 24.9202 346.113 25.4851 345.189C25.8445 344.522 25.9986 343.906 25.9472 343.136C25.7932 341.134 24.0473 339.44 22.5068 338.26C19.7339 336.156 16.4475 334.564 13.4178 332.819C10.2341 330.92 6.99909 329.021 3.81539 327.122C2.94244 326.763 2.17219 328.097 3.04514 328.611Z" fill="#E8E8E8"/>
<path d="M11.8777 343.187C25.4341 361.818 35.4987 382.759 41.558 404.932C41.8147 405.907 43.3039 405.496 43.0471 404.521C36.9365 382.195 26.8719 361.1 13.2128 342.417C12.6479 341.596 11.3128 342.366 11.8777 343.187Z" fill="#E8E8E8"/>
<path d="M33.0849 355.197C33.8038 337.901 47.6169 324.556 48.9007 307.311C48.3872 307.362 47.8737 307.465 47.4115 307.516C48.798 311.827 50.1844 316.139 51.6222 320.45C52.4952 323.068 57.7329 334.821 51.8276 334.667C51.0574 334.667 50.8006 335.694 51.4168 336.104C53.7276 337.593 53.2654 340.672 53.4195 343.085C53.5222 345.138 53.9843 346.883 54.8059 348.782C57.4761 354.684 58.041 360.433 57.168 366.797C56.3464 372.699 54.7032 378.448 53.2654 384.196C51.7249 390.458 50.1844 396.771 48.6439 403.033C48.3872 404.008 49.8763 404.419 50.1331 403.443C51.8276 396.514 53.5735 389.585 55.2681 382.605C56.8086 376.395 58.5545 370.184 59.068 363.769C59.2734 360.946 59.222 358.072 58.7085 355.249C58.1437 352.067 56.5518 349.449 55.5762 346.421C54.3438 342.623 56.1924 337.233 52.2384 334.718C52.0844 335.18 51.9817 335.694 51.8276 336.156C57.2194 336.31 56.3978 330.048 55.3194 326.712C53.2141 320.193 51.0574 313.624 48.952 307.105C48.6953 306.284 47.5142 306.438 47.4629 307.311C46.2305 324.505 32.366 337.849 31.6471 355.197C31.493 356.173 33.0335 356.173 33.0849 355.197Z" fill="#E8E8E8"/>
<path d="M48.1817 321.374C45.2034 334.616 42.9954 348.063 41.6089 361.562C41.5062 362.537 43.0467 362.537 43.1494 361.562C44.5359 348.166 46.7439 334.924 49.6709 321.784C49.8763 320.809 48.3871 320.399 48.1817 321.374Z" fill="#E8E8E8"/>
<path d="M21.2229 379.628C26.7687 380.655 31.6983 383.272 35.6523 387.276C36.3712 387.994 37.4495 386.916 36.7306 386.198C32.6226 381.989 27.4363 379.218 21.6337 378.14C20.6581 377.986 20.2473 379.474 21.2229 379.628Z" fill="#E8E8E8"/>
<path d="M28.8745 366.745C29.388 362.588 29.9529 358.482 30.4664 354.325C30.5691 353.35 29.0286 353.35 28.9259 354.325C28.4124 358.482 27.8475 362.588 27.334 366.745C27.2313 367.721 28.7718 367.721 28.8745 366.745Z" fill="#E8E8E8"/>
<path d="M40.1713 336.874C41.7632 338.978 42.8415 341.237 43.4064 343.803C43.6118 344.778 45.1009 344.368 44.8955 343.392C44.2793 340.723 43.1497 338.26 41.5065 336.104C40.8903 335.334 39.5551 336.053 40.1713 336.874Z" fill="#E8E8E8"/>
<path d="M443.32 349.962C443.628 353.247 443.526 356.532 443.166 359.817C443.115 360.125 443.423 360.535 443.731 360.535C445.118 360.74 446.504 360.946 447.942 361.1C447.788 360.74 447.634 360.33 447.48 359.971C446.966 361.202 445.477 363.153 446.196 364.487C446.658 365.308 447.839 365.565 448.301 366.54C448.866 367.721 448.712 369.106 449.226 370.287C451.28 374.701 459.033 372.032 460.266 376.703C460.523 377.678 462.012 377.267 461.755 376.292C460.728 372.289 456.312 372.648 453.128 371.57C449.739 370.441 450.817 367.31 449.226 364.898C448.866 364.385 447.839 363.974 447.634 363.563C447.428 363.153 448.507 361.356 448.815 360.74C448.969 360.33 448.917 359.663 448.353 359.611C446.966 359.406 445.58 359.201 444.142 359.047C444.347 359.303 444.501 359.56 444.707 359.765C445.118 356.48 445.169 353.196 444.861 349.911C444.758 348.987 443.218 348.987 443.32 349.962Z" fill="#E8E8E8"/>
<path d="M445.015 351.81C449.38 353.812 454.155 355.454 458.161 358.123C463.296 361.562 464.014 366.643 463.963 372.443C463.963 373.418 465.504 373.418 465.504 372.443C465.504 367.207 465.144 361.972 460.933 358.328C456.723 354.633 450.817 352.785 445.785 350.475C444.912 350.065 444.142 351.399 445.015 351.81Z" fill="#E8E8E8"/>
<path d="M449.379 359.817C455.079 363.563 459.392 368.799 462.114 375.06C462.525 375.984 463.808 375.163 463.449 374.29C460.676 367.772 456.106 362.383 450.201 358.534C449.328 357.969 448.558 359.303 449.379 359.817Z" fill="#E8E8E8"/>
<path d="M464.271 360.792C463.86 359.201 463.141 357.199 463.963 355.659C464.63 354.427 465.914 354.171 466.992 353.452C468.584 352.426 468.944 350.013 469.714 348.474C470.227 347.447 471.203 345.445 472.23 344.83C473.719 343.906 474.952 345.548 475.362 346.985C475.773 348.422 475.516 349.808 475.003 351.194C474.746 351.861 474.335 352.426 474.387 353.196C474.438 353.76 474.592 354.068 474.9 354.581C475.773 355.916 476.697 356.788 476.851 358.533C477.057 361.51 475.516 364.077 473.668 366.284C470.844 369.671 467.403 372.443 466.171 376.857C465.914 377.832 467.403 378.242 467.66 377.267C469.508 370.8 477.006 367.669 478.238 360.946C478.7 358.482 478.033 356.788 477.006 354.633C476.03 352.528 476.595 351.861 476.954 349.911C477.16 348.833 477.108 347.652 476.8 346.575C476.389 344.984 474.952 342.571 473 342.623C471.049 342.623 469.354 345.959 468.584 347.345C467.814 348.73 467.403 350.937 466.222 351.913C465.298 352.682 464.219 352.785 463.346 353.658C461.395 355.762 462.063 358.739 462.73 361.202C463.09 362.126 464.579 361.767 464.271 360.792Z" fill="#E8E8E8"/>
<path d="M470.792 354.068C468.122 360.022 465.811 366.13 463.963 372.391C463.655 373.367 465.144 373.726 465.452 372.802C467.249 366.694 469.508 360.689 472.127 354.889C472.538 353.965 471.203 353.144 470.792 354.068Z" fill="#E8E8E8"/>
<path d="M64.7165 373.777C79.6593 368.799 95.9373 369.261 110.572 375.163C111.496 375.522 111.907 374.034 110.983 373.674C96.0913 367.721 79.5053 367.259 64.3057 372.289C63.3814 372.648 63.7922 374.136 64.7165 373.777Z" fill="#E8E8E8"/>
<path d="M573.492 83.4288C596.605 83.4288 615.342 64.9765 615.342 42.2144C615.342 19.4523 596.605 1 573.492 1C550.379 1 531.642 19.4523 531.642 42.2144C531.642 64.9765 550.379 83.4288 573.492 83.4288Z" stroke="#E8E8E8" stroke-width="2" stroke-miterlimit="10"/>
<path d="M74.7811 125.413C71.546 120.178 79.2485 115.918 83.6133 116.277C89.005 116.739 93.8319 119.87 99.275 120.178C108.159 120.742 115.604 114.737 123.358 111.452C128.134 109.451 132.909 108.732 137.942 110.015C142.871 111.299 147.339 113.813 152.217 115.199C156.479 116.431 160.638 116.482 164.952 115.353C169.779 114.121 174.246 111.812 179.124 110.631C184.362 109.348 188.932 110.221 193.4 113.095C197.148 115.507 200.589 118.689 204.953 120.024C209.575 121.461 217.637 119.716 219.896 125.208C222.258 130.905 213.683 133.163 209.78 133.676C203.721 134.395 197.559 134.549 191.5 134.036C185.594 133.574 179.843 132.137 173.938 131.983C168.495 131.829 163.873 133.317 159.2 136.037C154.271 138.963 149.598 141.478 143.744 142.094C131.266 143.428 119.045 138.706 106.618 138.86C99.6345 138.912 92.3428 140.759 85.4619 138.809C79.7107 137.167 73.9081 131.777 75.2946 125.362C75.5 124.387 74.0108 123.976 73.8054 124.951C72.8298 129.57 74.8838 133.779 78.4269 136.756C82.7917 140.4 88.2348 141.324 93.7806 141.221C100.507 141.067 107.029 140.143 113.756 140.811C120.02 141.478 126.234 142.761 132.498 143.48C138.25 144.096 144.258 144.198 149.855 142.504C155.811 140.657 160.433 136.191 166.389 134.446C173.168 132.445 180.305 134.344 187.135 135.216C194.016 136.089 200.999 136.191 207.88 135.524C212.142 135.114 217.123 134.446 220.204 131.11C222.823 128.236 222.156 124.233 219.126 121.923C214.556 118.433 208.24 120.178 203.207 117.766C198.586 115.559 194.94 111.658 190.113 109.707C179.484 105.396 169.881 114.429 159.406 114.789C153.552 114.994 148.212 112.171 142.923 110.118C138.044 108.27 133.115 107.192 127.98 108.373C122.537 109.605 117.761 112.582 112.831 115.045C106.618 118.125 100.816 119.665 93.986 117.56C88.5942 115.918 82.7403 113.044 77.2972 116.123C73.7541 118.125 71.0325 122.282 73.446 126.183C73.9595 127.055 75.2946 126.286 74.7811 125.413Z" fill="#E8E8E8"/>
<path d="M339.49 52.7361C343.598 44.2674 354.844 50.6318 360.8 52.5308C368.503 54.9944 374.87 51.5043 381.751 48.3221C386.013 46.3204 390.224 45.1399 394.948 45.3966C399.775 45.7045 404.499 47.039 409.275 47.7062C418.364 48.938 426.836 46.0638 435.669 44.5754C440.393 43.8055 445.22 43.6515 449.944 44.1647C452.357 44.4214 454.771 44.832 457.133 45.4479C459.341 46.0125 462.063 46.5257 464.014 47.7062C469.97 51.2477 462.063 57.2014 458.365 58.2793C454.565 59.4084 450.509 59.1518 446.658 58.4846C442.19 57.7147 437.774 56.4315 433.255 56.2776C428.993 56.0723 425.142 57.2014 421.239 58.7412C416.721 60.5376 412.407 62.2827 407.478 62.334C402.651 62.3853 397.772 61.7181 392.945 61.4614C381.854 60.9482 370.711 61.2048 359.671 62.2313C354.382 62.7446 348.99 63.9764 343.701 64.0277C341.082 64.0791 338.309 63.5145 336.358 61.6667C335.228 60.5376 334.406 59.0492 334.663 57.4067C334.971 55.405 336.615 53.506 338.874 53.8653C339.85 54.0192 340.26 52.5308 339.285 52.3768C336.152 51.9149 333.482 54.1732 333.071 57.3041C332.661 60.6916 335.433 63.5658 338.412 64.7463C343.033 66.594 348.425 65.1056 353.149 64.541C359.003 63.8224 364.857 63.3092 370.762 63.0525C376.668 62.7959 382.521 62.6933 388.427 62.8986C394.281 63.0525 400.134 63.7198 405.988 63.9251C411.329 64.079 415.95 62.5393 420.829 60.5889C426.528 58.3306 431.663 57.3554 437.774 58.3819C445.939 59.7164 455.438 63.0012 463.038 57.92C465.657 56.1749 468.327 52.8388 467.403 49.5026C466.376 45.6532 460.265 44.7293 457.082 43.9594C452.152 42.779 447.068 42.2657 441.985 42.471C436.542 42.7276 431.253 43.9594 425.964 45.0886C420.007 46.3717 414.204 47.039 408.145 46.0638C403.01 45.2426 397.875 43.7541 392.586 43.9081C381.597 44.1647 372.868 54.6865 361.571 51.299C356.744 49.8619 352.276 46.9876 347.039 47.0903C343.393 47.1929 339.747 48.6301 338.104 52.0689C337.744 52.8388 339.079 53.6086 339.49 52.7361Z" fill="#E8E8E8"/>
<path d="M567.535 129.878C580.527 122.641 595.88 126.286 610.002 125.978C617.037 125.824 623.301 124.233 629.977 122.077C633.777 120.845 637.525 119.973 641.531 119.973C645.485 119.921 649.387 120.434 653.341 120.64C656.679 120.794 660.068 120.794 663.303 119.973C664.895 119.613 666.384 118.946 667.924 118.587C671.416 117.817 673.06 120.383 673.162 123.565C673.368 131.418 665.46 135.781 658.733 136.961C650.62 138.347 642.198 137.321 634.033 137.064C626.28 136.859 618.731 137.577 611.08 138.963C602.248 140.554 593.364 142.556 584.327 142.35C580.065 142.248 575.803 141.683 571.746 140.349C569.743 139.682 567.638 138.86 565.841 137.68C563.941 136.448 561.168 132.188 565.07 131.367C566.046 131.162 565.635 129.673 564.66 129.878C562.452 130.34 561.271 132.599 561.681 134.806C562.298 137.885 565.738 139.579 568.357 140.708C575.854 143.993 584.224 144.403 592.286 143.634C601.837 142.761 611.08 140.195 620.631 139.117C630.49 137.988 640.35 139.22 650.26 139.168C657.655 139.117 666.333 138.347 671.468 132.291C673.419 129.981 674.754 127.055 674.805 123.976C674.857 121.512 674.087 118.279 671.57 117.252C668.335 115.918 664.433 118.381 661.249 118.895C656.576 119.613 651.749 118.997 647.076 118.689C642.917 118.381 638.758 118.33 634.65 119.254C630.08 120.281 625.766 122.18 621.196 123.257C603.326 127.466 583.659 119.254 566.868 128.647C565.892 129.057 566.662 130.392 567.535 129.878Z" fill="#E8E8E8"/>
<path d="M33.444 443.323C52.4949 437.883 71.8025 432.494 91.6235 430.851C101.585 430.03 111.65 430.184 121.561 431.878C131.06 433.52 139.995 436.754 148.725 440.706C158.327 444.966 167.724 449.739 177.737 452.87C178.662 453.178 179.073 451.689 178.148 451.381C159.56 445.53 143.076 434.444 123.82 430.749C104.718 427.053 85.1021 429.209 66.2567 433.212C55.0624 435.624 44.0221 438.704 33.0332 441.835C32.1089 442.091 32.5197 443.58 33.444 443.323Z" fill="#E8E8E8"/>
<path d="M151.549 439.576C166.389 437.78 181.127 436.446 196.018 438.191C210.704 439.936 225.031 444.144 238.382 450.509C239.255 450.919 240.076 449.585 239.152 449.174C226.109 442.964 212.193 438.755 197.867 436.908C182.359 434.854 167.005 436.189 151.549 438.037C150.573 438.139 150.573 439.679 151.549 439.576Z" fill="#E8E8E8"/>
<path d="M216.97 450.047C224.364 452.203 231.707 454.461 239.102 456.463C245.469 458.156 252.093 459.234 258.512 457.027C259.436 456.719 259.025 455.231 258.101 455.539C251.374 457.9 244.391 456.36 237.715 454.461C230.937 452.562 224.159 450.509 217.381 448.558C216.456 448.302 216.045 449.79 216.97 450.047Z" fill="#E8E8E8"/>
<path d="M154.322 453.434C170.395 454.204 185.492 464.418 201.821 460.723C202.797 460.517 202.386 459.029 201.41 459.234C185.338 462.878 170.189 452.664 154.322 451.895C153.346 451.843 153.346 453.383 154.322 453.434Z" fill="#E8E8E8"/>
<path d="M10.4394 456.719C22.4039 453.332 34.3685 449.944 46.333 446.557C47.3087 446.3 46.8979 444.812 45.9222 445.068C33.9577 448.456 21.9931 451.843 10.0286 455.231C9.05292 455.487 9.46372 456.976 10.4394 456.719Z" fill="#E8E8E8"/>
<path d="M41.9169 453.794C52.8545 450.868 63.9461 448.404 75.089 446.454C76.0647 446.3 75.6539 444.812 74.6782 444.966C63.5353 446.967 52.4437 449.38 41.5061 452.305C40.5305 452.613 40.9413 454.05 41.9169 453.794Z" fill="#E8E8E8"/>
<path d="M269.478 432.071C309.223 432.071 348.968 432.071 388.764 432.071C391.742 432.071 391.742 427.451 388.764 427.451C349.019 427.451 309.274 427.451 269.478 427.451C266.5 427.451 266.5 432.071 269.478 432.071Z" fill="#161616"/>
<path d="M403.964 432.943C412.128 432.943 420.293 432.943 428.509 432.943C431.487 432.943 431.487 428.324 428.509 428.324C420.344 428.324 412.18 428.324 403.964 428.324C400.985 428.324 400.985 432.943 403.964 432.943Z" fill="#161616"/>
<path d="M444.53 432.071C448.176 432.071 451.873 432.071 455.519 432.071C458.497 432.071 458.497 427.451 455.519 427.451C451.873 427.451 448.176 427.451 444.53 427.451C441.552 427.451 441.552 432.071 444.53 432.071Z" fill="#161616"/>
<path d="M438.624 470.103C475.699 470.103 512.825 470.103 549.9 470.103C560.427 470.103 571.005 470.103 581.532 470.103C584.51 470.103 584.51 465.484 581.532 465.484C544.457 465.484 507.331 465.484 470.256 465.484C459.729 465.484 449.151 465.484 438.624 465.484C435.646 465.484 435.646 470.103 438.624 470.103Z" fill="#161616"/>
<path d="M593.394 469.282C601.302 469.282 609.158 469.282 617.066 469.282C620.045 469.282 620.045 464.662 617.066 464.662C609.158 464.662 601.302 464.662 593.394 464.662C590.416 464.662 590.416 469.282 593.394 469.282Z" fill="#161616"/>
<path d="M628.928 470.103C632.009 470.103 635.141 470.103 638.222 470.103C641.2 470.103 641.2 465.484 638.222 465.484C635.141 465.484 632.009 465.484 628.928 465.484C625.949 465.484 625.949 470.103 628.928 470.103Z" fill="#161616"/>
<path d="M104.593 34.2468C107.16 35.6326 109.523 37.3263 111.679 39.328C112.398 39.9953 113.477 38.9174 112.758 38.2502C110.55 36.1458 108.085 34.4008 105.363 32.9637C104.49 32.4504 103.72 33.7849 104.593 34.2468Z" fill="#161616"/>
<path d="M114.966 30.6027C113.99 28.3957 113.014 26.24 112.039 24.033C111.628 23.1091 110.293 23.9304 110.704 24.8029C111.679 27.0099 112.655 29.1656 113.63 31.3726C114.041 32.2964 115.376 31.5265 114.966 30.6027Z" fill="#161616"/>
<path d="M121.59 27.0612C120.666 24.341 120.358 21.6207 120.768 18.7465C120.871 17.7713 119.331 17.7713 119.228 18.7465C118.868 21.7234 119.125 24.6489 120.152 27.4718C120.409 28.3957 121.898 27.9851 121.59 27.0612Z" fill="#161616"/>
<path d="M297.464 56.5734C299.364 57.4459 301.469 57.4972 303.369 56.4194C305.988 54.931 306.09 52.416 306.707 49.7471C306.912 48.7719 307.22 47.5914 307.99 46.9242C309.582 45.5384 310.147 46.5136 311.431 46.8729C312.252 47.0782 313.023 47.1295 313.793 46.7702C315.282 46.103 318.979 39.0714 320.674 41.381C321.29 42.1509 322.625 41.381 322.009 40.6112C320.776 39.0201 319.031 39.174 317.439 40.2519C316.36 40.9704 315.847 41.9969 315.179 43.0234C314.82 43.6394 314.358 44.4606 313.793 44.9225C312.201 46.103 311.585 45.0765 310.198 44.8198C308.042 44.4092 306.399 45.8464 305.628 47.7967C304.961 49.3878 305.115 51.1842 304.499 52.8266C303.472 55.3416 300.699 56.4707 298.234 55.2902C297.31 54.8283 296.539 56.1628 297.464 56.5734Z" fill="#161616"/>
<path d="M305.166 61.5006C306.86 62.7324 308.812 61.9112 310.096 60.4741C312.355 57.8052 310.763 53.2885 314.306 51.5948C316.925 50.3117 319.955 50.8762 322.471 49.0799C324.679 47.4888 325.86 45.0251 326.065 42.3562C326.117 41.381 324.576 41.381 324.525 42.3562C324.32 45.4871 322.265 48.0533 319.236 48.9259C317.285 49.4905 315.128 49.3878 313.331 50.3117C311.841 51.0815 310.968 52.416 310.558 54.0071C310.25 55.0849 310.198 56.2654 309.941 57.3433C309.531 58.883 307.99 61.6546 305.988 60.1662C305.166 59.6016 304.396 60.936 305.166 61.5006Z" fill="#161616"/>
<path d="M311.174 374.124C316.103 378.333 321.136 382.542 326.271 386.75C331.2 390.805 336.13 394.809 341.008 398.658C343.216 405.433 342.241 409.488 340.854 411.9C338.441 416.16 334.538 416.211 328.119 422.37C324.833 425.501 321.033 429.197 321.752 431.352C322.625 433.97 330.327 435.202 357.697 430.582C363.345 418.88 368.994 407.178 374.642 395.476C362.267 382.644 349.84 369.762 337.465 356.93C328.684 362.679 319.955 368.427 311.174 374.124Z" fill="#191919"/>
<path d="M255.613 252.74C250.016 266.238 255.819 281.225 264.959 304.681C268.759 314.433 272.713 321.772 274.767 325.519C278.824 332.961 281.186 336.195 297.772 359.548C310.969 378.128 312.252 380.027 316.104 381.259C329.352 385.519 350.816 374.638 351.022 360.42C351.176 350.463 340.803 343.278 339.108 342.097C332.792 333.218 328.838 325.108 326.322 319.103C321.958 308.582 317.285 297.393 318.209 283.329C319.031 271.217 323.087 270.498 322.882 259.925C322.831 258.283 322.214 238.522 310.096 230.567C294.28 220.25 263.727 233.236 255.613 252.74Z" fill="white" stroke="#191919" stroke-width="2" stroke-miterlimit="10"/>
<path opacity="0.47" d="M322.214 255.049C323.036 257.307 322.368 261.567 321.033 270.036C319.544 279.48 318.465 280.045 317.952 285.023C317.079 293.338 319.184 299.548 323.19 311.405C324.268 314.535 326.527 319.514 331.046 329.471C334.179 336.349 335.719 339.428 339.16 342.302C341.932 344.612 343.062 344.509 345.322 346.819C348.557 350.155 350.713 355.134 350.816 359.65C351.021 369.864 341.008 378.076 332.279 380.797C324.576 383.209 317.747 381.361 314.666 380.335C308.606 373.149 300.236 362.781 291.096 349.642C279.234 332.602 272.61 323.158 267.526 309.916C261.364 293.903 251.556 268.394 264.189 253.766C279.131 236.572 317.901 243.45 322.214 255.049Z" fill="#6C6D6D"/>
<path opacity="0.37" d="M288.425 277.17C294.741 282.149 293.766 290.72 295.101 303.346C296.641 317.872 300.544 331.421 304.395 339.993C315.436 364.629 337.054 373.149 333.922 379.257C332.176 382.644 323.754 383.466 317.746 381.618C315.538 380.951 313.844 379.975 312.765 379.257C303.266 366.939 295.923 356.417 290.89 349.026C265.01 311.148 262.288 298.778 264.496 288.616C265.113 285.793 266.704 278.351 272.815 275.323C277.693 272.808 284.266 273.886 288.425 277.17Z" fill="#6C6D6D"/>
<path opacity="0.47" d="M305.012 276.606C301.417 284.305 297.463 289.54 294.639 292.876C287.604 301.088 282.212 303.346 278.361 311.148C275.691 316.64 275.229 321.875 275.177 325.16C273.586 322.645 271.994 319.925 270.453 317.05C267.013 310.532 264.445 304.373 262.545 298.778C276.718 291.388 290.839 283.997 305.012 276.606Z" fill="#6C6D6D"/>
<path d="M211.76 369.762C216.689 373.97 221.722 378.179 226.857 382.388C231.786 386.442 236.716 390.446 241.594 394.295C239.951 396.143 237.383 398.966 234.251 402.353C228.449 408.564 226.908 409.847 225.111 412.875C224.238 414.364 219.411 422.627 221.978 425.86C225.368 430.12 240.927 424.218 251.094 417.802C257.307 413.85 267.269 406.049 275.28 391.164C262.904 378.333 250.478 365.45 238.102 352.619C229.27 358.316 220.489 364.065 211.76 369.762Z" fill="#191919"/>
<path d="M257.77 247.453C249.554 252.534 242.929 257.564 220.284 278.248C183.569 311.712 180.077 317.512 178.999 325.468C177.201 338.658 182.645 353.081 192.606 362.217C195.071 364.475 205.084 373.611 218.898 372.379C230.451 371.353 245.856 362.987 245.189 351.438C244.778 343.894 237.589 336.862 227.935 333.526C247.756 315.459 265.883 304.168 279.285 297.033C296.077 288.103 306.757 284.972 311.584 273.732C317.541 259.822 312.252 239.036 299.928 233.133C289.144 228.001 276.512 235.853 257.77 247.453Z" fill="white" stroke="#191919" stroke-width="2" stroke-miterlimit="10"/>
<path opacity="0.42" d="M283.188 241.756C283.188 251.251 281.648 263.98 274.253 275.887C257.308 302.987 226.19 301.345 218.282 325.776C217.358 328.701 214.02 342.2 220.695 349.693C224.392 353.799 230.144 354.98 231.736 360.523C232.66 363.705 231.736 366.785 230.811 368.94C237.949 367.349 243.443 361.858 244.624 355.134C246.473 344.509 236.254 337.632 235.484 337.119C232.249 335.014 229.065 334.347 227.063 334.09C249.4 312.996 269.478 301.037 284.369 293.902C294.639 288.975 307.066 284.048 311.944 271.935C316.052 261.67 312.971 250.738 309.839 243.449C300.955 242.834 292.072 242.32 283.188 241.756Z" fill="#6C6D6D"/>
<path opacity="0.5" d="M293.253 255.1C294.126 259.874 294.742 267.059 291.866 274.501C287.039 286.974 275.537 291.85 263.11 300.216C254.124 306.221 241.8 316.024 228.962 331.781C232.762 328.701 238.051 324.544 244.521 319.822C256.64 310.994 263.367 306.118 273.175 300.883C287.758 293.184 295.05 289.335 295.461 289.129C297.104 288.411 300.596 286.922 304.139 283.637C305.166 282.662 308.144 279.788 310.506 274.758C311.379 272.859 318.568 257.923 312.355 252.534C308.555 249.147 300.493 250.225 293.253 255.1Z" fill="#6C6D6D"/>
<path d="M268.04 113.699C274.15 112.467 283.445 111.286 294.639 112.416C304.344 113.391 322.162 115.136 336.078 128.532C339.775 132.125 346.348 138.592 348.71 149.011C351.637 161.945 346.451 173.031 344.346 176.932C335.822 192.74 322.471 192.689 316.411 207.47C315.846 208.856 314.203 213.065 310.301 217.068C306.039 221.38 300.082 224.356 298.952 223.176C298.439 222.611 298.695 221.02 301.982 216.196C301.16 216.709 297.771 218.865 293.715 217.941C288.117 216.709 284.369 210.447 285.447 206.187C285.704 205.109 286.423 203.467 295.05 198.334C299.004 195.973 301.006 194.793 304.652 193.099C314.049 188.737 331.097 173.852 328.633 159.943C327.195 151.936 319.595 145.931 313.382 143.365C301.006 138.335 292.944 146.547 283.29 142.492C277.642 140.08 271.069 133.356 268.04 113.699Z" fill="white" stroke="#191919" stroke-width="2" stroke-miterlimit="10"/>
<path opacity="0.29" d="M273.072 122.065C277.95 122.065 285.242 122.475 293.817 124.323C305.525 126.889 315.898 130.174 325.551 138.9C333.665 146.239 335.154 156.658 335.616 159.892C336.027 162.869 337.516 173.082 331.97 182.475C328.427 188.429 324.884 189.352 313.946 198.437C308.4 203.056 306.346 207.83 299.568 211.679C292.79 215.528 290.12 214.399 289.298 213.937C285.601 211.987 285.447 206.29 285.396 205.52C286.628 204.339 288.579 202.594 291.096 200.747C299.414 194.588 303.163 194.896 310.249 190.482C313.022 188.737 321.392 183.347 326.014 173.39C327.349 170.516 329.146 166.41 328.53 161.072C327.862 155.426 324.832 151.68 323.754 150.345C317.284 142.544 307.271 141.414 305.268 141.209C294.639 140.234 290.12 145.777 282.88 142.133C279.696 140.542 277.847 138.078 276.923 136.898C272.455 130.841 272.866 124.015 273.072 122.065Z" fill="#6C6D6D"/>
<path opacity="0.24" d="M279.491 138.951C279.748 135.974 291.507 134.434 299.569 134.383C307.631 134.331 316.72 134.28 324.011 140.747C328.222 144.443 329.865 148.6 330.173 149.421C334.795 161.329 326.579 172.98 325.603 174.263C326.681 172.62 330.173 166.872 328.787 159.686C327.4 152.244 321.752 148.189 318.979 146.239C317.336 145.059 311.841 141.26 304.139 141.004C295.358 140.747 291.507 145.366 284.523 142.852C284.215 142.698 279.337 140.901 279.491 138.951Z" fill="#6C6D6D"/>
<path d="M132.578 78.0274C130.781 75.0506 128.624 70.7392 127.032 65.2474C122.308 48.6179 126.622 31.8858 128.573 31.9371C129.343 31.9371 130.319 34.5548 131.295 45.4871C132.373 41.7403 132.938 38.6608 133.297 36.4538C133.657 34.1441 133.862 32.2451 135.197 30.2947C136.224 28.755 137.559 27.7798 138.535 27.2152C139.408 26.4453 140.281 25.6241 141.154 24.8542C142.078 25.6241 142.848 26.394 143.516 27.2152C150.499 35.7352 146.751 48.7719 145.724 52.0054C146.905 51.2355 148.394 50.0551 149.729 48.31C152.143 45.2305 152.245 42.7155 152.81 42.7668C153.889 42.8695 155.224 51.8514 152.04 60.8334C151.064 63.605 149.883 65.7606 148.959 67.2491C148.754 72.3816 148.651 90.2429 161.386 106.667C162.567 108.156 180.591 130.79 204.776 129.661C220.541 128.942 225.933 119.037 236.408 123.091C244.521 126.222 250.427 135.666 250.632 145.469C250.889 155.683 244.932 165.178 235.535 169.592C228.808 170.157 218.949 170.362 207.344 168.514C194.147 166.41 166.675 161.996 151.013 140.696C144.132 131.303 140.948 120.576 139.665 115.033C139.459 114.109 139.305 113.442 139.048 112.21C137.457 104.768 135.3 93.733 132.578 78.0274Z" fill="white" stroke="#191919" stroke-width="2" stroke-miterlimit="10"/>
<path d="M138.124 31.1673C139.1 31.1673 139.1 29.6275 138.124 29.6275C137.148 29.6275 137.148 31.1673 138.124 31.1673Z" fill="#161616"/>
<path d="M138.278 27.4205C136.788 33.2716 135.967 39.174 135.916 45.1791C135.916 45.8977 137.045 45.8977 137.097 45.1791C137.148 39.2767 137.918 33.4256 139.407 27.7284C139.561 27.0099 138.432 26.7019 138.278 27.4205Z" fill="#161616"/>
<path d="M142.797 27.4205C141.667 33.015 141 38.6608 140.948 44.3579C140.948 45.0765 142.078 45.0765 142.129 44.3579C142.232 38.7634 142.797 33.2203 143.927 27.7284C144.029 26.9586 142.951 26.6506 142.797 27.4205Z" fill="#161616"/>
<path opacity="0.24" d="M127.135 36.7617C128.162 36.8131 127.597 47.0782 129.857 60.1662C132.527 75.7178 138.175 86.7015 141.411 94.8109C147.162 109.285 158.356 137.36 183.928 149.832C210.014 162.612 238.103 152.655 246.832 149.165C247.089 150.756 247.448 154.913 245.343 159.43C243.392 163.638 240.362 165.999 238.976 166.872C236.562 167.847 232.968 169.079 228.449 169.746C221.414 170.773 215.868 169.797 211.092 168.874C194.917 165.691 186.804 164.152 179.255 160.764C171.399 157.274 161.334 152.757 152.913 142.749C144.697 133.048 142.181 123.091 137.765 105.435C134.992 94.4003 133.657 85.059 132.938 78.438C130.011 73.5621 126.262 65.812 125.235 55.8035C124.208 46.0516 126.16 36.7617 127.135 36.7617Z" fill="#6C6D6D"/>
<path opacity="0.4" d="M134.889 30.6027C135.505 30.0381 136.122 29.4735 136.789 28.9089C133.657 41.0218 131.962 47.0782 131.705 47.0268C131.449 46.9242 132.476 41.4837 134.889 30.6027Z" fill="#6C6D6D"/>
<path opacity="0.44" d="M182.028 162.047C188.498 163.792 197.69 165.486 208.73 164.87C226.497 163.895 239.848 157.479 246.935 153.373C246.729 155.016 246.01 159.43 242.467 163.484C238.411 168.155 233.327 169.284 231.735 169.541C226.805 169.695 221.465 169.592 215.765 169.13C202.466 168.001 191.066 165.127 182.028 162.047Z" fill="#6C6D6D"/>
<path d="M260.131 183.963C275.588 175.443 300.338 163.074 332.278 152.809C381.831 136.898 410.022 138.489 458.548 128.224C485.404 122.578 524.481 112.005 570.85 90.5509C570.953 96.094 571.21 101.791 571.672 107.745C572.647 120.833 574.445 132.894 576.601 143.827C571.98 151.731 567.307 159.686 562.686 167.59C564.072 181.243 565.407 194.896 566.794 208.548C539.013 209.164 510.565 210.191 481.501 211.833C409.919 215.836 342.035 222.663 278.155 231.491C272.147 215.682 266.139 199.823 260.131 183.963Z" fill="#DC4C1E"/>
<g opacity="0.28">
<g opacity="0.28">
<path opacity="0.28" d="M319.44 163.433C358.98 151.988 399.906 145.828 441.037 145.059C442.013 145.059 442.013 143.519 441.037 143.519C399.752 144.289 358.672 150.499 319.03 161.945C318.054 162.201 318.465 163.69 319.44 163.433Z" fill="#681225"/>
</g>
</g>
<g opacity="0.28">
<g opacity="0.28">
<path opacity="0.28" d="M427.276 153.681C463.478 144.545 502.709 153.168 537.524 137.822C538.449 137.411 537.627 136.077 536.754 136.487C502.093 151.782 462.861 143.108 426.865 152.193C425.889 152.449 426.3 153.938 427.276 153.681Z" fill="#681225"/>
</g>
</g>
<g opacity="0.28">
<g opacity="0.28">
<path opacity="0.28" d="M500.398 163.741C518.063 159.84 536.292 159.07 554.265 161.585C555.24 161.739 555.651 160.251 554.675 160.097C536.446 157.531 517.96 158.249 499.988 162.253C499.012 162.458 499.423 163.946 500.398 163.741Z" fill="#681225"/>
</g>
</g>
<path d="M233.224 122.27C235.74 123.861 239.951 126.941 243.186 132.227C247.756 139.669 251.299 153.014 244.059 162.201C240.156 167.129 234.559 169.13 230.708 169.9C233.378 178.42 235.894 187.761 237.897 197.821C242.673 221.431 243.7 242.731 243.135 260.438C254.021 262.337 268.861 263.774 286.371 262.081C302.084 260.541 315.127 256.948 324.884 253.509C322.419 210.037 312.2 177.753 303.882 157.274C301.52 151.474 283.701 108.309 268.091 110.363C263.572 110.927 261.159 115.033 250.58 118.78C243.546 121.244 237.332 122.013 233.224 122.27Z" fill="white" stroke="#191919" stroke-width="2" stroke-miterlimit="10"/>
<path opacity="0.36" d="M256.331 117.394C261.363 123.091 268.398 131.971 274.663 144.032C290.89 175.135 290.222 204.391 289.452 215.477C288.117 234.57 282.879 250.532 277.385 262.44C284.779 261.773 292.841 260.695 301.468 259.052C309.838 257.461 317.54 255.562 324.472 253.561C324.01 245.708 322.983 233.544 320.621 218.865C315.024 184.066 305.781 160.302 296.949 142.954C282.314 114.366 271.839 109.49 268.347 110.722C267.782 110.927 265.215 112.056 262.339 113.647C259.772 115.033 257.769 116.368 256.331 117.394Z" fill="#6C6D6D"/>
<path opacity="0.49" d="M290.941 133.613C293.047 150.191 295.358 163.741 297.103 173.082C303.265 206.187 308.246 219.327 303.368 237.598C300.698 247.658 296.076 255.254 292.636 260.079C296.744 259.822 301.417 259.309 306.449 258.283C313.587 256.846 319.697 254.741 324.627 252.637C323.6 220.661 317.079 182.988 297.668 145.623C295.512 141.466 293.252 137.462 290.941 133.613Z" fill="#6C6D6D"/>
<path d="M234.303 185.503C233.481 193.561 233.122 202.8 233.635 212.962C234.457 228.668 237.178 242.115 240.157 252.842C245.959 252.585 254.586 252.38 265.01 252.842C287.399 253.817 298.542 256.948 308.863 258.077C339.981 261.567 349.429 245.605 384.142 240.421C399.342 238.163 422.5 237.496 452.848 247.607C474.467 259.36 496.034 271.165 517.652 282.919C519.655 278.762 524.944 269.318 535.984 262.645C551.594 253.15 567.513 255.973 571.313 256.743C568.232 248.736 563.353 232.671 567.41 213.578C568.848 206.854 571.056 201.157 573.315 196.589C560.683 191.303 542.865 184.631 520.938 178.933C482.888 168.976 453.31 167.334 423.425 165.845C366.478 162.971 323.754 168.258 312.149 169.746C280.62 173.955 254.175 180.063 234.303 185.503Z" fill="#FF5722"/>
<path opacity="0.25" d="M385.272 208.394C385.272 208.548 428.252 214.451 471.181 220.969C488.075 223.535 505.431 226.307 525.509 236.623C538.5 243.296 548.154 250.84 554.573 256.486C556.832 255.819 560.119 255.1 564.124 255.357C566.589 255.511 568.694 255.922 570.389 256.435C568.746 251.764 567.102 245.965 566.075 239.138C565.1 232.723 564.946 227.025 565.1 222.303C421.576 210.96 385.272 208.24 385.272 208.394Z" fill="#681225"/>
<path opacity="0.28" d="M233.841 206.239C237.281 211.73 241.03 214.707 243.7 216.35C252.686 221.944 260.851 219.84 283.034 222.611C287.399 223.176 290.942 223.741 293.15 224.1C273.997 225.999 254.792 227.898 235.638 229.746C235.176 226.358 234.765 222.765 234.457 219.019C234.098 214.553 233.892 210.242 233.841 206.239Z" fill="#681225"/>
<g opacity="0.28">
<g opacity="0.28">
<path opacity="0.28" d="M301.366 224.818C316.617 225.999 331.971 224.716 346.811 220.969C347.786 220.712 347.376 219.224 346.4 219.481C331.663 223.176 316.514 224.459 301.366 223.279C300.39 223.176 300.39 224.716 301.366 224.818Z" fill="#681225"/>
</g>
</g>
<g opacity="0.28">
<g opacity="0.28">
<path opacity="0.28" d="M361.188 221.277C378.288 220.096 395.439 220.866 412.384 223.587C413.36 223.741 413.771 222.252 412.795 222.098C395.747 219.327 378.442 218.557 361.188 219.737C360.161 219.84 360.161 221.38 361.188 221.277Z" fill="#681225"/>
</g>
</g>
<g opacity="0.28">
<g opacity="0.28">
<path opacity="0.28" d="M343.884 199.823C376.748 194.126 410.536 195.152 442.989 202.851C443.965 203.056 444.376 201.619 443.4 201.363C410.69 193.612 376.594 192.637 343.473 198.334C342.497 198.488 342.908 199.977 343.884 199.823Z" fill="#681225"/>
</g>
</g>
<g opacity="0.28">
<g opacity="0.28">
<path opacity="0.28" d="M480.526 271.268C492.234 276.401 502.761 283.843 511.439 293.184C512.106 293.903 513.185 292.825 512.517 292.106C503.736 282.662 493.107 275.117 481.296 269.934C480.372 269.523 479.602 270.857 480.526 271.268Z" fill="#681225"/>
</g>
</g>
<path d="M255.973 73.2029C259.773 85.7263 261.159 92.9632 266.551 104.409C269.067 109.747 271.481 114.007 273.175 116.778C267.681 119.344 258.746 122.629 247.295 123.04C240.517 123.297 234.714 122.424 230.247 121.449C230.709 118.01 230.966 113.75 230.606 108.874C230.144 102.766 228.86 97.6338 227.576 93.8357C221.466 93.0658 215.355 92.2959 209.244 91.526C208.063 88.9084 206.831 86.2908 205.65 83.6219C203.955 83.5706 202.312 83.5193 200.618 83.468C201.901 79.8752 203.801 74.178 206.009 67.1464C210.117 53.9045 210.066 52.0054 212.274 49.0285C218.385 40.8678 232.198 35.6839 241.184 40.0466C246.627 42.6642 249.811 52.878 255.973 73.2029Z" fill="white" stroke="#161616" stroke-width="2" stroke-miterlimit="10"/>
<path d="M200.823 84.2891C203.955 84.3405 207.088 84.1352 210.169 83.6732C211.144 83.5193 210.734 82.0308 209.758 82.1848C206.78 82.6467 203.801 82.8007 200.823 82.7494C199.847 82.7494 199.847 84.2891 200.823 84.2891Z" fill="#161616"/>
<path d="M199.54 60.5254C201.389 59.5503 203.802 60.0122 205.086 61.7573C205.651 62.5271 206.986 61.7573 206.421 60.9874C204.675 58.5751 201.44 57.8052 198.77 59.191C197.897 59.6529 198.667 60.9874 199.54 60.5254Z" fill="#161616"/>
<path d="M201.645 68.019C201.491 67.4544 201.491 66.8898 201.645 66.3252C201.748 66.0686 201.85 65.7606 202.005 65.5553C202.107 65.4014 202.21 65.2987 202.313 65.1961C202.21 65.1961 202.159 65.2474 202.159 65.4014C202.159 66.4792 201.696 67.4031 200.875 68.1216C201.337 68.3269 201.748 68.4809 202.21 68.6862C202.21 67.711 202.415 66.7872 202.877 65.9146C203.34 65.0421 202.005 64.2722 201.542 65.1447C200.978 66.2739 200.669 67.4544 200.669 68.7375C200.669 69.4561 201.491 69.7127 202.005 69.3021C202.826 68.5835 203.442 67.6084 203.648 66.5305C203.802 65.6067 203.904 64.2209 202.877 63.8103C201.902 63.451 200.978 64.3235 200.567 65.0934C200.002 66.1713 199.899 67.3517 200.207 68.5322C200.361 69.4048 201.851 68.9942 201.645 68.019Z" fill="#161616"/>
<path d="M214.483 62.7324C216.845 62.0139 219.361 62.7838 220.799 64.8368C221.363 65.658 222.699 64.8881 222.134 64.0669C220.336 61.5006 217.101 60.3201 214.072 61.244C213.147 61.5006 213.558 62.9891 214.483 62.7324Z" fill="#161616"/>
<path d="M214.791 69.8154C214.739 69.0968 214.842 68.3782 215.253 67.7623C215.355 67.6084 215.458 67.4544 215.612 67.3004C215.561 67.0951 215.561 67.0951 215.561 67.3004C215.509 67.6084 215.509 67.9676 215.458 68.3269C215.407 68.6349 215.304 68.9942 215.15 69.3021C215.099 69.4561 215.047 69.5587 214.945 69.6614C215.099 70.0207 215.201 70.0207 215.304 69.6614C215.561 69.4048 215.715 68.8402 215.869 68.5322C216.074 68.1729 216.228 67.8137 216.434 67.4031C216.845 66.6332 215.869 65.8633 215.201 66.4792C214.791 66.8898 214.534 67.3004 214.38 67.865C214.123 68.8402 215.561 69.1995 215.869 68.2756C215.972 67.9676 216.074 67.8137 216.331 67.557C215.92 67.2491 215.509 66.9411 215.099 66.6332C214.636 67.5057 214.123 68.3782 213.764 69.3021C213.507 69.918 213.558 70.6366 214.174 70.9959C215.715 72.0224 216.742 69.8667 216.999 68.6862C217.255 67.557 217.307 65.0934 215.407 65.6067C213.866 66.0686 213.25 68.3782 213.353 69.764C213.301 70.7905 214.842 70.7906 214.791 69.8154Z" fill="#161616"/>
<path d="M210.117 52.3134C210.528 49.5931 211.606 45.1791 214.636 40.6112C215.714 39.0201 217.922 35.5813 221.568 33.2716C228.449 28.8576 239.027 29.2169 246.73 34.6061C254.227 39.8926 257.975 49.3878 256.384 58.7804C240.927 56.6247 225.522 54.469 210.117 52.3134Z" fill="#2196F3"/>
<path d="M184.905 52.0054C208.629 54.931 232.352 57.8565 256.076 60.7821C259.003 61.1414 259.003 56.5221 256.076 56.1628C232.352 53.2372 208.629 50.3117 184.905 47.3861C181.927 47.0268 181.978 51.6461 184.905 52.0054Z" fill="#161616"/>
<path d="M240.928 58.1645C236.717 59.6529 234.303 62.4758 231.479 65.8633C225.523 72.9462 227.268 75.5638 223.109 79.9778C216.434 87.0094 209.655 82.852 203.699 89.7296C198.667 95.5808 199.283 103.485 199.488 105.23C199.694 106.975 200.567 114.007 206.472 118.831C211.555 122.989 218.436 123.964 218.898 123.04C219.053 122.681 218.488 121.859 214.688 119.396C215.817 120.166 217.512 121.09 219.771 121.5C222.339 121.962 224.804 121.5 224.855 121.141C224.855 120.884 223.469 120.884 222.39 119.755C221.774 119.088 221.466 118.318 221.363 117.651C223.417 118.985 226.036 120.114 228.552 119.396C235.33 117.394 236.563 102.664 236.922 97.7878C238.206 81.9795 233.585 73.3568 239.182 67.8137C239.644 67.3517 241.955 65.0934 244.419 65.5553C247.603 66.1199 250.017 70.9445 248.938 74.1267C248.065 76.8469 244.882 77.6168 245.087 78.1301C245.395 78.7973 250.735 77.7708 255.203 74.2807C256.846 72.9975 258.181 71.971 258.849 70.072C260.081 66.7871 258.643 63.0404 256.743 60.8334C252.892 56.2141 245.498 56.522 240.928 58.1645Z" fill="#161616" stroke="#161616" stroke-width="2" stroke-miterlimit="10"/>
<path opacity="0.22" d="M247.243 78.5407C246.216 78.6434 244.779 78.6947 244.727 78.3354C244.676 78.1814 245.035 77.9248 245.035 77.9248C245.035 77.9248 243.803 79.4132 242.314 79.6186C241.595 79.7212 240.979 79.4646 240.568 79.2593C243.238 84.8024 245.96 91.4747 248.27 99.1222C250.838 107.54 252.276 115.238 253.097 121.808C255.87 121.808 259.721 121.5 264.086 120.166C267.681 119.037 270.556 117.548 272.662 116.265C266.91 107.488 264.035 100.457 262.443 95.6834C261.673 93.4251 260.081 88.1386 259.259 85.5723C257.77 80.8504 256.64 76.9496 255.819 74.2807C255.408 74.64 254.74 75.2046 253.919 75.7691C252.738 76.5903 250.376 78.1814 247.243 78.5407Z" fill="#6D6C6C"/>
<path d="M230.196 30.5C236.358 31.6805 240.979 36.5051 241.698 42.2022C242.52 48.9772 237.436 53.5965 236.974 54.0071C243.547 54.777 250.068 55.5982 256.641 56.3681C256.744 54.8796 256.795 52.8266 256.384 50.4656C255.152 42.8695 250.582 38.1988 249.606 37.2237C248.117 35.6839 242.674 30.7053 234.663 30.2434C232.815 30.1921 231.274 30.346 230.196 30.5Z" fill="#1976D2"/>
</svg>