<svg x="0" y="0" width="1920" height="960" viewBox="0 0 1920 960" xmlns="http://www.w3.org/2000/svg" xmlns:xlink="http://www.w3.org/1999/xlink" xmlns:fi="http://pattern.flaticon.com/"><rect x="0px" y="0px" width="100%" height="100%" opacity="1" fill="#f8f8f8"/><defs><g transform="matrix(0.16979165375232697 0.04549553617835045 -0.04549553617835045 0.16979165375232697 -31.819805145263672 -55.113521575927734)" id="L1_424"><path d="M213.333,238.933h51.2c4.71,0,8.533-3.823,8.533-8.533s-3.823-8.533-8.533-8.533h-51.2c-4.71,0-8.533,3.823-8.533,8.533     S208.623,238.933,213.333,238.933z" fill="#ffffff"/><path d="M469.333,68.267h-256c-4.71,0-8.533,3.823-8.533,8.533s3.823,8.533,8.533,8.533H460.8v384     c0,13.636-11.964,25.6-25.6,25.6H76.8c-13.636,0-25.6-11.964-25.6-25.6V77.508c5.487,3.703,11.554,5.879,17.067,6.955v384.87     c0,4.71,3.823,8.533,8.533,8.533s8.533-3.823,8.533-8.533V76.8c0-4.676-3.814-8.482-8.491-8.533     c-4.284-0.051-25.643-1.51-25.643-25.6v-8.533c0-9.412,7.654-17.067,17.067-17.067h401.067c4.71,0,8.533-3.823,8.533-8.533     S474.044,0,469.333,0H68.267C49.442,0,34.133,15.309,34.133,34.133v435.2C34.133,492.459,53.675,512,76.8,512h358.4     c23.125,0,42.667-19.541,42.667-42.667V76.8C477.867,72.09,474.044,68.267,469.333,68.267z" fill="#ffffff"/><path d="M460.8,42.667c0-4.71-3.823-8.533-8.533-8.533H179.2c-4.71,0-8.533,3.823-8.533,8.533v81.801L151.1,104.9     c-3.337-3.337-8.73-3.337-12.066,0l-19.567,19.567V42.667c0-4.71-3.823-8.533-8.533-8.533H76.8c-4.71,0-8.533,3.823-8.533,8.533     c0,4.71,3.823,8.533,8.533,8.533h25.6v93.867c0,3.448,2.082,6.562,5.265,7.885c3.191,1.314,6.852,0.589,9.301-1.852l28.1-28.1     l28.1,28.1c1.63,1.63,3.814,2.5,6.033,2.5c1.101,0,2.21-0.213,3.268-0.649c3.183-1.323,5.265-4.437,5.265-7.885V51.2h264.533     C456.977,51.2,460.8,47.377,460.8,42.667z" fill="#ffffff"/><path d="M153.6,179.2v136.533c0,4.71,3.823,8.533,8.533,8.533h187.733c4.71,0,8.533-3.823,8.533-8.533V179.2     c0-4.71-3.823-8.533-8.533-8.533H162.133C157.423,170.667,153.6,174.49,153.6,179.2z M170.667,187.733h170.667V307.2H170.667     V187.733z" fill="#ffffff"/><path d="M298.667,256h-85.333c-4.71,0-8.533,3.823-8.533,8.533c0,4.71,3.823,8.533,8.533,8.533h85.333     c4.71,0,8.533-3.823,8.533-8.533C307.2,259.823,303.377,256,298.667,256z" fill="#ffffff"/></g><g transform="matrix(0.0390625 0 0 0.0390625 77.5 340)" id="L1_425"><path d="M360.465,443.988c-4.574-1.161-9.207,1.638-10.342,6.204l-8.533,34.133c-1.152,4.582,1.638,9.207,6.212,10.351     c0.691,0.179,1.391,0.256,2.074,0.256c3.823,0,7.296-2.586,8.269-6.46l8.533-34.133     C367.821,449.765,365.039,445.132,360.465,443.988z" fill="#ffffff"/><path d="M256,273.066c1.109,0,2.219-0.213,3.26-0.648l93.867-38.844c4.352-1.801,6.417-6.793,4.617-11.145     c-1.801-4.361-6.81-6.409-11.153-4.625L256,255.299L17.067,156.432v-2.833c0-4.71-3.823-8.533-8.533-8.533S0,148.889,0,153.599     v8.533c0,3.456,2.082,6.571,5.274,7.885l247.467,102.4C253.781,272.852,254.891,273.066,256,273.066z" fill="#ffffff"/><path d="M357.513,360.49c-2.082-4.224-7.185-5.965-11.426-3.874c-16.205,8.013-43.273,17.331-81.553,18.603v-76.553     c0-4.71-3.823-8.533-8.533-8.533s-8.533,3.823-8.533,8.533v76.476c-105.958-3.379-140.151-67.567-145.067-78.251v-57.958     c0-4.71-3.823-8.533-8.533-8.533c-4.71,0-8.533,3.823-8.533,8.533v59.733c0,1.084,0.205,2.159,0.606,3.174     c1.485,3.695,37.803,90.692,170.061,90.692c46.225,0,78.618-11.213,97.647-20.617     C357.879,369.825,359.612,364.714,357.513,360.49z" fill="#ffffff"/><path d="M384,452.266c-4.719,0-8.533,3.823-8.533,8.533v25.6c0,4.71,3.814,8.533,8.533,8.533c4.719,0,8.533-3.823,8.533-8.533     v-25.6C392.533,456.089,388.719,452.266,384,452.266z" fill="#ffffff"/><path d="M503.467,145.066c-4.719,0-8.533,3.823-8.533,8.533v2.816l-102.4,42.146v-15.42l114.193-47.258     c3.191-1.314,5.274-4.429,5.274-7.885c0-3.456-2.082-6.562-5.265-7.885L259.26,17.714c-2.091-0.862-4.429-0.862-6.519,0     L5.274,120.114C2.082,121.437,0,124.543,0,127.999c0,3.456,2.082,6.571,5.274,7.885l247.467,102.4     c1.041,0.435,2.15,0.649,3.26,0.649s2.219-0.213,3.26-0.649l89.481-37.026c4.361-1.792,6.426-6.784,4.625-11.145     c-1.801-4.352-6.793-6.409-11.145-4.617L256,221.166L30.848,127.999L256,34.832l225.152,93.167l-97.971,40.542l-93.841-35.038     c0.495-1.775,0.794-3.601,0.794-5.504c0-14.353-14.993-25.6-34.133-25.6s-34.133,11.247-34.133,25.6     c0,14.353,14.993,25.6,34.133,25.6c8.542,0,16.162-2.33,22.084-6.084l97.382,36.361v27.341v0.009v182.878     c-9.907,3.541-17.067,12.919-17.067,24.03c0,14.114,11.486,25.6,25.6,25.6s25.6-11.486,25.6-25.6     c0-11.11-7.159-20.488-17.067-24.03v-48.435c24.499-18.492,33.28-43.119,33.664-44.211c0.307-0.896,0.469-1.843,0.469-2.79     v-59.733c0-4.71-3.814-8.533-8.533-8.533s-8.533,3.823-8.533,8.533v58.155c-1.476,3.618-6.605,14.771-17.067,25.779V217.019     l114.185-46.993c3.2-1.314,5.282-4.437,5.282-7.893v-8.533C512,148.889,508.186,145.066,503.467,145.066z M256,136.532     c-10.419,0-17.067-5.052-17.067-8.533c0-3.482,6.647-8.533,17.067-8.533s17.067,5.052,17.067,8.533     C273.067,131.481,266.419,136.532,256,136.532z M384,426.666c-4.71,0-8.533-3.831-8.533-8.533c0-4.702,3.823-8.533,8.533-8.533     s8.533,3.831,8.533,8.533C392.533,422.834,388.71,426.666,384,426.666z" fill="#ffffff"/><path d="M417.877,450.192c-1.143-4.565-5.786-7.356-10.342-6.204c-4.574,1.143-7.356,5.777-6.212,10.351l8.533,34.133     c0.973,3.874,4.446,6.46,8.269,6.46c0.683,0,1.382-0.077,2.074-0.256c4.574-1.143,7.356-5.769,6.212-10.351L417.877,450.192z" fill="#ffffff"/></g><g transform="matrix(0.078125 0 0 0.078125 155 330)" id="L1_426"><path d="M332.8,409.6c-2.304,0-4.446-0.896-6.05-2.526c-3.319-3.362-8.721-3.396-12.075-0.094     c-3.354,3.311-3.396,8.713-0.085,12.066c4.838,4.915,11.307,7.62,18.21,7.62c14.114,0,25.6-11.486,25.6-25.6v-34.133     c0-14.114-11.486-25.6-25.6-25.6c-14.114,0-25.6,11.486-25.6,25.6v8.533h-76.8c-4.71,0-8.533,3.823-8.533,8.533     s3.823,8.533,8.533,8.533h85.333c4.71,0,8.533-3.823,8.533-8.533v-17.067c0-4.702,3.831-8.533,8.533-8.533     c4.702,0,8.533,3.831,8.533,8.533v34.133C341.333,405.769,337.502,409.6,332.8,409.6z" fill="#ffffff"/><path d="M384,392.533h68.267c4.71,0,8.533-3.823,8.533-8.533s-3.823-8.533-8.533-8.533H384c-4.71,0-8.533,3.823-8.533,8.533     S379.29,392.533,384,392.533z" fill="#ffffff"/><path d="M196.267,307.2c-2.304,0-4.446-0.896-6.05-2.526c-3.311-3.362-8.721-3.396-12.075-0.094     c-3.354,3.311-3.396,8.713-0.085,12.066c4.838,4.915,11.307,7.62,18.21,7.62c14.114,0,25.6-11.486,25.6-25.6v-34.133     c0-14.114-11.486-25.6-25.6-25.6s-25.6,11.486-25.6,25.6v8.533h-8.533c-4.71,0-8.533,3.823-8.533,8.533s3.823,8.533,8.533,8.533     H179.2c4.71,0,8.533-3.823,8.533-8.533v-17.067c0-4.702,3.831-8.533,8.533-8.533c4.702,0,8.533,3.831,8.533,8.533v34.133     C204.8,303.369,200.969,307.2,196.267,307.2z" fill="#ffffff"/><path d="M418.133,85.333h34.133c4.71,0,8.533-3.823,8.533-8.533s-3.823-8.533-8.533-8.533h-34.133     c-4.71,0-8.533,3.823-8.533,8.533S413.423,85.333,418.133,85.333z" fill="#ffffff"/><path d="M486.4,443.733c4.71,0,8.533-3.823,8.533-8.533V8.533c0-4.71-3.823-8.533-8.533-8.533s-8.533,3.823-8.533,8.533V435.2     C477.867,439.91,481.69,443.733,486.4,443.733z" fill="#ffffff"/><path d="M452.267,273.067H435.2c-4.71,0-8.533,3.823-8.533,8.533s3.823,8.533,8.533,8.533h17.067c4.71,0,8.533-3.823,8.533-8.533     S456.977,273.067,452.267,273.067z" fill="#ffffff"/><path d="M384,307.2c-2.304,0-4.446-0.896-6.05-2.526c-3.311-3.362-8.721-3.396-12.075-0.094     c-3.354,3.311-3.396,8.713-0.085,12.066c4.838,4.915,11.307,7.62,18.21,7.62c14.114,0,25.6-11.486,25.6-25.6v-34.133     c0-14.114-11.486-25.6-25.6-25.6s-25.6,11.486-25.6,25.6v8.533H247.467c-4.71,0-8.533,3.823-8.533,8.533s3.823,8.533,8.533,8.533     h119.467c4.71,0,8.533-3.823,8.533-8.533v-17.067c0-4.702,3.831-8.533,8.533-8.533c4.702,0,8.533,3.831,8.533,8.533v34.133     C392.533,303.369,388.702,307.2,384,307.2z" fill="#ffffff"/><path d="M59.733,187.733h187.733c4.71,0,8.533-3.823,8.533-8.533v-17.067c0-4.702,3.831-8.533,8.533-8.533     c4.702,0,8.533,3.831,8.533,8.533v34.133c0,4.702-3.831,8.533-8.533,8.533c-2.295,0-4.446-0.896-6.05-2.526     c-3.311-3.362-8.721-3.396-12.075-0.094c-3.354,3.311-3.396,8.713-0.085,12.066c4.838,4.915,11.307,7.62,18.21,7.62     c14.114,0,25.6-11.486,25.6-25.6v-34.133c0-14.114-11.486-25.6-25.6-25.6s-25.6,11.486-25.6,25.6v8.533h-179.2     c-4.71,0-8.533,3.823-8.533,8.533S55.023,187.733,59.733,187.733z" fill="#ffffff"/><path d="M59.733,290.133h34.133c4.71,0,8.533-3.823,8.533-8.533v-17.067c0-4.702,3.831-8.533,8.533-8.533     c4.702,0,8.533,3.831,8.533,8.533v34.133c0,4.702-3.831,8.533-8.533,8.533c-2.295,0-4.446-0.896-6.05-2.526     c-3.319-3.362-8.721-3.396-12.075-0.094c-3.354,3.311-3.396,8.713-0.085,12.066c4.838,4.915,11.307,7.62,18.21,7.62     c14.114,0,25.6-11.486,25.6-25.6v-34.133c0-14.114-11.486-25.6-25.6-25.6s-25.6,11.486-25.6,25.6v8.533h-25.6     c-4.71,0-8.533,3.823-8.533,8.533S55.023,290.133,59.733,290.133z" fill="#ffffff"/><path d="M59.733,392.533h102.4c4.71,0,8.533-3.823,8.533-8.533v-17.067c0-4.702,3.831-8.533,8.533-8.533     c4.702,0,8.533,3.831,8.533,8.533v34.133c0,4.702-3.831,8.533-8.533,8.533c-2.304,0-4.446-0.896-6.05-2.526     c-3.311-3.362-8.721-3.396-12.075-0.094c-3.354,3.311-3.396,8.713-0.085,12.066c4.838,4.915,11.307,7.62,18.21,7.62     c14.114,0,25.6-11.486,25.6-25.6v-34.133c0-14.114-11.486-25.6-25.6-25.6s-25.6,11.486-25.6,25.6v8.533H59.733     c-4.71,0-8.533,3.823-8.533,8.533S55.023,392.533,59.733,392.533z" fill="#ffffff"/><path d="M486.4,460.8H59.733c-4.71,0-8.533,3.823-8.533,8.533s3.823,8.533,8.533,8.533H486.4c6.869,0,8.431,4.693,8.533,8.533     v8.533H17.067v-8.431c0.102-3.942,1.664-8.636,8.533-8.636c4.71,0,8.533-3.823,8.533-8.533V8.533C34.133,3.823,30.31,0,25.6,0     c-4.71,0-8.533,3.823-8.533,8.533V462.02C4.702,465.835,0,477.85,0,486.4v17.067C0,508.177,3.823,512,8.533,512h494.933     c4.71,0,8.533-3.823,8.533-8.533V486.4C512,476.109,505.182,460.8,486.4,460.8z" fill="#ffffff"/><path d="M59.733,85.333h136.533c4.71,0,8.533-3.823,8.533-8.533V59.733c0-4.702,3.831-8.533,8.533-8.533     c4.702,0,8.533,3.831,8.533,8.533v34.133c0,4.702-3.831,8.533-8.533,8.533c-2.304,0-4.446-0.896-6.05-2.526     c-3.311-3.362-8.721-3.396-12.075-0.094c-3.354,3.311-3.396,8.713-0.085,12.066c4.838,4.915,11.307,7.62,18.21,7.62     c14.114,0,25.6-11.486,25.6-25.6V59.733c0-14.114-11.486-25.6-25.6-25.6c-14.114,0-25.6,11.486-25.6,25.6v8.533h-128     c-4.71,0-8.533,3.823-8.533,8.533S55.023,85.333,59.733,85.333z" fill="#ffffff"/><path d="M264.533,85.333h85.333c4.71,0,8.533-3.823,8.533-8.533V59.733c0-4.702,3.831-8.533,8.533-8.533s8.533,3.831,8.533,8.533     v34.133c0,4.702-3.831,8.533-8.533,8.533c-2.295,0-4.446-0.896-6.05-2.526c-3.311-3.362-8.721-3.396-12.075-0.094     c-3.354,3.311-3.396,8.713-0.085,12.066c4.838,4.915,11.307,7.62,18.21,7.62c14.114,0,25.6-11.486,25.6-25.6V59.733     c0-14.114-11.486-25.6-25.6-25.6s-25.6,11.486-25.6,25.6v8.533h-76.8c-4.71,0-8.533,3.823-8.533,8.533     S259.823,85.333,264.533,85.333z" fill="#ffffff"/><path d="M452.267,170.667H315.733c-4.71,0-8.533,3.823-8.533,8.533s3.823,8.533,8.533,8.533h136.533     c4.71,0,8.533-3.823,8.533-8.533S456.977,170.667,452.267,170.667z" fill="#ffffff"/></g><g transform="matrix(0.0390625 0 0 0.0390625 252.5 340)" id="L1_427"><path d="M187.733,315.733c0,4.71,3.823,8.533,8.533,8.533H230.4c4.71,0,8.533-3.823,8.533-8.533v-51.2     c0-4.71-3.823-8.533-8.533-8.533h-34.133c-4.71,0-8.533,3.823-8.533,8.533V315.733z M204.8,273.067h17.067V307.2H204.8V273.067z" fill="#ffffff"/><path d="M196.267,221.867H230.4c4.71,0,8.533-3.823,8.533-8.533v-51.2c0-4.71-3.823-8.533-8.533-8.533h-34.133     c-4.71,0-8.533,3.823-8.533,8.533v51.2C187.733,218.044,191.556,221.867,196.267,221.867z M204.8,170.667h17.067V204.8H204.8     V170.667z" fill="#ffffff"/><path d="M132.395,160.913L256,86.75l123.605,74.163c1.374,0.828,2.893,1.22,4.386,1.22c2.901,0,5.726-1.476,7.322-4.139     c2.432-4.045,1.118-9.284-2.918-11.708L264.533,71.97V17.067H307.2v17.067h-25.6c-4.71,0-8.533,3.823-8.533,8.533     c0,4.71,3.823,8.533,8.533,8.533h34.133c4.71,0,8.533-3.823,8.533-8.533V8.533c0-4.71-3.823-8.533-8.533-8.533H256     c-4.71,0-8.533,3.823-8.533,8.533V71.97l-123.861,74.317c-4.036,2.423-5.35,7.663-2.918,11.708     C123.102,162.031,128.358,163.345,132.395,160.913z" fill="#ffffff"/><path d="M93.867,324.267c4.71,0,8.533-3.823,8.533-8.533v-51.2c0-4.71-3.823-8.533-8.533-8.533H59.733     c-4.71,0-8.533,3.823-8.533,8.533V281.6c0,4.71,3.823,8.533,8.533,8.533s8.533-3.823,8.533-8.533v-8.533h17.067v42.667     C85.333,320.444,89.156,324.267,93.867,324.267z" fill="#ffffff"/><path d="M153.6,435.2V187.733c0-4.71-3.823-8.533-8.533-8.533c-4.71,0-8.533,3.823-8.533,8.533V435.2     c0,4.71,3.823,8.533,8.533,8.533C149.777,443.733,153.6,439.91,153.6,435.2z" fill="#ffffff"/><path d="M110.933,477.867h290.133c4.71,0,8.533-3.823,8.533-8.533s-3.823-8.533-8.533-8.533h-76.8v-85.333h8.533     c4.71,0,8.533-3.823,8.533-8.533s-3.823-8.533-8.533-8.533H179.2c-4.71,0-8.533,3.823-8.533,8.533s3.823,8.533,8.533,8.533h8.533     V460.8h-76.8c-4.71,0-8.533,3.823-8.533,8.533S106.223,477.867,110.933,477.867z M264.533,426.667     c4.71,0,8.533-3.823,8.533-8.533s-3.823-8.533-8.533-8.533v-34.133H307.2V460.8h-42.667V426.667z M204.8,375.467h42.667V409.6     c-4.71,0-8.533,3.823-8.533,8.533s3.823,8.533,8.533,8.533V460.8H204.8V375.467z" fill="#ffffff"/><path d="M452.267,366.933h-34.133c-4.71,0-8.533,3.823-8.533,8.533v51.2c0,4.71,3.823,8.533,8.533,8.533h34.133     c4.71,0,8.533-3.823,8.533-8.533v-51.2C460.8,370.756,456.977,366.933,452.267,366.933z M443.733,418.133h-17.067V384h17.067     V418.133z" fill="#ffffff"/><path d="M452.267,264.533h-34.133c-4.71,0-8.533,3.823-8.533,8.533v51.2c0,4.71,3.823,8.533,8.533,8.533h34.133     c4.71,0,8.533-3.823,8.533-8.533v-51.2C460.8,268.356,456.977,264.533,452.267,264.533z M443.733,315.733h-17.067V281.6h17.067     V315.733z" fill="#ffffff"/><path d="M435.2,494.933H76.8c-4.71,0-8.533,3.823-8.533,8.533S72.09,512,76.8,512h358.4c4.71,0,8.533-3.823,8.533-8.533     S439.91,494.933,435.2,494.933z" fill="#ffffff"/><path d="M503.467,187.733c-4.71,0-8.533,3.823-8.533,8.533v8.533h-93.867c-4.71,0-8.533,3.823-8.533,8.533     c0,4.71,3.823,8.533,8.533,8.533h93.867v281.6c0,4.71,3.823,8.533,8.533,8.533s8.533-3.823,8.533-8.533v-307.2     C512,191.556,508.177,187.733,503.467,187.733z" fill="#ffffff"/><path d="M273.067,315.733c0,4.71,3.823,8.533,8.533,8.533h34.133c4.71,0,8.533-3.823,8.533-8.533v-51.2     c0-4.71-3.823-8.533-8.533-8.533H281.6c-4.71,0-8.533,3.823-8.533,8.533V315.733z M290.133,273.067H307.2V307.2h-17.067V273.067z     " fill="#ffffff"/><path d="M85.333,418.133c0-1.109-0.486-110.933-42.667-110.933C0.486,307.2,0,417.024,0,418.133     c0,20.608,14.686,37.837,34.133,41.805v43.529c0,4.71,3.823,8.533,8.533,8.533c4.71,0,8.533-3.823,8.533-8.533v-43.529     C70.647,455.97,85.333,438.741,85.333,418.133z M42.667,443.733c-14.114,0-25.6-11.486-25.6-25.6     c0-42.513,11.418-93.867,25.6-93.867c14.182,0,25.6,51.354,25.6,93.867C68.267,432.247,56.781,443.733,42.667,443.733z" fill="#ffffff"/><path d="M375.467,435.2v-256c0-4.71-3.823-8.533-8.533-8.533s-8.533,3.823-8.533,8.533v256c0,4.71,3.823,8.533,8.533,8.533     S375.467,439.91,375.467,435.2z" fill="#ffffff"/><path d="M281.6,221.867h34.133c4.71,0,8.533-3.823,8.533-8.533v-51.2c0-4.71-3.823-8.533-8.533-8.533H281.6     c-4.71,0-8.533,3.823-8.533,8.533v51.2C273.067,218.044,276.89,221.867,281.6,221.867z M290.133,170.667H307.2V204.8h-17.067     V170.667z" fill="#ffffff"/><path d="M8.533,298.667c4.71,0,8.533-3.823,8.533-8.533v-68.267h93.867c4.71,0,8.533-3.823,8.533-8.533     c0-4.71-3.823-8.533-8.533-8.533H17.067v-8.533c0-4.71-3.823-8.533-8.533-8.533S0,191.556,0,196.267v93.867     C0,294.844,3.823,298.667,8.533,298.667z" fill="#ffffff"/></g><g transform="matrix(0.078125 0 0 0.078125 67.5 67.5)" id="L1_428"><path d="M375.451,315.733c0-4.71-3.823-8.533-8.533-8.533h-51.2c-4.71,0-8.533,3.823-8.533,8.533s3.823,8.533,8.533,8.533h51.2     C371.628,324.267,375.451,320.444,375.451,315.733z" fill="#ffffff"/><path d="M341.317,93.867V51.2c0-4.71-3.823-8.533-8.533-8.533s-8.533,3.823-8.533,8.533v42.667     c0,23.526,19.14,42.667,42.667,42.667h76.8v162.133c0,4.71,3.823,8.533,8.533,8.533s8.533-3.823,8.533-8.533V128     c0-4.71-3.823-8.533-8.533-8.533h-85.333C352.803,119.467,341.317,107.981,341.317,93.867z" fill="#ffffff"/><path d="M366.917,204.8h-68.267c-4.71,0-8.533,3.823-8.533,8.533c0,4.71,3.823,8.533,8.533,8.533h68.267     c4.71,0,8.533-3.823,8.533-8.533C375.451,208.623,371.628,204.8,366.917,204.8z" fill="#ffffff"/><path d="M273.051,213.333c0-4.71-3.823-8.533-8.533-8.533h-51.2c-4.71,0-8.533,3.823-8.533,8.533c0,4.71,3.823,8.533,8.533,8.533     h51.2C269.228,221.867,273.051,218.044,273.051,213.333z" fill="#ffffff"/><path d="M213.317,256c-4.71,0-8.533,3.823-8.533,8.533c0,4.71,3.823,8.533,8.533,8.533h17.067c4.71,0,8.533-3.823,8.533-8.533     c0-4.71-3.823-8.533-8.533-8.533H213.317z" fill="#ffffff"/><path d="M213.317,170.667h85.333c4.71,0,8.533-3.823,8.533-8.533c0-4.71-3.823-8.533-8.533-8.533h-85.333     c-4.71,0-8.533,3.823-8.533,8.533C204.784,166.844,208.607,170.667,213.317,170.667z" fill="#ffffff"/><path d="M264.517,273.067h85.333c4.71,0,8.533-3.823,8.533-8.533c0-4.71-3.823-8.533-8.533-8.533h-85.333     c-4.71,0-8.533,3.823-8.533,8.533C255.984,269.244,259.807,273.067,264.517,273.067z" fill="#ffffff"/><path d="M315.717,358.4c-4.71,0-8.533,3.823-8.533,8.533s3.823,8.533,8.533,8.533h17.067c4.71,0,8.533-3.823,8.533-8.533     s-3.823-8.533-8.533-8.533H315.717z" fill="#ffffff"/><path d="M281.584,307.2h-68.267c-4.71,0-8.533,3.823-8.533,8.533s3.823,8.533,8.533,8.533h68.267c4.71,0,8.533-3.823,8.533-8.533     S286.294,307.2,281.584,307.2z" fill="#ffffff"/><path d="M281.584,358.4h-68.267c-4.71,0-8.533,3.823-8.533,8.533s3.823,8.533,8.533,8.533h68.267c4.71,0,8.533-3.823,8.533-8.533     S286.294,358.4,281.584,358.4z" fill="#ffffff"/><path d="M484.754,351.497l-17.067-17.067c-13.116-13.116-33.101-13.09-46.199,0L309.684,446.234     c-1.596,1.596-2.5,3.772-2.5,6.033v51.2c0,4.71,3.823,8.533,8.533,8.533h51.2c2.261,0,4.437-0.904,6.033-2.5l111.804-111.804     C498.348,384.102,498.348,365.099,484.754,351.497z M410.454,369.596l13.534,13.534l-74.138,74.138l-13.534-13.534     L410.454,369.596z M324.251,494.933v-39.134l39.134,39.134H324.251z M375.451,482.867l-13.534-13.534l74.138-74.138     l13.534,13.534L375.451,482.867z M472.688,385.63l-11.034,11.034l-39.134-39.134l11.034-11.034     c6.741-6.733,15.292-6.767,22.067,0l17.067,17.067C479.591,370.475,479.591,378.726,472.688,385.63z" fill="#ffffff"/><path d="M281.584,494.933H59.717c-14.114,0-25.6-11.486-25.6-25.6V42.667c0-14.114,11.486-25.6,25.6-25.6h269.534L412.084,99.9     c3.336,3.337,8.73,3.337,12.066,0c3.337-3.336,3.337-8.73,0-12.066L338.817,2.5c-1.596-1.604-3.772-2.5-6.033-2.5H59.717     C36.191,0,17.051,19.14,17.051,42.667v426.667c0,23.526,19.14,42.667,42.667,42.667h221.867c4.71,0,8.533-3.823,8.533-8.533     S286.294,494.933,281.584,494.933z" fill="#ffffff"/><path d="M281.584,409.6h-68.267c-4.71,0-8.533,3.823-8.533,8.533s3.823,8.533,8.533,8.533h68.267c4.71,0,8.533-3.823,8.533-8.533     S286.294,409.6,281.584,409.6z" fill="#ffffff"/><path d="M170.651,162.133c0-4.71-3.823-8.533-8.533-8.533h-51.2c-4.71,0-8.533,3.823-8.533,8.533v51.2     c0,4.71,3.823,8.533,8.533,8.533h51.2c4.71,0,8.533-3.823,8.533-8.533V162.133z M153.584,204.8h-34.133v-34.133h34.133V204.8z" fill="#ffffff"/><path d="M110.917,426.667h51.2c4.71,0,8.533-3.823,8.533-8.533v-51.2c0-4.71-3.823-8.533-8.533-8.533h-51.2     c-4.71,0-8.533,3.823-8.533,8.533v51.2C102.384,422.844,106.207,426.667,110.917,426.667z M119.451,375.467h34.133V409.6h-34.133     V375.467z" fill="#ffffff"/><path d="M121.951,321.766c1.604,1.604,3.78,2.5,6.033,2.5c0.282,0,0.555-0.008,0.845-0.043c2.543-0.247,4.838-1.63,6.255-3.755     l34.133-51.2c2.611-3.925,1.553-9.225-2.364-11.836c-3.934-2.62-9.216-1.553-11.836,2.364l-28.356,42.539l-9.711-9.702     c-3.336-3.337-8.73-3.337-12.066,0s-3.337,8.73,0,12.066L121.951,321.766z" fill="#ffffff"/></g><g transform="matrix(0.07812469452619553 0 0 0.07812469452619553 242.5 67.5)" id="L1_429"><path d="M193.734,443.487c-3.891-2.628-9.199-1.621-11.844,2.278c-6.374,9.412-16.947,15.027-28.288,15.027     c-18.825,0-34.133-15.309-34.133-34.133c0-11.341,5.615-21.914,15.027-28.28c3.9-2.654,4.924-7.953,2.278-11.861     c-2.637-3.891-7.945-4.907-11.844-2.278c-14.114,9.557-22.528,25.412-22.528,42.419c0,28.237,22.963,51.2,51.2,51.2     c17.007,0,32.87-8.422,42.419-22.528C198.658,451.431,197.634,446.124,193.734,443.487z" fill="#ffffff"/><path d="M341.336,17.059c-41.028,0-79.599,15.974-108.612,44.988l-84.471,84.471c-3.336,3.337-3.336,8.738,0,12.066     c3.337,3.337,8.738,3.337,12.066,0l84.471-84.471c25.788-25.788,60.083-39.987,96.546-39.987     c36.471,0,70.767,14.199,96.555,39.987c25.779,25.788,39.979,60.075,39.979,96.546c0,36.463-14.199,70.758-39.979,96.546     L329.269,375.818c-2.603,2.594-3.243,6.562-1.604,9.847c10.411,20.821,5.299,62.899-9.429,77.628l-28.1,28.1L20.602,221.859     l28.1-28.1c14.456-14.455,55.236-19.652,76.45-10.001l179.985,179.985c3.328,3.337,8.73,3.337,12.066,0     c3.328-3.336,3.328-8.738,0-12.066L136.186,170.659c-0.649-0.648-1.399-1.186-2.219-1.596     c-27.409-13.73-77.466-7.245-97.331,12.629L2.502,215.826c-3.336,3.337-3.336,8.73,0,12.066l281.6,281.6     c1.664,1.664,3.849,2.5,6.033,2.5s4.369-0.836,6.033-2.5l34.133-34.133c18.534-18.534,25.421-63.352,15.113-91.554     l104.533-104.533c29.013-29.013,44.988-67.584,44.988-108.612s-15.974-79.607-44.988-108.612     C420.943,33.034,382.372,17.059,341.336,17.059z" fill="#ffffff"/><path d="M502.001,9.994c-13.303-13.312-34.97-13.312-48.265,0l-11.264,11.264c-3.336,3.328-3.336,8.73,0,12.066     c3.328,3.328,8.73,3.328,12.066,0l11.264-11.264c6.647-6.647,17.485-6.647,24.132,0c3.226,3.226,5.001,7.509,5.001,12.075     c0,4.548-1.775,8.832-5.001,12.058L478.68,57.456c-3.337,3.337-3.337,8.738,0,12.075c1.664,1.664,3.849,2.492,6.033,2.492     c2.185,0,4.361-0.828,6.033-2.5l11.255-11.255c6.451-6.451,10.001-15.019,10.001-24.132     C512.002,25.012,508.452,16.436,502.001,9.994z" fill="#ffffff"/><path d="M301.963,93.979c1.195,0,2.415-0.256,3.584-0.794c22.332-10.351,48.742-10.428,71.142-0.213     c4.301,1.954,9.344,0.051,11.307-4.233c1.946-4.284,0.06-9.353-4.224-11.307c-26.931-12.262-58.59-12.177-85.41,0.265     c-4.275,1.988-6.135,7.066-4.147,11.341C295.657,92.144,298.737,93.979,301.963,93.979z" fill="#ffffff"/></g><g transform="matrix(0.1367184817790985 0 0 0.1367184817790985 315 140)" id="L1_430"><path d="M256.001,221.868c10.761,0,20.13-4.045,25.6-7.049c5.47,3.004,14.839,7.049,25.6,7.049     c15.889,0,33.647-9.028,41.233-20.864c0.751-1.135,18.5-28.262,18.5-73.003c0-32.939-26.795-59.733-59.733-59.733     c-9.651,0-18.449,3.541-25.6,7.305c-7.151-3.763-15.949-7.305-25.6-7.305c-32.939,0-59.733,26.795-59.733,59.733     c0,50.56,15.727,70.204,19.149,73.865C223.13,211.577,238.968,221.868,256.001,221.868z M256.001,85.335     c7.612,0,15.394,3.942,21.325,7.381c2.645,1.536,5.905,1.536,8.55,0c5.931-3.439,13.713-7.381,21.325-7.381     c23.526,0,42.667,19.14,42.667,42.667c0,39.27-15.488,63.317-15.718,63.659c-3.985,6.212-16.026,13.141-26.948,13.141     c-10.999,0-20.446-6.801-20.506-6.844c-1.51-1.126-3.302-1.69-5.094-1.69s-3.584,0.563-5.094,1.69     c-0.094,0.068-9.506,6.844-20.506,6.844c-10.871,0-22.221-7.091-27.383-13.756c-0.171-0.222-0.461-0.546-0.657-0.751     c-0.145-0.154-14.626-16.026-14.626-62.293C213.334,104.475,232.474,85.335,256.001,85.335z" fill="#ffffff"/><path d="M274.288,55.596c1.596,2.662,4.42,4.139,7.322,4.139c1.493,0,3.012-0.393,4.386-1.22     c4.036-2.423,5.35-7.663,2.918-11.708l-25.6-42.667c-2.424-4.036-7.663-5.35-11.708-2.918c-4.036,2.423-5.35,7.663-2.918,11.708     L274.288,55.596z" fill="#ffffff"/><path d="M300.929,54.367c0.597,0.196,6.042,1.946,13.244,1.946h0.009c10.206,0,19.081-3.482,25.643-10.052     c15.616-15.616,8.414-37.956,8.098-38.904c-0.853-2.543-2.85-4.54-5.393-5.393c-0.606-0.196-6.05-1.946-13.261-1.946     c-10.206,0-19.072,3.473-25.643,10.044c-15.616,15.625-8.405,37.956-8.098,38.904C296.38,51.517,298.377,53.514,300.929,54.367z      M315.691,22.128c3.345-3.345,7.91-5.043,13.577-5.043c1.203,0,2.338,0.077,3.345,0.196c0.521,4.599,0.282,11.776-4.855,16.913     c-3.345,3.345-7.919,5.052-13.577,5.052c-1.203,0-2.338-0.085-3.345-0.196C310.315,34.442,310.554,27.265,315.691,22.128z" fill="#ffffff"/><path d="M486.401,238.935h-409.6c-14.114,0-25.6,11.486-25.6,25.6v34.133c0,4.71,3.823,8.533,8.533,8.533     s8.533-3.823,8.533-8.533v-34.133c0-4.702,3.831-8.533,8.533-8.533h25.6v42.667c0,4.71,3.823,8.533,8.533,8.533     s8.533-3.823,8.533-8.533v-42.667h221.867v42.667c0,4.71,3.823,8.533,8.533,8.533s8.533-3.823,8.533-8.533v-42.667h85.333v42.667     c0,4.71,3.823,8.533,8.533,8.533c4.71,0,8.533-3.823,8.533-8.533v-42.667h25.6c4.702,0,8.533,3.831,8.533,8.533v59.733h-25.6     c-4.71,0-8.533,3.823-8.533,8.533v76.8h-8.533c-4.71,0-8.533,3.823-8.533,8.533c0,4.71,3.823,8.533,8.533,8.533h25.6v59.733     c0,4.702-3.831,8.533-8.533,8.533H204.801v-42.667c0-4.71-3.823-8.533-8.533-8.533s-8.533,3.823-8.533,8.533v42.667h-17.067     v-42.667c0-4.71-3.823-8.533-8.533-8.533c-4.71,0-8.533,3.823-8.533,8.533v42.667h-17.067v-42.667     c0-4.71-3.823-8.533-8.533-8.533s-8.533,3.823-8.533,8.533v42.667h-76.8c-4.702,0-8.533-3.831-8.533-8.533v-34.133     c0-4.71-3.823-8.533-8.533-8.533c-4.71,0-8.533,3.823-8.533,8.533v34.133c0,14.114,11.486,25.6,25.6,25.6h426.667     c14.114,0,25.6-11.486,25.6-25.6v-59.733c0-11.085-8.789-17.067-17.067-17.067v-68.267h17.067     c8.277,0,17.067-5.982,17.067-17.067v-59.733C512.001,250.421,500.515,238.935,486.401,238.935z" fill="#ffffff"/><path d="M332.801,426.668c4.71,0,8.533-3.823,8.533-8.533c0-4.71-3.823-8.533-8.533-8.533h-93.867v-68.267h119.467v128     c0,3.149,1.732,6.042,4.506,7.526c2.765,1.476,6.144,1.314,8.764-0.427l20.864-13.909l20.864,13.909     c1.434,0.956,3.081,1.434,4.736,1.434c1.382,0,2.765-0.333,4.028-1.007c2.773-1.485,4.506-4.378,4.506-7.526v-128h8.533     c4.71,0,8.533-3.823,8.533-8.533s-3.823-8.533-8.533-8.533h-409.6c-14.353,0-25.6,11.247-25.6,25.6v51.2     c0,14.114,11.486,25.6,25.6,25.6H332.801z M375.467,341.335h34.133v112.051l-12.331-8.218c-2.867-1.911-6.605-1.911-9.472,0     l-12.331,8.218V341.335z M102.401,341.335h119.467v68.267H102.401V341.335z M17.067,401.068v-51.2     c0-4.864,3.669-8.533,8.533-8.533h59.733v68.267H25.601C20.814,409.602,17.067,405.855,17.067,401.068z" fill="#ffffff"/><path d="M179.201,358.401c-4.71,0-8.533,3.823-8.533,8.533v17.067c0,4.71,3.823,8.533,8.533,8.533s8.533-3.823,8.533-8.533     v-17.067C187.734,362.224,183.911,358.401,179.201,358.401z" fill="#ffffff"/><path d="M145.067,358.401c-4.71,0-8.533,3.823-8.533,8.533v17.067c0,4.71,3.823,8.533,8.533,8.533     c4.71,0,8.533-3.823,8.533-8.533v-17.067C153.601,362.224,149.778,358.401,145.067,358.401z" fill="#ffffff"/></g><g transform="matrix(0.13211306929588318 -0.03539958968758583 0.03539958968758583 0.13211306929588318 132.1479949951172 150.24940490722656)" id="L1_431"><path d="M307.098,179.004c0,4.71,3.814,8.533,8.533,8.533h85.333c4.719,0,8.533-3.823,8.533-8.533s-3.814-8.533-8.533-8.533     h-85.333C310.912,170.47,307.098,174.293,307.098,179.004z" fill="#ffffff"/><path d="M358.298,230.204c0,4.71,3.814,8.533,8.533,8.533h51.2c4.719,0,8.533-3.823,8.533-8.533s-3.814-8.533-8.533-8.533h-51.2     C362.112,221.67,358.298,225.493,358.298,230.204z" fill="#ffffff"/><path d="M349.764,136.337c4.719,0,8.533-3.823,8.533-8.533c0-4.71-3.814-8.533-8.533-8.533h-17.067     c-4.719,0-8.533,3.823-8.533,8.533c0,4.71,3.814,8.533,8.533,8.533H349.764z" fill="#ffffff"/><path d="M247.364,221.67c-4.719,0-8.533,3.823-8.533,8.533s3.814,8.533,8.533,8.533h85.333c4.719,0,8.533-3.823,8.533-8.533     s-3.814-8.533-8.533-8.533H247.364z" fill="#ffffff"/><path d="M290.031,460.604H127.898c-14.114,0-25.6-11.486-25.6-25.6V42.47c0-4.71-3.814-8.533-8.533-8.533     c-23.526,0-42.667,19.14-42.667,42.667c0,4.71,3.814,8.533,8.533,8.533s8.533-3.823,8.533-8.533     c0-11.128,7.134-20.617,17.067-24.141v382.541c0,23.526,19.14,42.667,42.667,42.667h162.133c4.719,0,8.533-3.823,8.533-8.533     S294.75,460.604,290.031,460.604z" fill="#ffffff"/><path d="M162.031,187.537h119.467c4.719,0,8.533-3.823,8.533-8.533s-3.814-8.533-8.533-8.533H162.031     c-4.719,0-8.533,3.823-8.533,8.533S157.312,187.537,162.031,187.537z" fill="#ffffff"/><path d="M162.031,136.337h34.133c4.719,0,8.533-3.823,8.533-8.533c0-4.71-3.814-8.533-8.533-8.533h-34.133     c-4.719,0-8.533,3.823-8.533,8.533C153.498,132.514,157.312,136.337,162.031,136.337z" fill="#ffffff"/><path d="M298.564,119.27h-68.267c-4.719,0-8.533,3.823-8.533,8.533c0,4.71,3.814,8.533,8.533,8.533h68.267     c4.719,0,8.533-3.823,8.533-8.533C307.098,123.093,303.283,119.27,298.564,119.27z" fill="#ffffff"/><path d="M418.031,0H93.764c-42.249,0-76.638,34.295-76.8,76.501v0.102v0.094V76.8v0.102     c0.111,27.213,14.797,52.565,38.391,66.219c4.079,2.355,9.293,0.964,11.656-3.106c2.372-4.079,0.964-9.301-3.106-11.657     C45.508,117.7,34.065,97.92,34.031,76.698c0.06-32.888,26.829-59.631,59.733-59.631h324.267c32.93,0,59.733,26.795,59.733,59.733     v358.4c0,4.326-1.212,8.67-3.49,12.544c-2.381,4.062-1.033,9.293,3.029,11.682c1.365,0.802,2.85,1.178,4.318,1.178     c2.927,0,5.777-1.502,7.364-4.207c3.823-6.494,5.845-13.824,5.845-21.197V76.8C494.831,34.449,460.382,0,418.031,0z" fill="#ffffff"/><path d="M443.631,392.337c0-28.237-22.963-51.2-51.2-51.2c-28.237,0-51.2,22.963-51.2,51.2c0,28.237,22.963,51.2,51.2,51.2     C420.668,443.537,443.631,420.574,443.631,392.337z M392.431,426.47c-18.825,0-34.133-15.309-34.133-34.133     s15.309-34.133,34.133-34.133c18.825,0,34.133,15.309,34.133,34.133S411.256,426.47,392.431,426.47z" fill="#ffffff"/><path d="M377.028,452.079c-4.07-2.355-9.293-0.956-11.657,3.123l-18.372,31.838l-2.918-4.403     c-1.476-2.244-3.925-3.661-6.605-3.814l-5.274-0.316l18.68-32.341c2.355-4.079,0.956-9.301-3.123-11.657     c-4.079-2.364-9.301-0.964-11.665,3.123l-25.574,44.297c-1.476,2.56-1.519,5.709-0.12,8.311s4.045,4.301,7.006,4.471     l14.788,0.887l8.166,12.365c1.579,2.398,4.258,3.831,7.117,3.831h0.265c2.944-0.094,5.649-1.707,7.134-4.267l25.284-43.793     C382.515,459.657,381.116,454.434,377.028,452.079z" fill="#ffffff"/><path d="M448.99,438.033c-2.364-4.087-7.595-5.487-11.657-3.123c-4.087,2.355-5.487,7.578-3.132,11.656l18.458,31.94     l-5.274,0.316c-2.679,0.162-5.128,1.579-6.613,3.814l-2.901,4.403l-18.278-31.676c-2.372-4.079-7.595-5.478-11.665-3.123     c-4.079,2.355-5.478,7.578-3.123,11.657l25.19,43.631c1.485,2.56,4.19,4.173,7.134,4.267h0.265c2.85,0,5.538-1.434,7.125-3.831     l8.158-12.356l14.78-0.896c2.961-0.171,5.606-1.869,7.006-4.471s1.348-5.751-0.119-8.311L448.99,438.033z" fill="#ffffff"/><path d="M162.031,238.737h51.2c4.719,0,8.533-3.823,8.533-8.533s-3.814-8.533-8.533-8.533h-51.2     c-4.719,0-8.533,3.823-8.533,8.533S157.312,238.737,162.031,238.737z" fill="#ffffff"/><path d="M162.031,289.937h102.4c4.719,0,8.533-3.823,8.533-8.533s-3.814-8.533-8.533-8.533h-102.4     c-4.719,0-8.533,3.823-8.533,8.533S157.312,289.937,162.031,289.937z" fill="#ffffff"/><path d="M162.935,396.151c2.099,4.215,7.228,5.922,11.443,3.823c4.215-2.108,5.931-7.236,3.814-11.452     c-8.448-16.896-10.342-32.051-5.086-40.559c2.799-4.531,7.68-6.827,14.524-6.827c4.07,0,5.589,1.399,6.545,2.765     c6.357,9.165,0.316,37.077-6.007,53.973c-1.408,3.763,0,7.996,3.379,10.172c3.362,2.159,7.808,1.69,10.65-1.143     c3.644-3.635,7.595-7.262,11.034-10.206v4.173c0,3.447,2.074,6.562,5.265,7.876c3.191,1.331,6.852,0.597,9.301-1.843     c3.9-3.891,8.422-7.706,12.228-10.453c-0.102,0.213-0.205,0.418-0.307,0.614c-1.306,2.645-1.161,5.786,0.393,8.294     c1.562,2.509,4.301,4.045,7.253,4.045h34.133c4.719,0,8.533-3.823,8.533-8.533s-3.814-8.533-8.533-8.533h-22.212     c0.691-4.062,0.521-8.192-1.536-11.52c-2.176-3.524-5.965-5.547-10.385-5.547c-5.274,0-11.477,3.208-17.143,7.185     c-0.435-3.721-2.637-6.784-5.982-8.166c-2.278-0.939-5.214-2.167-12.339,2.108c2.807-14.703,3.627-31.65-3.695-42.214     c-3.2-4.617-9.361-10.112-20.574-10.112c-12.783,0-23.1,5.299-29.047,14.925C150.076,352.768,151.654,373.598,162.935,396.151z" fill="#ffffff"/><path d="M392.431,281.404c0-4.71-3.814-8.533-8.533-8.533h-85.333c-4.719,0-8.533,3.823-8.533,8.533s3.814,8.533,8.533,8.533     h85.333C388.617,289.937,392.431,286.114,392.431,281.404z" fill="#ffffff"/></g><g transform="matrix(0.09765625 0 0 0.09765625 62.5 237.5)" id="L1_432"><path d="M287.633,463.3c-3.337-3.337-8.73-3.337-12.066,0c-3.337,3.336-3.337,8.73,0,12.066L309.7,509.5     c1.664,1.664,3.849,2.5,6.033,2.5c2.185,0,4.369-0.836,6.033-2.5c3.337-3.336,3.337-8.73,0-12.066L287.633,463.3z" fill="#ffffff"/><path d="M256,409.6c-4.719,0-8.533,3.823-8.533,8.533v22.067l-57.233,57.233c-3.336,3.337-3.336,8.73,0,12.066     c1.664,1.664,3.849,2.5,6.033,2.5c2.185,0,4.369-0.836,6.033-2.5l59.733-59.733c1.596-1.604,2.5-3.772,2.5-6.033v-25.6     C264.533,413.423,260.719,409.6,256,409.6z" fill="#ffffff"/><path d="M503.467,17.067H264.533V8.533C264.533,3.823,260.719,0,256,0s-8.533,3.823-8.533,8.533v8.533H8.533     C3.814,17.067,0,20.89,0,25.6v34.133c0,4.71,3.814,8.533,8.533,8.533h443.733c4.719,0,8.533-3.823,8.533-8.533     s-3.814-8.533-8.533-8.533h-435.2V34.133h477.867V51.2H486.4c-4.719,0-8.533,3.823-8.533,8.533v290.133     c0,14.114-11.486,25.6-25.6,25.6H59.733c-14.114,0-25.6-11.486-25.6-25.6v-256c0-4.71-3.814-8.533-8.533-8.533     s-8.533,3.823-8.533,8.533v256c0,23.526,19.14,42.667,42.667,42.667h392.533c23.526,0,42.667-19.14,42.667-42.667v-281.6h8.533     c4.719,0,8.533-3.823,8.533-8.533V25.6C512,20.89,508.186,17.067,503.467,17.067z" fill="#ffffff"/><path d="M384,170.667c24.073,0,25.549,21.342,25.6,25.643c0.026,4.693,3.831,8.491,8.533,8.491c4.719,0,8.533-3.823,8.533-8.533     c0-14.763-8.917-42.667-42.667-42.667c-33.749,0-42.667,27.904-42.667,42.667V230.4c0,14.754,8.917,42.667,42.667,42.667     c33.749,0,42.667-27.912,42.667-42.667c0-4.693-3.789-8.482-8.482-8.508h-0.051c-4.676,0-8.482,3.78-8.533,8.465     C409.549,234.641,408.09,256,384,256c-24.09,0-25.549-21.359-25.6-25.6v-34.091C358.451,192.026,359.91,170.667,384,170.667z" fill="#ffffff"/><path d="M171.324,250.752c1.365,3.277,4.531,5.248,7.876,5.248c1.101,0,2.21-0.205,3.285-0.657     c4.343-1.818,6.409-6.81,4.591-11.162l-42.667-102.4c-1.323-3.174-4.437-5.248-7.876-5.248c-3.439,0-6.554,2.074-7.876,5.248     l-42.667,102.4c-1.818,4.352,0.239,9.344,4.591,11.162c4.361,1.826,9.344-0.239,11.162-4.591l4.924-11.819H128     c4.719,0,8.533-3.823,8.533-8.533s-3.814-8.533-8.533-8.533h-14.225l22.758-54.613L171.324,250.752z" fill="#ffffff"/><path d="M230.4,187.733c-4.719,0-8.533,3.823-8.533,8.533v102.4c0,4.71,3.814,8.533,8.533,8.533h34.133     c14.754,0,42.667-7.134,42.667-34.133c0-10.829-4.489-18.466-10.82-23.723c7.177-6.144,10.82-15.377,10.82-27.477     c0-12.646-3.985-22.178-11.827-28.297c-13.039-10.18-30.916-6.076-32.905-5.581c-4.574,1.143-7.356,5.769-6.212,10.351     c1.143,4.565,5.768,7.339,10.342,6.204c0.12-0.034,11.733-2.628,18.27,2.475c3.49,2.731,5.265,7.723,5.265,14.848     c0,7.1-1.758,12.083-5.222,14.814c-2.85,2.253-6.81,3.046-10.411,3.183c-3.627-0.648-7.049-0.93-9.967-0.93     c-4.309,0-7.945,3.208-8.465,7.492c-0.538,4.275,2.219,8.277,6.4,9.318c0.896,0.23,5.035,1.178,10.496,1.229     c7.475,1.553,17.169,5.598,17.169,16.094c0,16.708-24.585,17.058-25.6,17.067h-25.6v-93.867     C238.933,191.556,235.119,187.733,230.4,187.733z" fill="#ffffff"/></g><g transform="matrix(0.17578125 0 0 0.17578125 217.5 217.5)" id="L1_433"><path d="M281.6,119.467c-4.71,0-8.533,3.823-8.533,8.533v51.2c0,4.71,3.823,8.533,8.533,8.533h34.133     c4.71,0,8.533-3.823,8.533-8.533V128c0-4.71-3.823-8.533-8.533-8.533H281.6z M307.2,170.667h-17.067v-34.133H307.2V170.667z" fill="#ffffff"/><path d="M59.733,221.867c4.71,0,8.533-3.823,8.533-8.533v-128h375.467v128c0,4.71,3.823,8.533,8.533,8.533     c4.71,0,8.533-3.823,8.533-8.533V76.8c0-4.71-3.823-8.533-8.533-8.533H256v-51.2h42.667v17.067h-25.6     c-4.71,0-8.533,3.823-8.533,8.533c0,4.71,3.823,8.533,8.533,8.533H307.2c4.71,0,8.533-3.823,8.533-8.533V8.533     c0-4.71-3.823-8.533-8.533-8.533h-59.733c-4.71,0-8.533,3.823-8.533,8.533v59.733h-179.2c-4.71,0-8.533,3.823-8.533,8.533     v136.533C51.2,218.044,55.023,221.867,59.733,221.867z" fill="#ffffff"/><path d="M366.933,119.467c-4.71,0-8.533,3.823-8.533,8.533v51.2c0,4.71,3.823,8.533,8.533,8.533h34.133     c4.71,0,8.533-3.823,8.533-8.533V128c0-4.71-3.823-8.533-8.533-8.533H366.933z M392.533,170.667h-17.067v-34.133h17.067V170.667z     " fill="#ffffff"/><path d="M503.467,494.933H8.533c-4.71,0-8.533,3.823-8.533,8.533S3.823,512,8.533,512h494.933c4.71,0,8.533-3.823,8.533-8.533     S508.177,494.933,503.467,494.933z" fill="#ffffff"/><path d="M315.733,443.733c4.71,0,8.533-3.823,8.533-8.533V315.733c0-2.261-0.896-4.437-2.5-6.033     c-0.802-0.802-20.096-19.567-65.766-19.567s-64.964,18.765-65.766,19.567c-1.604,1.596-2.5,3.772-2.5,6.033V435.2     c0,4.71,3.823,8.533,8.533,8.533s8.533-3.823,8.533-8.533V319.863c5.222-3.584,18.748-10.88,42.667-12.348v85.018     c-4.71,0-8.533,3.823-8.533,8.533s3.823,8.533,8.533,8.533v25.6c0,4.71,3.823,8.533,8.533,8.533s8.533-3.823,8.533-8.533v-25.6     c4.71,0,8.533-3.823,8.533-8.533s-3.823-8.533-8.533-8.533v-85.018c23.97,1.476,37.495,8.789,42.667,12.339V435.2     C307.2,439.91,311.023,443.733,315.733,443.733z" fill="#ffffff"/><path d="M153.6,469.333c0,4.71,3.823,8.533,8.533,8.533h187.733c4.71,0,8.533-3.823,8.533-8.533s-3.823-8.533-8.533-8.533     H162.133C157.423,460.8,153.6,464.623,153.6,469.333z" fill="#ffffff"/><path d="M42.667,460.8c-4.71,0-8.533,3.823-8.533,8.533s3.823,8.533,8.533,8.533H128c4.71,0,8.533-3.823,8.533-8.533     S132.71,460.8,128,460.8h-8.533V256h273.067v204.8H384c-4.71,0-8.533,3.823-8.533,8.533s3.823,8.533,8.533,8.533h85.333     c4.71,0,8.533-3.823,8.533-8.533s-3.823-8.533-8.533-8.533H460.8V256h8.533c4.71,0,8.533-3.823,8.533-8.533     s-3.823-8.533-8.533-8.533H42.667c-4.71,0-8.533,3.823-8.533,8.533S37.956,256,42.667,256H51.2v204.8H42.667z M409.6,256h34.133     v204.8H409.6V256z M68.267,256H102.4v204.8H68.267V256z" fill="#ffffff"/><path d="M110.933,119.467c-4.71,0-8.533,3.823-8.533,8.533v51.2c0,4.71,3.823,8.533,8.533,8.533h34.133     c4.71,0,8.533-3.823,8.533-8.533V128c0-4.71-3.823-8.533-8.533-8.533H110.933z M136.533,170.667h-17.067v-34.133h17.067V170.667z     " fill="#ffffff"/><path d="M196.267,119.467c-4.71,0-8.533,3.823-8.533,8.533v51.2c0,4.71,3.823,8.533,8.533,8.533H230.4     c4.71,0,8.533-3.823,8.533-8.533V128c0-4.71-3.823-8.533-8.533-8.533H196.267z M221.867,170.667H204.8v-34.133h17.067V170.667z" fill="#ffffff"/></g></defs><g fi:class="KUsePattern"><pattern id="pattern_L1_424" width="350" height="350" patternUnits="userSpaceOnUse"><use xlink:href="#L1_424" x="-350" y="-350"/><use xlink:href="#L1_424" x="0" y="-350"/><use xlink:href="#L1_424" x="350" y="-350"/><use xlink:href="#L1_424" x="-350" y="0"/><use xlink:href="#L1_424" x="0" y="0"/><use xlink:href="#L1_424" x="350" y="0"/><use xlink:href="#L1_424" x="-350" y="350"/><use xlink:href="#L1_424" x="0" y="350"/><use xlink:href="#L1_424" x="350" y="350"/></pattern><rect x="0" y="0" width="100%" height="100%" fill="url(#pattern_L1_424)"/></g><g fi:class="KUsePattern"><pattern id="pattern_L1_425" width="350" height="350" patternUnits="userSpaceOnUse"><use xlink:href="#L1_425" x="-350" y="-350"/><use xlink:href="#L1_425" x="0" y="-350"/><use xlink:href="#L1_425" x="350" y="-350"/><use xlink:href="#L1_425" x="-350" y="0"/><use xlink:href="#L1_425" x="0" y="0"/><use xlink:href="#L1_425" x="350" y="0"/><use xlink:href="#L1_425" x="-350" y="350"/><use xlink:href="#L1_425" x="0" y="350"/><use xlink:href="#L1_425" x="350" y="350"/></pattern><rect x="0" y="0" width="100%" height="100%" fill="url(#pattern_L1_425)"/></g><g fi:class="KUsePattern"><pattern id="pattern_L1_426" width="350" height="350" patternUnits="userSpaceOnUse"><use xlink:href="#L1_426" x="-350" y="-350"/><use xlink:href="#L1_426" x="0" y="-350"/><use xlink:href="#L1_426" x="350" y="-350"/><use xlink:href="#L1_426" x="-350" y="0"/><use xlink:href="#L1_426" x="0" y="0"/><use xlink:href="#L1_426" x="350" y="0"/><use xlink:href="#L1_426" x="-350" y="350"/><use xlink:href="#L1_426" x="0" y="350"/><use xlink:href="#L1_426" x="350" y="350"/></pattern><rect x="0" y="0" width="100%" height="100%" fill="url(#pattern_L1_426)"/></g><g fi:class="KUsePattern"><pattern id="pattern_L1_427" width="350" height="350" patternUnits="userSpaceOnUse"><use xlink:href="#L1_427" x="-350" y="-350"/><use xlink:href="#L1_427" x="0" y="-350"/><use xlink:href="#L1_427" x="350" y="-350"/><use xlink:href="#L1_427" x="-350" y="0"/><use xlink:href="#L1_427" x="0" y="0"/><use xlink:href="#L1_427" x="350" y="0"/><use xlink:href="#L1_427" x="-350" y="350"/><use xlink:href="#L1_427" x="0" y="350"/><use xlink:href="#L1_427" x="350" y="350"/></pattern><rect x="0" y="0" width="100%" height="100%" fill="url(#pattern_L1_427)"/></g><g fi:class="KUsePattern"><pattern id="pattern_L1_428" width="350" height="350" patternUnits="userSpaceOnUse"><use xlink:href="#L1_428" x="-350" y="-350"/><use xlink:href="#L1_428" x="0" y="-350"/><use xlink:href="#L1_428" x="350" y="-350"/><use xlink:href="#L1_428" x="-350" y="0"/><use xlink:href="#L1_428" x="0" y="0"/><use xlink:href="#L1_428" x="350" y="0"/><use xlink:href="#L1_428" x="-350" y="350"/><use xlink:href="#L1_428" x="0" y="350"/><use xlink:href="#L1_428" x="350" y="350"/></pattern><rect x="0" y="0" width="100%" height="100%" fill="url(#pattern_L1_428)"/></g><g fi:class="KUsePattern"><pattern id="pattern_L1_429" width="350" height="350" patternUnits="userSpaceOnUse"><use xlink:href="#L1_429" x="-350" y="-350"/><use xlink:href="#L1_429" x="0" y="-350"/><use xlink:href="#L1_429" x="350" y="-350"/><use xlink:href="#L1_429" x="-350" y="0"/><use xlink:href="#L1_429" x="0" y="0"/><use xlink:href="#L1_429" x="350" y="0"/><use xlink:href="#L1_429" x="-350" y="350"/><use xlink:href="#L1_429" x="0" y="350"/><use xlink:href="#L1_429" x="350" y="350"/></pattern><rect x="0" y="0" width="100%" height="100%" fill="url(#pattern_L1_429)"/></g><g fi:class="KUsePattern"><pattern id="pattern_L1_430" width="350" height="350" patternUnits="userSpaceOnUse"><use xlink:href="#L1_430" x="-350" y="-350"/><use xlink:href="#L1_430" x="0" y="-350"/><use xlink:href="#L1_430" x="350" y="-350"/><use xlink:href="#L1_430" x="-350" y="0"/><use xlink:href="#L1_430" x="0" y="0"/><use xlink:href="#L1_430" x="350" y="0"/><use xlink:href="#L1_430" x="-350" y="350"/><use xlink:href="#L1_430" x="0" y="350"/><use xlink:href="#L1_430" x="350" y="350"/></pattern><rect x="0" y="0" width="100%" height="100%" fill="url(#pattern_L1_430)"/></g><g fi:class="KUsePattern"><pattern id="pattern_L1_431" width="350" height="350" patternUnits="userSpaceOnUse"><use xlink:href="#L1_431" x="-350" y="-350"/><use xlink:href="#L1_431" x="0" y="-350"/><use xlink:href="#L1_431" x="350" y="-350"/><use xlink:href="#L1_431" x="-350" y="0"/><use xlink:href="#L1_431" x="0" y="0"/><use xlink:href="#L1_431" x="350" y="0"/><use xlink:href="#L1_431" x="-350" y="350"/><use xlink:href="#L1_431" x="0" y="350"/><use xlink:href="#L1_431" x="350" y="350"/></pattern><rect x="0" y="0" width="100%" height="100%" fill="url(#pattern_L1_431)"/></g><g fi:class="KUsePattern"><pattern id="pattern_L1_432" width="350" height="350" patternUnits="userSpaceOnUse"><use xlink:href="#L1_432" x="-350" y="-350"/><use xlink:href="#L1_432" x="0" y="-350"/><use xlink:href="#L1_432" x="350" y="-350"/><use xlink:href="#L1_432" x="-350" y="0"/><use xlink:href="#L1_432" x="0" y="0"/><use xlink:href="#L1_432" x="350" y="0"/><use xlink:href="#L1_432" x="-350" y="350"/><use xlink:href="#L1_432" x="0" y="350"/><use xlink:href="#L1_432" x="350" y="350"/></pattern><rect x="0" y="0" width="100%" height="100%" fill="url(#pattern_L1_432)"/></g><g fi:class="KUsePattern"><pattern id="pattern_L1_433" width="350" height="350" patternUnits="userSpaceOnUse"><use xlink:href="#L1_433" x="-350" y="-350"/><use xlink:href="#L1_433" x="0" y="-350"/><use xlink:href="#L1_433" x="350" y="-350"/><use xlink:href="#L1_433" x="-350" y="0"/><use xlink:href="#L1_433" x="0" y="0"/><use xlink:href="#L1_433" x="350" y="0"/><use xlink:href="#L1_433" x="-350" y="350"/><use xlink:href="#L1_433" x="0" y="350"/><use xlink:href="#L1_433" x="350" y="350"/></pattern><rect x="0" y="0" width="100%" height="100%" fill="url(#pattern_L1_433)"/></g></svg>