<svg width="43" height="43" viewBox="0 0 43 43" fill="none" xmlns="http://www.w3.org/2000/svg">
<circle opacity="0.5" cx="21.5" cy="21.5" r="18.5" fill="#F2F2F2"/>
<circle opacity="0.5" cx="21.5" cy="21.5" r="21" stroke="#F2F2F2"/>
<mask id="mask0" mask-type="alpha" maskUnits="userSpaceOnUse" x="3" y="3" width="37" height="37">
<circle cx="21.5" cy="21.5" r="18.5" fill="#F2F2F2"/>
</mask>
<g mask="url(#mask0)">
<path d="M33.2832 36.6393V39.4311C33.2832 39.7454 33.0209 40 32.697 40H11.3031C10.9792 40 10.7169 39.7454 10.7169 39.4311V36.6393C10.7169 33.7101 13.1633 31.3371 16.1819 31.3364C17.2487 31.3357 18.188 30.8031 18.7287 29.9953C19.2719 29.185 19.2159 28.4804 19.2159 27.911L19.2269 27.8846C16.5966 26.8279 14.7466 24.3127 14.7466 21.3779V21.1553C13.7022 21.1553 12.9149 20.3542 12.9149 19.4102V16.4548C12.8915 15.4258 12.9398 11.7969 15.6405 9.27033C18.7807 6.33269 23.757 6.57305 27.3617 8.14463C27.4789 8.19583 27.4753 8.35867 27.3566 8.40632L26.4166 8.78179C26.2759 8.83797 26.3059 9.03922 26.4569 9.05486L26.9133 9.10251C29.0989 9.32936 31.1291 10.4814 32.3878 12.3986C32.4215 12.4505 32.412 12.5294 32.3688 12.5742C31.5922 13.3714 31.1584 14.4295 31.1584 15.5296V19.4102C31.1584 20.3738 30.3532 21.1553 29.3604 21.1553H29.2535V21.3779C29.2535 24.3127 27.4035 26.8279 24.7732 27.8846L24.7842 27.911C24.7842 28.464 24.7236 29.1782 25.2714 29.9953C25.8121 30.8031 26.7514 31.3357 27.8182 31.3364C30.8368 31.3371 33.2832 33.7101 33.2832 36.6393Z" fill="#FFDFBA"/>
<path d="M33.2832 36.6392V39.4311C33.2832 39.7453 33.0207 40 32.697 40H11.3031C10.9794 40 10.7169 39.7453 10.7169 39.4311V36.6392C10.7169 33.7101 13.1637 31.3375 16.1815 31.3364C17.2486 31.3361 18.1881 30.8028 18.7287 29.9952C20.6156 31.5598 23.3834 31.5608 25.2714 29.9952C25.8119 30.8028 26.7515 31.3361 27.8185 31.3364C30.8364 31.3375 33.2832 33.7101 33.2832 36.6392Z" fill="#FE4F60"/>
<path d="M32.3875 12.3989C32.4215 12.4507 32.4119 12.5292 32.3685 12.5739C31.5921 13.3716 31.1583 14.4294 31.1583 15.5296V19.4102C31.1583 20.2911 30.4745 21.1553 29.2534 21.1553V16.7627C29.2534 14.8775 27.6789 13.3493 25.7366 13.3493H18.2633C16.321 13.3493 14.7465 14.8775 14.7465 16.7627V21.1553C13.7021 21.1553 12.9148 20.3542 12.9148 19.4102V16.4548C12.8914 15.4258 12.9398 11.7969 15.6404 9.27032C18.7804 6.33261 23.7572 6.57311 27.3613 8.14483C27.4786 8.19596 27.4755 8.35888 27.3566 8.40638L26.4165 8.78199C26.276 8.83817 26.3056 9.03921 26.4566 9.05492L26.9132 9.1025C29.0992 9.32913 31.1289 10.4811 32.3875 12.3989Z" fill="#42434D"/>
<path d="M29.2535 21.3779C29.2535 25.2674 26.0042 28.418 22 28.418C18.2274 28.418 14.7466 25.5713 14.7466 21.1553V16.7627C14.7466 14.8775 16.3211 13.3493 18.2634 13.3493H25.7366C27.679 13.3493 29.2535 14.8775 29.2535 16.7627V21.3779Z" fill="#FFEBD2"/>
<path d="M27.9346 38.7911H26.1762C25.8525 38.7911 25.5901 38.5364 25.5901 38.2222C25.5901 37.908 25.8525 37.6533 26.1762 37.6533H27.9346C28.2583 37.6533 28.5208 37.908 28.5208 38.2222C28.5208 38.5364 28.2584 38.7911 27.9346 38.7911Z" fill="white"/>
<path d="M20.3577 25.9239C21.5502 26.6481 20.6098 28.424 19.3044 27.9154C16.6203 26.8697 14.7466 24.331 14.7466 21.3779V16.7627C14.7466 16.0456 14.9744 15.3802 15.3636 14.8307C15.8409 14.1571 16.9446 14.4547 16.9446 15.3405V19.9556C16.9446 22.552 18.3507 24.7052 20.3577 25.9239Z" fill="#FFF3E4"/>
<path d="M24.8669 29.0786C23.0618 29.812 21.0781 29.8689 19.1331 29.0786C19.2324 28.6785 19.2158 28.4194 19.2158 27.911L19.2268 27.8846C20.9913 28.5955 23.0053 28.5969 24.7731 27.8846L24.7841 27.911C24.7841 28.4196 24.7676 28.6787 24.8669 29.0786Z" fill="#FFD6A6"/>
<path d="M19.134 33.0543C18.863 33.137 18.5725 33.1826 18.2609 33.1852C15.2353 33.2111 12.7684 35.5331 12.7684 38.4699V39.0044C12.7684 39.5543 12.3092 40 11.7427 40H11.3031C10.9794 40 10.7169 39.7453 10.7169 39.4311V36.6392C10.7169 33.7101 13.1637 31.3375 16.1815 31.3364C17.2486 31.3361 18.1881 30.8028 18.7287 29.9952C18.9466 30.1759 19.1798 30.3382 19.4256 30.4804C20.5065 31.1055 20.3342 32.688 19.134 33.0543Z" fill="#FF6D7A"/>
<path d="M24.8661 33.0543C25.137 33.137 25.4276 33.1826 25.7392 33.1852C28.7648 33.2111 31.2317 35.5331 31.2317 38.4699V39.0044C31.2317 39.5543 31.6909 40 32.2574 40H32.697C33.0207 40 33.2832 39.7453 33.2832 39.4311V36.6392C33.2832 33.7101 30.8364 31.3375 27.8185 31.3364C26.7515 31.3361 25.812 30.8028 25.2714 29.9952C25.0535 30.1759 24.8202 30.3382 24.5745 30.4804C23.4937 31.1055 23.6658 32.688 24.8661 33.0543Z" fill="#E84857"/>
<path d="M27.3565 8.40632C26.495 8.75043 26.3722 8.82631 26.0738 8.78136C21.262 8.05744 17.0404 9.98977 15.6067 14.5262V14.5269C15.0704 15.1257 14.7465 15.9079 14.7465 16.7627V19.431C14.7465 20.5822 12.9148 20.6623 12.9148 19.4102V16.4548C12.8914 15.4258 12.9398 11.7969 15.6404 9.27033C18.7806 6.33269 23.7569 6.57305 27.3616 8.14463C27.4789 8.19583 27.4752 8.35867 27.3565 8.40632Z" fill="#4D4E59"/>
</g>
</svg>