<svg width="804" height="189" viewBox="0 0 804 189" fill="none" xmlns="http://www.w3.org/2000/svg">
<rect opacity="0.3" y="60" width="804" height="129" rx="20" fill="#90CAF9"/>
<rect opacity="0.25" y="60" width="804" height="129" rx="20" fill="#90CAF9"/>
<path opacity="0.6" d="M48.1973 136H47.0723V127.469H48.1973V136ZM51.5605 128.125V129.66H52.7441V130.498H51.5605V134.43C51.5605 134.684 51.6133 134.875 51.7188 135.004C51.8242 135.129 52.0039 135.191 52.2578 135.191C52.3828 135.191 52.5547 135.168 52.7734 135.121V136C52.4883 136.078 52.2109 136.117 51.9414 136.117C51.457 136.117 51.0918 135.971 50.8457 135.678C50.5996 135.385 50.4766 134.969 50.4766 134.43V130.498H49.3223V129.66H50.4766V128.125H51.5605ZM54.0918 129.871L53.4766 129.449C53.8398 128.941 54.0273 128.406 54.0391 127.844V127H55.1113V127.762C55.1074 128.152 55.0098 128.543 54.8184 128.934C54.6309 129.32 54.3887 129.633 54.0918 129.871ZM59.4531 134.318C59.4531 134.025 59.3418 133.799 59.1191 133.639C58.9004 133.475 58.5156 133.334 57.9648 133.217C57.418 133.1 56.9824 132.959 56.6582 132.795C56.3379 132.631 56.0996 132.436 55.9434 132.209C55.791 131.982 55.7148 131.713 55.7148 131.4C55.7148 130.881 55.9336 130.441 56.3711 130.082C56.8125 129.723 57.375 129.543 58.0586 129.543C58.7773 129.543 59.3594 129.729 59.8047 130.1C60.2539 130.471 60.4785 130.945 60.4785 131.523H59.3887C59.3887 131.227 59.2617 130.971 59.0078 130.756C58.7578 130.541 58.4414 130.434 58.0586 130.434C57.6641 130.434 57.3555 130.52 57.1328 130.691C56.9102 130.863 56.7988 131.088 56.7988 131.365C56.7988 131.627 56.9023 131.824 57.1094 131.957C57.3164 132.09 57.6895 132.217 58.2285 132.338C58.7715 132.459 59.2109 132.604 59.5469 132.771C59.8828 132.939 60.1309 133.143 60.291 133.381C60.4551 133.615 60.5371 133.902 60.5371 134.242C60.5371 134.809 60.3105 135.264 59.8574 135.607C59.4043 135.947 58.8164 136.117 58.0938 136.117C57.5859 136.117 57.1367 136.027 56.7461 135.848C56.3555 135.668 56.0488 135.418 55.8262 135.098C55.6074 134.773 55.498 134.424 55.498 134.049H56.582C56.6016 134.412 56.7461 134.701 57.0156 134.916C57.2891 135.127 57.6484 135.232 58.0938 135.232C58.5039 135.232 58.832 135.15 59.0781 134.986C59.3281 134.818 59.4531 134.596 59.4531 134.318ZM65.9512 129.66L65.9863 130.457C66.4707 129.848 67.1035 129.543 67.8848 129.543C69.2246 129.543 69.9004 130.299 69.9121 131.811V136H68.8281V131.805C68.8242 131.348 68.7188 131.01 68.5117 130.791C68.3086 130.572 67.9902 130.463 67.5566 130.463C67.2051 130.463 66.8965 130.557 66.6309 130.744C66.3652 130.932 66.1582 131.178 66.0098 131.482V136H64.9258V129.66H65.9512ZM71.2598 132.771C71.2598 132.15 71.3809 131.592 71.623 131.096C71.8691 130.6 72.209 130.217 72.6426 129.947C73.0801 129.678 73.5781 129.543 74.1367 129.543C75 129.543 75.6973 129.842 76.2285 130.439C76.7637 131.037 77.0312 131.832 77.0312 132.824V132.9C77.0312 133.518 76.9121 134.072 76.6738 134.564C76.4395 135.053 76.1016 135.434 75.6602 135.707C75.2227 135.98 74.7188 136.117 74.1484 136.117C73.2891 136.117 72.5918 135.818 72.0566 135.221C71.5254 134.623 71.2598 133.832 71.2598 132.848V132.771ZM72.3496 132.9C72.3496 133.604 72.5117 134.168 72.8359 134.594C73.1641 135.02 73.6016 135.232 74.1484 135.232C74.6992 135.232 75.1367 135.018 75.4609 134.588C75.7852 134.154 75.9473 133.549 75.9473 132.771C75.9473 132.076 75.7812 131.514 75.4492 131.084C75.1211 130.65 74.6836 130.434 74.1367 130.434C73.6016 130.434 73.1699 130.646 72.8418 131.072C72.5137 131.498 72.3496 132.107 72.3496 132.9ZM79.8613 128.125V129.66H81.0449V130.498H79.8613V134.43C79.8613 134.684 79.9141 134.875 80.0195 135.004C80.125 135.129 80.3047 135.191 80.5586 135.191C80.6836 135.191 80.8555 135.168 81.0742 135.121V136C80.7891 136.078 80.5117 136.117 80.2422 136.117C79.7578 136.117 79.3926 135.971 79.1465 135.678C78.9004 135.385 78.7773 134.969 78.7773 134.43V130.498H77.623V129.66H78.7773V128.125H79.8613ZM89.207 136C89.1445 135.875 89.0938 135.652 89.0547 135.332C88.5508 135.855 87.9492 136.117 87.25 136.117C86.625 136.117 86.1113 135.941 85.709 135.59C85.3105 135.234 85.1113 134.785 85.1113 134.242C85.1113 133.582 85.3613 133.07 85.8613 132.707C86.3652 132.34 87.0723 132.156 87.9824 132.156H89.0371V131.658C89.0371 131.279 88.9238 130.979 88.6973 130.756C88.4707 130.529 88.1367 130.416 87.6953 130.416C87.3086 130.416 86.9844 130.514 86.7227 130.709C86.4609 130.904 86.3301 131.141 86.3301 131.418H85.2402C85.2402 131.102 85.3516 130.797 85.5742 130.504C85.8008 130.207 86.1055 129.973 86.4883 129.801C86.875 129.629 87.2988 129.543 87.7598 129.543C88.4902 129.543 89.0625 129.727 89.4766 130.094C89.8906 130.457 90.1055 130.959 90.1211 131.6V134.518C90.1211 135.1 90.1953 135.562 90.3438 135.906V136H89.207ZM87.4082 135.174C87.748 135.174 88.0703 135.086 88.375 134.91C88.6797 134.734 88.9004 134.506 89.0371 134.225V132.924H88.1875C86.8594 132.924 86.1953 133.312 86.1953 134.09C86.1953 134.43 86.3086 134.695 86.5352 134.887C86.7617 135.078 87.0527 135.174 87.4082 135.174ZM97.1875 132.9C97.1875 133.869 96.9648 134.648 96.5195 135.238C96.0742 135.824 95.4766 136.117 94.7266 136.117C93.9258 136.117 93.3066 135.834 92.8691 135.268L92.8164 136H91.8203V127H92.9043V130.357C93.3418 129.814 93.9453 129.543 94.7148 129.543C95.4844 129.543 96.0879 129.834 96.5254 130.416C96.9668 130.998 97.1875 131.795 97.1875 132.807V132.9ZM96.1035 132.777C96.1035 132.039 95.9609 131.469 95.6758 131.066C95.3906 130.664 94.9805 130.463 94.4453 130.463C93.7305 130.463 93.2168 130.795 92.9043 131.459V134.201C93.2363 134.865 93.7539 135.197 94.457 135.197C94.9766 135.197 95.3809 134.996 95.6699 134.594C95.959 134.191 96.1035 133.586 96.1035 132.777ZM98.2715 132.771C98.2715 132.15 98.3926 131.592 98.6348 131.096C98.8809 130.6 99.2207 130.217 99.6543 129.947C100.092 129.678 100.59 129.543 101.148 129.543C102.012 129.543 102.709 129.842 103.24 130.439C103.775 131.037 104.043 131.832 104.043 132.824V132.9C104.043 133.518 103.924 134.072 103.686 134.564C103.451 135.053 103.113 135.434 102.672 135.707C102.234 135.98 101.73 136.117 101.16 136.117C100.301 136.117 99.6035 135.818 99.0684 135.221C98.5371 134.623 98.2715 133.832 98.2715 132.848V132.771ZM99.3613 132.9C99.3613 133.604 99.5234 134.168 99.8477 134.594C100.176 135.02 100.613 135.232 101.16 135.232C101.711 135.232 102.148 135.018 102.473 134.588C102.797 134.154 102.959 133.549 102.959 132.771C102.959 132.076 102.793 131.514 102.461 131.084C102.133 130.65 101.695 130.434 101.148 130.434C100.613 130.434 100.182 130.646 99.8535 131.072C99.5254 131.498 99.3613 132.107 99.3613 132.9ZM109.316 135.373C108.895 135.869 108.275 136.117 107.459 136.117C106.783 136.117 106.268 135.922 105.912 135.531C105.561 135.137 105.383 134.555 105.379 133.785V129.66H106.463V133.756C106.463 134.717 106.854 135.197 107.635 135.197C108.463 135.197 109.014 134.889 109.287 134.271V129.66H110.371V136H109.34L109.316 135.373ZM113.494 128.125V129.66H114.678V130.498H113.494V134.43C113.494 134.684 113.547 134.875 113.652 135.004C113.758 135.129 113.938 135.191 114.191 135.191C114.316 135.191 114.488 135.168 114.707 135.121V136C114.422 136.078 114.145 136.117 113.875 136.117C113.391 136.117 113.025 135.971 112.779 135.678C112.533 135.385 112.41 134.969 112.41 134.43V130.498H111.256V129.66H112.41V128.125H113.494ZM120.01 130.428C120.49 129.838 121.115 129.543 121.885 129.543C123.225 129.543 123.9 130.299 123.912 131.811V136H122.828V131.805C122.824 131.348 122.719 131.01 122.512 130.791C122.309 130.572 121.99 130.463 121.557 130.463C121.205 130.463 120.896 130.557 120.631 130.744C120.365 130.932 120.158 131.178 120.01 131.482V136H118.926V127H120.01V130.428ZM125.248 132.771C125.248 132.15 125.369 131.592 125.611 131.096C125.857 130.6 126.197 130.217 126.631 129.947C127.068 129.678 127.566 129.543 128.125 129.543C128.988 129.543 129.686 129.842 130.217 130.439C130.752 131.037 131.02 131.832 131.02 132.824V132.9C131.02 133.518 130.9 134.072 130.662 134.564C130.428 135.053 130.09 135.434 129.648 135.707C129.211 135.98 128.707 136.117 128.137 136.117C127.277 136.117 126.58 135.818 126.045 135.221C125.514 134.623 125.248 133.832 125.248 132.848V132.771ZM126.338 132.9C126.338 133.604 126.5 134.168 126.824 134.594C127.152 135.02 127.59 135.232 128.137 135.232C128.688 135.232 129.125 135.018 129.449 134.588C129.773 134.154 129.936 133.549 129.936 132.771C129.936 132.076 129.77 131.514 129.438 131.084C129.109 130.65 128.672 130.434 128.125 130.434C127.59 130.434 127.158 130.646 126.83 131.072C126.502 131.498 126.338 132.107 126.338 132.9ZM137.992 134.506L139.211 129.66H140.295L138.449 136H137.57L136.029 131.195L134.529 136H133.65L131.811 129.66H132.889L134.137 134.406L135.613 129.66H136.486L137.992 134.506ZM149.746 132.9C149.746 133.869 149.523 134.648 149.078 135.238C148.633 135.824 148.035 136.117 147.285 136.117C146.484 136.117 145.865 135.834 145.428 135.268L145.375 136H144.379V127H145.463V130.357C145.9 129.814 146.504 129.543 147.273 129.543C148.043 129.543 148.646 129.834 149.084 130.416C149.525 130.998 149.746 131.795 149.746 132.807V132.9ZM148.662 132.777C148.662 132.039 148.52 131.469 148.234 131.066C147.949 130.664 147.539 130.463 147.004 130.463C146.289 130.463 145.775 130.795 145.463 131.459V134.201C145.795 134.865 146.312 135.197 147.016 135.197C147.535 135.197 147.939 134.996 148.229 134.594C148.518 134.191 148.662 133.586 148.662 132.777ZM155.031 136C154.969 135.875 154.918 135.652 154.879 135.332C154.375 135.855 153.773 136.117 153.074 136.117C152.449 136.117 151.936 135.941 151.533 135.59C151.135 135.234 150.936 134.785 150.936 134.242C150.936 133.582 151.186 133.07 151.686 132.707C152.189 132.34 152.896 132.156 153.807 132.156H154.861V131.658C154.861 131.279 154.748 130.979 154.521 130.756C154.295 130.529 153.961 130.416 153.52 130.416C153.133 130.416 152.809 130.514 152.547 130.709C152.285 130.904 152.154 131.141 152.154 131.418H151.064C151.064 131.102 151.176 130.797 151.398 130.504C151.625 130.207 151.93 129.973 152.312 129.801C152.699 129.629 153.123 129.543 153.584 129.543C154.314 129.543 154.887 129.727 155.301 130.094C155.715 130.457 155.93 130.959 155.945 131.6V134.518C155.945 135.1 156.02 135.562 156.168 135.906V136H155.031ZM153.232 135.174C153.572 135.174 153.895 135.086 154.199 134.91C154.504 134.734 154.725 134.506 154.861 134.225V132.924H154.012C152.684 132.924 152.02 133.312 152.02 134.09C152.02 134.43 152.133 134.695 152.359 134.887C152.586 135.078 152.877 135.174 153.232 135.174ZM157.381 132.777C157.381 131.805 157.611 131.023 158.072 130.434C158.533 129.84 159.137 129.543 159.883 129.543C160.625 129.543 161.213 129.797 161.646 130.305V127H162.73V136H161.734L161.682 135.32C161.248 135.852 160.645 136.117 159.871 136.117C159.137 136.117 158.537 135.816 158.072 135.215C157.611 134.613 157.381 133.828 157.381 132.859V132.777ZM158.465 132.9C158.465 133.619 158.613 134.182 158.91 134.588C159.207 134.994 159.617 135.197 160.141 135.197C160.828 135.197 161.33 134.889 161.646 134.271V131.359C161.322 130.762 160.824 130.463 160.152 130.463C159.621 130.463 159.207 130.668 158.91 131.078C158.613 131.488 158.465 132.096 158.465 132.9ZM169.469 134.412L170.945 129.66H172.105L169.557 136.979C169.162 138.033 168.535 138.561 167.676 138.561L167.471 138.543L167.066 138.467V137.588L167.359 137.611C167.727 137.611 168.012 137.537 168.215 137.389C168.422 137.24 168.592 136.969 168.725 136.574L168.965 135.93L166.703 129.66H167.887L169.469 134.412ZM172.697 132.771C172.697 132.15 172.818 131.592 173.061 131.096C173.307 130.6 173.646 130.217 174.08 129.947C174.518 129.678 175.016 129.543 175.574 129.543C176.438 129.543 177.135 129.842 177.666 130.439C178.201 131.037 178.469 131.832 178.469 132.824V132.9C178.469 133.518 178.35 134.072 178.111 134.564C177.877 135.053 177.539 135.434 177.098 135.707C176.66 135.98 176.156 136.117 175.586 136.117C174.727 136.117 174.029 135.818 173.494 135.221C172.963 134.623 172.697 133.832 172.697 132.848V132.771ZM173.787 132.9C173.787 133.604 173.949 134.168 174.273 134.594C174.602 135.02 175.039 135.232 175.586 135.232C176.137 135.232 176.574 135.018 176.898 134.588C177.223 134.154 177.385 133.549 177.385 132.771C177.385 132.076 177.219 131.514 176.887 131.084C176.559 130.65 176.121 130.434 175.574 130.434C175.039 130.434 174.607 130.646 174.279 131.072C173.951 131.498 173.787 132.107 173.787 132.9ZM183.742 135.373C183.32 135.869 182.701 136.117 181.885 136.117C181.209 136.117 180.693 135.922 180.338 135.531C179.986 135.137 179.809 134.555 179.805 133.785V129.66H180.889V133.756C180.889 134.717 181.279 135.197 182.061 135.197C182.889 135.197 183.439 134.889 183.713 134.271V129.66H184.797V136H183.766L183.742 135.373ZM195.039 134.506L196.258 129.66H197.342L195.496 136H194.617L193.076 131.195L191.576 136H190.697L188.857 129.66H189.936L191.184 134.406L192.66 129.66H193.533L195.039 134.506ZM202.363 136C202.301 135.875 202.25 135.652 202.211 135.332C201.707 135.855 201.105 136.117 200.406 136.117C199.781 136.117 199.268 135.941 198.865 135.59C198.467 135.234 198.268 134.785 198.268 134.242C198.268 133.582 198.518 133.07 199.018 132.707C199.521 132.34 200.229 132.156 201.139 132.156H202.193V131.658C202.193 131.279 202.08 130.979 201.854 130.756C201.627 130.529 201.293 130.416 200.852 130.416C200.465 130.416 200.141 130.514 199.879 130.709C199.617 130.904 199.486 131.141 199.486 131.418H198.396C198.396 131.102 198.508 130.797 198.73 130.504C198.957 130.207 199.262 129.973 199.645 129.801C200.031 129.629 200.455 129.543 200.916 129.543C201.646 129.543 202.219 129.727 202.633 130.094C203.047 130.457 203.262 130.959 203.277 131.6V134.518C203.277 135.1 203.352 135.562 203.5 135.906V136H202.363ZM200.564 135.174C200.904 135.174 201.227 135.086 201.531 134.91C201.836 134.734 202.057 134.506 202.193 134.225V132.924H201.344C200.016 132.924 199.352 133.312 199.352 134.09C199.352 134.43 199.465 134.695 199.691 134.887C199.918 135.078 200.209 135.174 200.564 135.174ZM206.002 129.66L206.037 130.457C206.521 129.848 207.154 129.543 207.936 129.543C209.275 129.543 209.951 130.299 209.963 131.811V136H208.879V131.805C208.875 131.348 208.77 131.01 208.562 130.791C208.359 130.572 208.041 130.463 207.607 130.463C207.256 130.463 206.947 130.557 206.682 130.744C206.416 130.932 206.209 131.178 206.061 131.482V136H204.977V129.66H206.002ZM213.068 128.125V129.66H214.252V130.498H213.068V134.43C213.068 134.684 213.121 134.875 213.227 135.004C213.332 135.129 213.512 135.191 213.766 135.191C213.891 135.191 214.062 135.168 214.281 135.121V136C213.996 136.078 213.719 136.117 213.449 136.117C212.965 136.117 212.6 135.971 212.354 135.678C212.107 135.385 211.984 134.969 211.984 134.43V130.498H210.83V129.66H211.984V128.125H213.068ZM219.678 136H218.594V129.66H219.678V136ZM218.506 127.979C218.506 127.803 218.559 127.654 218.664 127.533C218.773 127.412 218.934 127.352 219.145 127.352C219.355 127.352 219.516 127.412 219.625 127.533C219.734 127.654 219.789 127.803 219.789 127.979C219.789 128.154 219.734 128.301 219.625 128.418C219.516 128.535 219.355 128.594 219.145 128.594C218.934 128.594 218.773 128.535 218.664 128.418C218.559 128.301 218.506 128.154 218.506 127.979ZM222.889 128.125V129.66H224.072V130.498H222.889V134.43C222.889 134.684 222.941 134.875 223.047 135.004C223.152 135.129 223.332 135.191 223.586 135.191C223.711 135.191 223.883 135.168 224.102 135.121V136C223.816 136.078 223.539 136.117 223.27 136.117C222.785 136.117 222.42 135.971 222.174 135.678C221.928 135.385 221.805 134.969 221.805 134.43V130.498H220.65V129.66H221.805V128.125H222.889ZM225.367 135.432C225.367 135.244 225.422 135.088 225.531 134.963C225.645 134.838 225.812 134.775 226.035 134.775C226.258 134.775 226.426 134.838 226.539 134.963C226.656 135.088 226.715 135.244 226.715 135.432C226.715 135.611 226.656 135.762 226.539 135.883C226.426 136.004 226.258 136.064 226.035 136.064C225.812 136.064 225.645 136.004 225.531 135.883C225.422 135.762 225.367 135.611 225.367 135.432ZM232.861 136H231.736V127.469H232.861V136ZM236.225 128.125V129.66H237.408V130.498H236.225V134.43C236.225 134.684 236.277 134.875 236.383 135.004C236.488 135.129 236.668 135.191 236.922 135.191C237.047 135.191 237.219 135.168 237.438 135.121V136C237.152 136.078 236.875 136.117 236.605 136.117C236.121 136.117 235.756 135.971 235.51 135.678C235.264 135.385 235.141 134.969 235.141 134.43V130.498H233.986V129.66H235.141V128.125H236.225ZM238.756 129.871L238.141 129.449C238.504 128.941 238.691 128.406 238.703 127.844V127H239.775V127.762C239.771 128.152 239.674 128.543 239.482 128.934C239.295 129.32 239.053 129.633 238.756 129.871ZM244.117 134.318C244.117 134.025 244.006 133.799 243.783 133.639C243.564 133.475 243.18 133.334 242.629 133.217C242.082 133.1 241.646 132.959 241.322 132.795C241.002 132.631 240.764 132.436 240.607 132.209C240.455 131.982 240.379 131.713 240.379 131.4C240.379 130.881 240.598 130.441 241.035 130.082C241.477 129.723 242.039 129.543 242.723 129.543C243.441 129.543 244.023 129.729 244.469 130.1C244.918 130.471 245.143 130.945 245.143 131.523H244.053C244.053 131.227 243.926 130.971 243.672 130.756C243.422 130.541 243.105 130.434 242.723 130.434C242.328 130.434 242.02 130.52 241.797 130.691C241.574 130.863 241.463 131.088 241.463 131.365C241.463 131.627 241.566 131.824 241.773 131.957C241.98 132.09 242.354 132.217 242.893 132.338C243.436 132.459 243.875 132.604 244.211 132.771C244.547 132.939 244.795 133.143 244.955 133.381C245.119 133.615 245.201 133.902 245.201 134.242C245.201 134.809 244.975 135.264 244.521 135.607C244.068 135.947 243.48 136.117 242.758 136.117C242.25 136.117 241.801 136.027 241.41 135.848C241.02 135.668 240.713 135.418 240.49 135.098C240.271 134.773 240.162 134.424 240.162 134.049H241.246C241.266 134.412 241.41 134.701 241.68 134.916C241.953 135.127 242.312 135.232 242.758 135.232C243.168 135.232 243.496 135.15 243.742 134.986C243.992 134.818 244.117 134.596 244.117 134.318ZM253.504 136C253.441 135.875 253.391 135.652 253.352 135.332C252.848 135.855 252.246 136.117 251.547 136.117C250.922 136.117 250.408 135.941 250.006 135.59C249.607 135.234 249.408 134.785 249.408 134.242C249.408 133.582 249.658 133.07 250.158 132.707C250.662 132.34 251.369 132.156 252.279 132.156H253.334V131.658C253.334 131.279 253.221 130.979 252.994 130.756C252.768 130.529 252.434 130.416 251.992 130.416C251.605 130.416 251.281 130.514 251.02 130.709C250.758 130.904 250.627 131.141 250.627 131.418H249.537C249.537 131.102 249.648 130.797 249.871 130.504C250.098 130.207 250.402 129.973 250.785 129.801C251.172 129.629 251.596 129.543 252.057 129.543C252.787 129.543 253.359 129.727 253.773 130.094C254.188 130.457 254.402 130.959 254.418 131.6V134.518C254.418 135.1 254.492 135.562 254.641 135.906V136H253.504ZM251.705 135.174C252.045 135.174 252.367 135.086 252.672 134.91C252.977 134.734 253.197 134.506 253.334 134.225V132.924H252.484C251.156 132.924 250.492 133.312 250.492 134.09C250.492 134.43 250.605 134.695 250.832 134.887C251.059 135.078 251.35 135.174 251.705 135.174ZM261.484 132.9C261.484 133.869 261.262 134.648 260.816 135.238C260.371 135.824 259.773 136.117 259.023 136.117C258.223 136.117 257.604 135.834 257.166 135.268L257.113 136H256.117V127H257.201V130.357C257.639 129.814 258.242 129.543 259.012 129.543C259.781 129.543 260.385 129.834 260.822 130.416C261.264 130.998 261.484 131.795 261.484 132.807V132.9ZM260.4 132.777C260.4 132.039 260.258 131.469 259.973 131.066C259.688 130.664 259.277 130.463 258.742 130.463C258.027 130.463 257.514 130.795 257.201 131.459V134.201C257.533 134.865 258.051 135.197 258.754 135.197C259.273 135.197 259.678 134.996 259.967 134.594C260.256 134.191 260.4 133.586 260.4 132.777ZM262.568 132.771C262.568 132.15 262.689 131.592 262.932 131.096C263.178 130.6 263.518 130.217 263.951 129.947C264.389 129.678 264.887 129.543 265.445 129.543C266.309 129.543 267.006 129.842 267.537 130.439C268.072 131.037 268.34 131.832 268.34 132.824V132.9C268.34 133.518 268.221 134.072 267.982 134.564C267.748 135.053 267.41 135.434 266.969 135.707C266.531 135.98 266.027 136.117 265.457 136.117C264.598 136.117 263.9 135.818 263.365 135.221C262.834 134.623 262.568 133.832 262.568 132.848V132.771ZM263.658 132.9C263.658 133.604 263.82 134.168 264.145 134.594C264.473 135.02 264.91 135.232 265.457 135.232C266.008 135.232 266.445 135.018 266.77 134.588C267.094 134.154 267.256 133.549 267.256 132.771C267.256 132.076 267.09 131.514 266.758 131.084C266.43 130.65 265.992 130.434 265.445 130.434C264.91 130.434 264.479 130.646 264.15 131.072C263.822 131.498 263.658 132.107 263.658 132.9ZM273.613 135.373C273.191 135.869 272.572 136.117 271.756 136.117C271.08 136.117 270.564 135.922 270.209 135.531C269.857 135.137 269.68 134.555 269.676 133.785V129.66H270.76V133.756C270.76 134.717 271.15 135.197 271.932 135.197C272.76 135.197 273.311 134.889 273.584 134.271V129.66H274.668V136H273.637L273.613 135.373ZM277.791 128.125V129.66H278.975V130.498H277.791V134.43C277.791 134.684 277.844 134.875 277.949 135.004C278.055 135.129 278.234 135.191 278.488 135.191C278.613 135.191 278.785 135.168 279.004 135.121V136C278.719 136.078 278.441 136.117 278.172 136.117C277.688 136.117 277.322 135.971 277.076 135.678C276.83 135.385 276.707 134.969 276.707 134.43V130.498H275.553V129.66H276.707V128.125H277.791ZM284.307 130.428C284.787 129.838 285.412 129.543 286.182 129.543C287.521 129.543 288.197 130.299 288.209 131.811V136H287.125V131.805C287.121 131.348 287.016 131.01 286.809 130.791C286.605 130.572 286.287 130.463 285.854 130.463C285.502 130.463 285.193 130.557 284.928 130.744C284.662 130.932 284.455 131.178 284.307 131.482V136H283.223V127H284.307V130.428ZM289.545 132.771C289.545 132.15 289.666 131.592 289.908 131.096C290.154 130.6 290.494 130.217 290.928 129.947C291.365 129.678 291.863 129.543 292.422 129.543C293.285 129.543 293.982 129.842 294.514 130.439C295.049 131.037 295.316 131.832 295.316 132.824V132.9C295.316 133.518 295.197 134.072 294.959 134.564C294.725 135.053 294.387 135.434 293.945 135.707C293.508 135.98 293.004 136.117 292.434 136.117C291.574 136.117 290.877 135.818 290.342 135.221C289.811 134.623 289.545 133.832 289.545 132.848V132.771ZM290.635 132.9C290.635 133.604 290.797 134.168 291.121 134.594C291.449 135.02 291.887 135.232 292.434 135.232C292.984 135.232 293.422 135.018 293.746 134.588C294.07 134.154 294.232 133.549 294.232 132.771C294.232 132.076 294.066 131.514 293.734 131.084C293.406 130.65 292.969 130.434 292.422 130.434C291.887 130.434 291.455 130.646 291.127 131.072C290.799 131.498 290.635 132.107 290.635 132.9ZM302.289 134.506L303.508 129.66H304.592L302.746 136H301.867L300.326 131.195L298.826 136H297.947L296.107 129.66H297.186L298.434 134.406L299.91 129.66H300.783L302.289 134.506ZM309.76 130.428C310.24 129.838 310.865 129.543 311.635 129.543C312.975 129.543 313.65 130.299 313.662 131.811V136H312.578V131.805C312.574 131.348 312.469 131.01 312.262 130.791C312.059 130.572 311.74 130.463 311.307 130.463C310.955 130.463 310.646 130.557 310.381 130.744C310.115 130.932 309.908 131.178 309.76 131.482V136H308.676V127H309.76V130.428ZM319.199 136C319.137 135.875 319.086 135.652 319.047 135.332C318.543 135.855 317.941 136.117 317.242 136.117C316.617 136.117 316.104 135.941 315.701 135.59C315.303 135.234 315.104 134.785 315.104 134.242C315.104 133.582 315.354 133.07 315.854 132.707C316.357 132.34 317.064 132.156 317.975 132.156H319.029V131.658C319.029 131.279 318.916 130.979 318.689 130.756C318.463 130.529 318.129 130.416 317.688 130.416C317.301 130.416 316.977 130.514 316.715 130.709C316.453 130.904 316.322 131.141 316.322 131.418H315.232C315.232 131.102 315.344 130.797 315.566 130.504C315.793 130.207 316.098 129.973 316.48 129.801C316.867 129.629 317.291 129.543 317.752 129.543C318.482 129.543 319.055 129.727 319.469 130.094C319.883 130.457 320.098 130.959 320.113 131.6V134.518C320.113 135.1 320.188 135.562 320.336 135.906V136H319.199ZM317.4 135.174C317.74 135.174 318.062 135.086 318.367 134.91C318.672 134.734 318.893 134.506 319.029 134.225V132.924H318.18C316.852 132.924 316.188 133.312 316.188 134.09C316.188 134.43 316.301 134.695 316.527 134.887C316.754 135.078 317.045 135.174 317.4 135.174ZM324.877 130.633C324.713 130.605 324.535 130.592 324.344 130.592C323.633 130.592 323.15 130.895 322.896 131.5V136H321.812V129.66H322.867L322.885 130.393C323.24 129.826 323.744 129.543 324.396 129.543C324.607 129.543 324.768 129.57 324.877 129.625V130.633ZM325.498 132.777C325.498 131.805 325.729 131.023 326.189 130.434C326.65 129.84 327.254 129.543 328 129.543C328.742 129.543 329.33 129.797 329.764 130.305V127H330.848V136H329.852L329.799 135.32C329.365 135.852 328.762 136.117 327.988 136.117C327.254 136.117 326.654 135.816 326.189 135.215C325.729 134.613 325.498 133.828 325.498 132.859V132.777ZM326.582 132.9C326.582 133.619 326.73 134.182 327.027 134.588C327.324 134.994 327.734 135.197 328.258 135.197C328.945 135.197 329.447 134.889 329.764 134.271V131.359C329.439 130.762 328.941 130.463 328.27 130.463C327.738 130.463 327.324 130.668 327.027 131.078C326.73 131.488 326.582 132.096 326.582 132.9ZM48.8945 148.412L50.3711 143.66H51.5312L48.9824 150.979C48.5879 152.033 47.9609 152.561 47.1016 152.561L46.8965 152.543L46.4922 152.467V151.588L46.7852 151.611C47.1523 151.611 47.4375 151.537 47.6406 151.389C47.8477 151.24 48.0176 150.969 48.1504 150.574L48.3906 149.93L46.1289 143.66H47.3125L48.8945 148.412ZM52.123 146.771C52.123 146.15 52.2441 145.592 52.4863 145.096C52.7324 144.6 53.0723 144.217 53.5059 143.947C53.9434 143.678 54.4414 143.543 55 143.543C55.8633 143.543 56.5605 143.842 57.0918 144.439C57.627 145.037 57.8945 145.832 57.8945 146.824V146.9C57.8945 147.518 57.7754 148.072 57.5371 148.564C57.3027 149.053 56.9648 149.434 56.5234 149.707C56.0859 149.98 55.582 150.117 55.0117 150.117C54.1523 150.117 53.4551 149.818 52.9199 149.221C52.3887 148.623 52.123 147.832 52.123 146.848V146.771ZM53.2129 146.9C53.2129 147.604 53.375 148.168 53.6992 148.594C54.0273 149.02 54.4648 149.232 55.0117 149.232C55.5625 149.232 56 149.018 56.3242 148.588C56.6484 148.154 56.8105 147.549 56.8105 146.771C56.8105 146.076 56.6445 145.514 56.3125 145.084C55.9844 144.65 55.5469 144.434 55 144.434C54.4648 144.434 54.0332 144.646 53.7051 145.072C53.377 145.498 53.2129 146.107 53.2129 146.9ZM63.168 149.373C62.7461 149.869 62.127 150.117 61.3105 150.117C60.6348 150.117 60.1191 149.922 59.7637 149.531C59.4121 149.137 59.2344 148.555 59.2305 147.785V143.66H60.3145V147.756C60.3145 148.717 60.7051 149.197 61.4863 149.197C62.3145 149.197 62.8652 148.889 63.1387 148.271V143.66H64.2227V150H63.1914L63.168 149.373ZM65.9512 143.871L65.3359 143.449C65.6992 142.941 65.8867 142.406 65.8984 141.844V141H66.9707V141.762C66.9668 142.152 66.8691 142.543 66.6777 142.934C66.4902 143.32 66.248 143.633 65.9512 143.871ZM71.3418 144.633C71.1777 144.605 71 144.592 70.8086 144.592C70.0977 144.592 69.6152 144.895 69.3613 145.5V150H68.2773V143.66H69.332L69.3496 144.393C69.7051 143.826 70.209 143.543 70.8613 143.543C71.0723 143.543 71.2324 143.57 71.3418 143.625V144.633ZM74.8574 150.117C73.998 150.117 73.2988 149.836 72.7598 149.273C72.2207 148.707 71.9512 147.951 71.9512 147.006V146.807C71.9512 146.178 72.0703 145.617 72.3086 145.125C72.5508 144.629 72.8867 144.242 73.3164 143.965C73.75 143.684 74.2188 143.543 74.7227 143.543C75.5469 143.543 76.1875 143.814 76.6445 144.357C77.1016 144.9 77.3301 145.678 77.3301 146.689V147.141H73.0352C73.0508 147.766 73.2324 148.271 73.5801 148.658C73.9316 149.041 74.377 149.232 74.916 149.232C75.2988 149.232 75.623 149.154 75.8887 148.998C76.1543 148.842 76.3867 148.635 76.5859 148.377L77.248 148.893C76.7168 149.709 75.9199 150.117 74.8574 150.117ZM74.7227 144.434C74.2852 144.434 73.918 144.594 73.6211 144.914C73.3242 145.23 73.1406 145.676 73.0703 146.25H76.2461V146.168C76.2148 145.617 76.0664 145.191 75.8008 144.891C75.5352 144.586 75.1758 144.434 74.7227 144.434ZM87.1797 148.506L88.3984 143.66H89.4824L87.6367 150H86.7578L85.2168 145.195L83.7168 150H82.8379L80.998 143.66H82.0762L83.3242 148.406L84.8008 143.66H85.6738L87.1797 148.506ZM91.7676 150H90.6836V143.66H91.7676V150ZM90.5957 141.979C90.5957 141.803 90.6484 141.654 90.7539 141.533C90.8633 141.412 91.0234 141.352 91.2344 141.352C91.4453 141.352 91.6055 141.412 91.7148 141.533C91.8242 141.654 91.8789 141.803 91.8789 141.979C91.8789 142.154 91.8242 142.301 91.7148 142.418C91.6055 142.535 91.4453 142.594 91.2344 142.594C91.0234 142.594 90.8633 142.535 90.7539 142.418C90.6484 142.301 90.5957 142.154 90.5957 141.979ZM94.6855 150H93.6016V141H94.6855V150ZM97.6035 150H96.5195V141H97.6035V150ZM100.521 150H99.4375V143.66H100.521V150ZM99.3496 141.979C99.3496 141.803 99.4023 141.654 99.5078 141.533C99.6172 141.412 99.7773 141.352 99.9883 141.352C100.199 141.352 100.359 141.412 100.469 141.533C100.578 141.654 100.633 141.803 100.633 141.979C100.633 142.154 100.578 142.301 100.469 142.418C100.359 142.535 100.199 142.594 99.9883 142.594C99.7773 142.594 99.6172 142.535 99.5078 142.418C99.4023 142.301 99.3496 142.154 99.3496 141.979ZM103.287 143.66L103.322 144.457C103.807 143.848 104.439 143.543 105.221 143.543C106.561 143.543 107.236 144.299 107.248 145.811V150H106.164V145.805C106.16 145.348 106.055 145.01 105.848 144.791C105.645 144.572 105.326 144.463 104.893 144.463C104.541 144.463 104.232 144.557 103.967 144.744C103.701 144.932 103.494 145.178 103.346 145.482V150H102.262V143.66H103.287ZM108.625 146.777C108.625 145.789 108.854 145.004 109.311 144.422C109.768 143.836 110.373 143.543 111.127 143.543C111.9 143.543 112.504 143.816 112.938 144.363L112.99 143.66H113.98V149.848C113.98 150.668 113.736 151.314 113.248 151.787C112.764 152.26 112.111 152.496 111.291 152.496C110.834 152.496 110.387 152.398 109.949 152.203C109.512 152.008 109.178 151.74 108.947 151.4L109.51 150.75C109.975 151.324 110.543 151.611 111.215 151.611C111.742 151.611 112.152 151.463 112.445 151.166C112.742 150.869 112.891 150.451 112.891 149.912V149.367C112.457 149.867 111.865 150.117 111.115 150.117C110.373 150.117 109.771 149.818 109.311 149.221C108.854 148.623 108.625 147.809 108.625 146.777ZM109.715 146.9C109.715 147.615 109.861 148.178 110.154 148.588C110.447 148.994 110.857 149.197 111.385 149.197C112.068 149.197 112.57 148.887 112.891 148.266V145.371C112.559 144.766 112.061 144.463 111.396 144.463C110.869 144.463 110.457 144.668 110.16 145.078C109.863 145.488 109.715 146.096 109.715 146.9ZM120.068 142.125V143.66H121.252V144.498H120.068V148.43C120.068 148.684 120.121 148.875 120.227 149.004C120.332 149.129 120.512 149.191 120.766 149.191C120.891 149.191 121.062 149.168 121.281 149.121V150C120.996 150.078 120.719 150.117 120.449 150.117C119.965 150.117 119.6 149.971 119.354 149.678C119.107 149.385 118.984 148.969 118.984 148.43V144.498H117.83V143.66H118.984V142.125H120.068ZM122.119 146.771C122.119 146.15 122.24 145.592 122.482 145.096C122.729 144.6 123.068 144.217 123.502 143.947C123.939 143.678 124.438 143.543 124.996 143.543C125.859 143.543 126.557 143.842 127.088 144.439C127.623 145.037 127.891 145.832 127.891 146.824V146.9C127.891 147.518 127.771 148.072 127.533 148.564C127.299 149.053 126.961 149.434 126.52 149.707C126.082 149.98 125.578 150.117 125.008 150.117C124.148 150.117 123.451 149.818 122.916 149.221C122.385 148.623 122.119 147.832 122.119 146.848V146.771ZM123.209 146.9C123.209 147.604 123.371 148.168 123.695 148.594C124.023 149.02 124.461 149.232 125.008 149.232C125.559 149.232 125.996 149.018 126.32 148.588C126.645 148.154 126.807 147.549 126.807 146.771C126.807 146.076 126.641 145.514 126.309 145.084C125.98 144.65 125.543 144.434 124.996 144.434C124.461 144.434 124.029 144.646 123.701 145.072C123.373 145.498 123.209 146.107 123.209 146.9ZM137.84 148.506L139.059 143.66H140.143L138.297 150H137.418L135.877 145.195L134.377 150H133.498L131.658 143.66H132.736L133.984 148.406L135.461 143.66H136.334L137.84 148.506ZM140.963 146.771C140.963 146.15 141.084 145.592 141.326 145.096C141.572 144.6 141.912 144.217 142.346 143.947C142.783 143.678 143.281 143.543 143.84 143.543C144.703 143.543 145.4 143.842 145.932 144.439C146.467 145.037 146.734 145.832 146.734 146.824V146.9C146.734 147.518 146.615 148.072 146.377 148.564C146.143 149.053 145.805 149.434 145.363 149.707C144.926 149.98 144.422 150.117 143.852 150.117C142.992 150.117 142.295 149.818 141.76 149.221C141.229 148.623 140.963 147.832 140.963 146.848V146.771ZM142.053 146.9C142.053 147.604 142.215 148.168 142.539 148.594C142.867 149.02 143.305 149.232 143.852 149.232C144.402 149.232 144.84 149.018 145.164 148.588C145.488 148.154 145.65 147.549 145.65 146.771C145.65 146.076 145.484 145.514 145.152 145.084C144.824 144.65 144.387 144.434 143.84 144.434C143.305 144.434 142.873 144.646 142.545 145.072C142.217 145.498 142.053 146.107 142.053 146.9ZM151.158 144.633C150.994 144.605 150.816 144.592 150.625 144.592C149.914 144.592 149.432 144.895 149.178 145.5V150H148.094V143.66H149.148L149.166 144.393C149.521 143.826 150.025 143.543 150.678 143.543C150.889 143.543 151.049 143.57 151.158 143.625V144.633ZM153.93 147.064L153.25 147.773V150H152.166V141H153.25V146.443L153.83 145.746L155.805 143.66H157.123L154.656 146.309L157.41 150H156.139L153.93 147.064ZM161.752 150V144.498H160.75V143.66H161.752V143.01C161.752 142.33 161.934 141.805 162.297 141.434C162.66 141.062 163.174 140.877 163.838 140.877C164.088 140.877 164.336 140.91 164.582 140.977L164.523 141.855C164.34 141.82 164.145 141.803 163.938 141.803C163.586 141.803 163.314 141.906 163.123 142.113C162.932 142.316 162.836 142.609 162.836 142.992V143.66H164.189V144.498H162.836V150H161.752ZM165.104 146.771C165.104 146.15 165.225 145.592 165.467 145.096C165.713 144.6 166.053 144.217 166.486 143.947C166.924 143.678 167.422 143.543 167.98 143.543C168.844 143.543 169.541 143.842 170.072 144.439C170.607 145.037 170.875 145.832 170.875 146.824V146.9C170.875 147.518 170.756 148.072 170.518 148.564C170.283 149.053 169.945 149.434 169.504 149.707C169.066 149.98 168.562 150.117 167.992 150.117C167.133 150.117 166.436 149.818 165.9 149.221C165.369 148.623 165.104 147.832 165.104 146.848V146.771ZM166.193 146.9C166.193 147.604 166.355 148.168 166.68 148.594C167.008 149.02 167.445 149.232 167.992 149.232C168.543 149.232 168.98 149.018 169.305 148.588C169.629 148.154 169.791 147.549 169.791 146.771C169.791 146.076 169.625 145.514 169.293 145.084C168.965 144.65 168.527 144.434 167.98 144.434C167.445 144.434 167.014 144.646 166.686 145.072C166.357 145.498 166.193 146.107 166.193 146.9ZM175.299 144.633C175.135 144.605 174.957 144.592 174.766 144.592C174.055 144.592 173.572 144.895 173.318 145.5V150H172.234V143.66H173.289L173.307 144.393C173.662 143.826 174.166 143.543 174.818 143.543C175.029 143.543 175.189 143.57 175.299 143.625V144.633ZM180.455 150H179.371V143.66H180.455V150ZM179.283 141.979C179.283 141.803 179.336 141.654 179.441 141.533C179.551 141.412 179.711 141.352 179.922 141.352C180.133 141.352 180.293 141.412 180.402 141.533C180.512 141.654 180.566 141.803 180.566 141.979C180.566 142.154 180.512 142.301 180.402 142.418C180.293 142.535 180.133 142.594 179.922 142.594C179.711 142.594 179.551 142.535 179.441 142.418C179.336 142.301 179.283 142.154 179.283 141.979ZM183.666 142.125V143.66H184.85V144.498H183.666V148.43C183.666 148.684 183.719 148.875 183.824 149.004C183.93 149.129 184.109 149.191 184.363 149.191C184.488 149.191 184.66 149.168 184.879 149.121V150C184.594 150.078 184.316 150.117 184.047 150.117C183.562 150.117 183.197 149.971 182.951 149.678C182.705 149.385 182.582 148.969 182.582 148.43V144.498H181.428V143.66H182.582V142.125H183.666ZM186.145 149.432C186.145 149.244 186.199 149.088 186.309 148.963C186.422 148.838 186.59 148.775 186.812 148.775C187.035 148.775 187.203 148.838 187.316 148.963C187.434 149.088 187.492 149.244 187.492 149.432C187.492 149.611 187.434 149.762 187.316 149.883C187.203 150.004 187.035 150.064 186.812 150.064C186.59 150.064 186.422 150.004 186.309 149.883C186.199 149.762 186.145 149.611 186.145 149.432Z" fill="black"/>
<path d="M58.9297 92.2129C58.9297 93.541 58.7148 94.6966 58.2852 95.6797C57.8555 96.6562 57.2598 97.4408 56.498 98.0332L58.8613 99.8887L56.9961 101.539L53.9688 99.1074C53.6237 99.166 53.2656 99.1953 52.8945 99.1953C51.7161 99.1953 50.6647 98.9121 49.7402 98.3457C48.8158 97.7793 48.0996 96.972 47.5918 95.9238C47.084 94.8691 46.8268 93.6582 46.8203 92.291V91.5879C46.8203 90.1882 47.071 88.9577 47.5723 87.8965C48.0801 86.8288 48.793 86.0117 49.7109 85.4453C50.6354 84.8724 51.6901 84.5859 52.875 84.5859C54.0599 84.5859 55.1113 84.8724 56.0293 85.4453C56.9538 86.0117 57.6667 86.8288 58.168 87.8965C58.6758 88.9577 58.9297 90.1849 58.9297 91.5781V92.2129ZM55.9609 91.5684C55.9609 90.0775 55.694 88.9447 55.1602 88.1699C54.6263 87.3952 53.8646 87.0078 52.875 87.0078C51.8919 87.0078 51.1335 87.3919 50.5996 88.1602C50.0658 88.9219 49.7956 90.0417 49.7891 91.5195V92.2129C49.7891 93.6647 50.056 94.791 50.5898 95.5918C51.1237 96.3926 51.8919 96.793 52.8945 96.793C53.8776 96.793 54.6328 96.4089 55.1602 95.6406C55.6875 94.8659 55.9544 93.7396 55.9609 92.2617V91.5684ZM67.2207 97.9258C66.5241 98.7721 65.5605 99.1953 64.3301 99.1953C63.1973 99.1953 62.3314 98.8698 61.7324 98.2188C61.14 97.5677 60.8372 96.6139 60.8242 95.3574V88.4336H63.6465V95.2598C63.6465 96.36 64.1478 96.9102 65.1504 96.9102C66.1074 96.9102 66.765 96.5781 67.123 95.9141V88.4336H69.9551V99H67.2988L67.2207 97.9258ZM71.6445 93.6191C71.6445 92.571 71.8464 91.6367 72.25 90.8164C72.6536 89.9961 73.2331 89.3613 73.9883 88.9121C74.75 88.4629 75.6322 88.2383 76.6348 88.2383C78.0605 88.2383 79.2227 88.6745 80.1211 89.5469C81.026 90.4193 81.5306 91.6042 81.6348 93.1016L81.6543 93.8242C81.6543 95.4453 81.2018 96.7474 80.2969 97.7305C79.3919 98.707 78.1777 99.1953 76.6543 99.1953C75.1309 99.1953 73.9134 98.707 73.002 97.7305C72.097 96.7539 71.6445 95.4258 71.6445 93.7461V93.6191ZM74.4668 93.8242C74.4668 94.8268 74.6556 95.5951 75.0332 96.1289C75.4108 96.6562 75.9512 96.9199 76.6543 96.9199C77.3379 96.9199 77.8717 96.6595 78.2559 96.1387C78.64 95.6113 78.832 94.7715 78.832 93.6191C78.832 92.6361 78.64 91.8743 78.2559 91.334C77.8717 90.7936 77.3314 90.5234 76.6348 90.5234C75.9447 90.5234 75.4108 90.7936 75.0332 91.334C74.6556 91.8678 74.4668 92.6979 74.4668 93.8242ZM86.7715 85.8359V88.4336H88.5781V90.5039H86.7715V95.7773C86.7715 96.168 86.8464 96.4479 86.9961 96.6172C87.1458 96.7865 87.4323 96.8711 87.8555 96.8711C88.168 96.8711 88.4447 96.8483 88.6855 96.8027V98.9414C88.1322 99.1107 87.5625 99.1953 86.9766 99.1953C84.9974 99.1953 83.9883 98.196 83.9492 96.1973V90.5039H82.4062V88.4336H83.9492V85.8359H86.7715ZM95.0137 99.1953C93.4642 99.1953 92.2012 98.7201 91.2246 97.7695C90.2546 96.819 89.7695 95.5527 89.7695 93.9707V93.6973C89.7695 92.6361 89.9746 91.6888 90.3848 90.8555C90.7949 90.0156 91.3743 89.3711 92.123 88.9219C92.8783 88.4661 93.7376 88.2383 94.7012 88.2383C96.1465 88.2383 97.2826 88.694 98.1094 89.6055C98.9427 90.5169 99.3594 91.8092 99.3594 93.4824V94.6348H92.6309C92.722 95.3249 92.9954 95.8783 93.4512 96.2949C93.9134 96.7116 94.4961 96.9199 95.1992 96.9199C96.2865 96.9199 97.1361 96.526 97.748 95.7383L99.1348 97.291C98.7116 97.89 98.1387 98.3587 97.416 98.6973C96.6934 99.0293 95.8926 99.1953 95.0137 99.1953ZM94.6914 90.5234C94.1315 90.5234 93.6758 90.7122 93.3242 91.0898C92.9792 91.4674 92.7578 92.0078 92.6602 92.7109H96.5859V92.4863C96.5729 91.8613 96.4036 91.3796 96.0781 91.041C95.7526 90.696 95.2904 90.5234 94.6914 90.5234ZM105.512 93.6191C105.512 92.571 105.714 91.6367 106.117 90.8164C106.521 89.9961 107.1 89.3613 107.855 88.9121C108.617 88.4629 109.499 88.2383 110.502 88.2383C111.928 88.2383 113.09 88.6745 113.988 89.5469C114.893 90.4193 115.398 91.6042 115.502 93.1016L115.521 93.8242C115.521 95.4453 115.069 96.7474 114.164 97.7305C113.259 98.707 112.045 99.1953 110.521 99.1953C108.998 99.1953 107.781 98.707 106.869 97.7305C105.964 96.7539 105.512 95.4258 105.512 93.7461V93.6191ZM108.334 93.8242C108.334 94.8268 108.523 95.5951 108.9 96.1289C109.278 96.6562 109.818 96.9199 110.521 96.9199C111.205 96.9199 111.739 96.6595 112.123 96.1387C112.507 95.6113 112.699 94.7715 112.699 93.6191C112.699 92.6361 112.507 91.8743 112.123 91.334C111.739 90.7936 111.199 90.5234 110.502 90.5234C109.812 90.5234 109.278 90.7936 108.9 91.334C108.523 91.8678 108.334 92.6979 108.334 93.8242ZM118.031 99V90.5039H116.459V88.4336H118.031V87.5352C118.031 86.3503 118.37 85.4323 119.047 84.7812C119.73 84.1237 120.684 83.7949 121.908 83.7949C122.299 83.7949 122.777 83.86 123.344 83.9902L123.314 86.1777C123.08 86.1191 122.794 86.0898 122.455 86.0898C121.394 86.0898 120.863 86.5879 120.863 87.584V88.4336H122.963V90.5039H120.863V99H118.031ZM132.787 85.8359V88.4336H134.594V90.5039H132.787V95.7773C132.787 96.168 132.862 96.4479 133.012 96.6172C133.161 96.7865 133.448 96.8711 133.871 96.8711C134.184 96.8711 134.46 96.8483 134.701 96.8027V98.9414C134.148 99.1107 133.578 99.1953 132.992 99.1953C131.013 99.1953 130.004 98.196 129.965 96.1973V90.5039H128.422V88.4336H129.965V85.8359H132.787ZM138.92 89.5859C139.669 88.6875 140.609 88.2383 141.742 88.2383C144.034 88.2383 145.196 89.5697 145.229 92.2324V99H142.406V92.3105C142.406 91.7051 142.276 91.2591 142.016 90.9727C141.755 90.6797 141.322 90.5332 140.717 90.5332C139.89 90.5332 139.291 90.8522 138.92 91.4902V99H136.098V84H138.92V89.5859ZM152.221 99.1953C150.671 99.1953 149.408 98.7201 148.432 97.7695C147.462 96.819 146.977 95.5527 146.977 93.9707V93.6973C146.977 92.6361 147.182 91.6888 147.592 90.8555C148.002 90.0156 148.581 89.3711 149.33 88.9219C150.085 88.4661 150.945 88.2383 151.908 88.2383C153.354 88.2383 154.49 88.694 155.316 89.6055C156.15 90.5169 156.566 91.8092 156.566 93.4824V94.6348H149.838C149.929 95.3249 150.202 95.8783 150.658 96.2949C151.12 96.7116 151.703 96.9199 152.406 96.9199C153.493 96.9199 154.343 96.526 154.955 95.7383L156.342 97.291C155.919 97.89 155.346 98.3587 154.623 98.6973C153.9 99.0293 153.1 99.1953 152.221 99.1953ZM151.898 90.5234C151.339 90.5234 150.883 90.7122 150.531 91.0898C150.186 91.4674 149.965 92.0078 149.867 92.7109H153.793V92.4863C153.78 91.8613 153.611 91.3796 153.285 91.041C152.96 90.696 152.497 90.5234 151.898 90.5234ZM162.719 93.6387C162.719 91.9915 163.087 90.6797 163.822 89.7031C164.564 88.7266 165.577 88.2383 166.859 88.2383C167.888 88.2383 168.738 88.6224 169.408 89.3906V84H172.24V99H169.691L169.555 97.877C168.852 98.7559 167.947 99.1953 166.84 99.1953C165.596 99.1953 164.597 98.707 163.842 97.7305C163.093 96.7474 162.719 95.3835 162.719 93.6387ZM165.541 93.8438C165.541 94.8333 165.714 95.5918 166.059 96.1191C166.404 96.6465 166.905 96.9102 167.562 96.9102C168.435 96.9102 169.05 96.5423 169.408 95.8066V91.6367C169.057 90.901 168.448 90.5332 167.582 90.5332C166.221 90.5332 165.541 91.6367 165.541 93.8438ZM180.551 99C180.421 98.7461 180.326 98.4303 180.268 98.0527C179.584 98.8145 178.695 99.1953 177.602 99.1953C176.566 99.1953 175.707 98.8958 175.023 98.2969C174.346 97.6979 174.008 96.9427 174.008 96.0312C174.008 94.9115 174.421 94.0521 175.248 93.4531C176.081 92.8542 177.283 92.5514 178.852 92.5449H180.15V91.9395C180.15 91.4512 180.023 91.0605 179.77 90.7676C179.522 90.4746 179.128 90.3281 178.588 90.3281C178.113 90.3281 177.738 90.4421 177.465 90.6699C177.198 90.8978 177.064 91.2103 177.064 91.6074H174.242C174.242 90.9954 174.431 90.429 174.809 89.9082C175.186 89.3874 175.72 88.9805 176.41 88.6875C177.1 88.388 177.875 88.2383 178.734 88.2383C180.036 88.2383 181.068 88.5671 181.83 89.2246C182.598 89.8757 182.982 90.7936 182.982 91.9785V96.5586C182.989 97.5612 183.129 98.3197 183.402 98.834V99H180.551ZM178.217 97.0371C178.633 97.0371 179.018 96.946 179.369 96.7637C179.721 96.5749 179.981 96.3242 180.15 96.0117V94.1953H179.096C177.683 94.1953 176.931 94.6836 176.84 95.6602L176.83 95.8262C176.83 96.1777 176.954 96.4674 177.201 96.6953C177.449 96.9232 177.787 97.0371 178.217 97.0371ZM188.939 95.0059L190.893 88.4336H193.92L189.672 100.641L189.438 101.197C188.806 102.577 187.764 103.268 186.312 103.268C185.902 103.268 185.486 103.206 185.062 103.082V100.943L185.492 100.953C186.026 100.953 186.423 100.872 186.684 100.709C186.951 100.546 187.159 100.276 187.309 99.8984L187.641 99.0293L183.939 88.4336H186.977L188.939 95.0059Z" fill="black"/>
<mask id="mask0" mask-type="alpha" maskUnits="userSpaceOnUse" x="0" y="60" width="804" height="129">
<rect opacity="0.25" y="60" width="804" height="129" rx="20" fill="#90CAF9"/>
</mask>
<g mask="url(#mask0)">
<path d="M424.696 150.49C424.574 151.078 424.175 151.639 424.308 152.279C424.336 152.417 424.257 152.506 424.184 152.616C424.098 152.745 424.133 153.903 424.105 154.066C424.025 154.521 424.493 154.931 424.288 155.33C424.044 155.804 424.21 156.178 424.281 156.633C424.455 157.748 424.829 158.766 425.474 159.88C425.44 159.482 425.454 159.222 425.644 159.026C425.499 158.942 425.344 159.004 425.266 158.831C425.453 158.022 425.009 157.262 424.938 156.445C424.872 155.682 424.675 154.927 424.69 154.142C424.713 152.925 424.696 151.707 424.696 150.49ZM436.393 167.108C436.753 167.341 436.997 167.665 437.341 167.906C438.165 168.483 439.085 168.848 439.968 169.295C440.343 169.485 440.764 169.403 440.971 169.068C441.666 167.946 442.406 166.847 442.81 165.569C442.999 164.971 443.222 164.384 443.422 163.789C443.635 163.157 443.704 162.489 443.854 161.843C443.999 161.218 443.912 160.548 444.056 159.892C444.253 158.989 443.754 158.092 443.884 157.168C443.53 156.877 443.765 156.454 443.645 156.105C443.384 155.34 443.15 154.566 442.916 153.792C442.513 152.459 441.843 151.234 441.071 150.111C440.474 149.242 439.807 148.383 438.949 147.686C438.345 147.196 437.742 146.725 437.057 146.38C435.912 145.801 434.731 145.3 433.396 145.399C433.203 145.413 433.008 145.415 432.816 145.399C431.452 145.286 430.801 146.063 430.105 147.034C429.748 147.533 429.641 148.171 429.167 148.59C429.234 148.736 429.529 148.841 429.276 149.051C429.124 149.178 429.143 149.333 429.157 149.487C429.184 149.784 428.801 149.552 428.789 149.781C429.147 150.128 428.977 150.386 428.662 150.618C428.59 150.559 428.525 150.506 428.405 150.408C428.327 151.074 428.358 151.689 428.215 152.305C428.01 153.195 428.322 154.12 428.445 155.011C428.561 155.849 428.731 156.732 429.143 157.519C429.157 157.546 429.028 157.648 428.962 157.72C429.585 158.151 429.778 158.879 430.093 159.485C430.672 160.599 431.231 161.708 432.124 162.608C432.262 162.746 432.193 162.931 432.268 163.031C432.444 163.268 432.405 163.558 432.523 163.806H432.891C433.12 163.893 433.007 164.143 433.176 164.284C433.318 164.403 433.526 164.364 433.65 164.639C433.836 165.051 434.252 165.385 434.626 165.681C434.99 165.968 435.075 166.561 435.689 166.588C435.899 166.597 435.894 166.944 436.032 167.108H436.393ZM437.169 174.878C436.884 175.436 436.277 175.231 435.837 175.406C435.527 175.528 435.113 175.814 434.781 175.616C434.424 175.404 434.176 175.728 433.859 175.653C433.64 175.601 433.356 175.541 433.145 175.793C433.089 175.86 432.872 175.874 432.787 175.82C432.564 175.679 432.372 175.493 432.164 175.825C431.657 175.507 431.069 175.712 430.531 175.569C429.911 175.405 429.287 175.239 428.641 175.22C428.457 175.037 428.274 174.854 428.091 174.671C427.903 174.898 427.693 174.931 427.428 174.787C426.455 174.259 425.356 173.95 424.471 173.289C423.803 172.79 423.045 172.42 422.461 171.784C421.846 171.114 421.08 170.592 420.439 169.936C419.512 168.988 418.731 167.917 417.84 166.94C417.739 166.426 417.295 166.144 417.034 165.739C416.75 165.303 416.378 164.937 416.125 164.471C415.879 164.019 415.626 163.557 415.252 163.181C415.102 163.03 415.231 162.895 415.393 162.754C415.14 162.428 414.712 162.288 414.576 161.793C414.467 161.398 414.057 161.068 413.813 160.667C413.093 159.482 412.42 158.276 411.813 157.032C411.59 156.576 411.468 156.054 411.174 155.655C410.875 155.25 410.842 154.756 410.562 154.349C410.277 153.935 410.077 153.454 409.898 152.981C409.359 151.556 408.678 150.194 408.139 148.765C407.57 147.256 406.961 145.764 406.46 144.227C406.285 143.691 406.039 143.179 405.875 142.628C405.679 141.966 405.519 141.292 405.291 140.642C405.071 140.017 404.765 139.427 404.714 138.744C404.702 138.597 404.473 138.441 404.546 138.244C404.61 138.07 404.206 138.029 404.468 137.78C404.592 137.662 404.259 137.541 404.181 137.387C404.066 137.161 404.131 136.909 404.068 136.662C403.765 135.462 403.358 134.29 403.147 133.058C403.027 132.363 402.942 131.634 402.633 130.953C402.455 130.56 402.67 130.023 402.407 129.594C402.532 128.861 402.092 128.179 402.211 127.445C402.243 127.243 401.943 127.078 402.189 126.809C402.282 126.708 401.944 126.425 402.008 126.133C402.062 125.887 402.019 125.619 402.019 125.36C402.019 125.102 402.028 124.843 402.018 124.585C401.99 123.914 402.194 123.349 402.575 122.774C402.917 122.259 403.273 121.804 403.773 121.45C403.953 121.323 404.121 121.356 404.297 121.416C404.526 121.767 404.165 121.988 404.105 122.273C404.057 122.5 403.784 122.629 403.87 122.955C403.923 123.161 403.668 123.388 403.945 123.647C404.21 123.895 403.622 124.104 403.81 124.435C403.885 124.45 403.973 124.469 404.075 124.49C404.086 124.501 404.13 124.525 404.129 124.546C404.08 125.178 404.263 125.781 404.346 126.396C404.368 126.556 404.214 126.598 404.147 126.722C404.261 126.761 404.374 126.8 404.486 126.839C404.574 127.057 404.595 127.264 404.379 127.438C404.399 127.48 404.408 127.543 404.443 127.567C404.72 127.751 404.671 128.047 404.748 128.316C405.153 129.734 405.304 131.221 405.896 132.588C405.898 133.431 406.361 134.141 406.577 134.923C406.712 135.411 406.872 135.908 406.999 136.388C407.131 136.883 407.603 137.284 407.446 137.857C407.899 138.578 407.983 139.444 408.354 140.194C408.621 140.734 408.714 141.329 408.96 141.882C409.197 142.416 409.375 143.008 409.602 143.553C409.945 144.378 410.199 145.24 410.651 146.03C410.895 146.458 411.109 146.942 411.277 147.413C412.056 149.594 413.166 151.611 414.229 153.653C414.546 154.264 414.999 154.817 415.119 155.51C415.182 155.872 415.552 156.004 415.614 156.381C415.658 156.645 416.015 156.842 416.132 157.113C416.267 157.423 416.438 157.697 416.612 157.982C416.891 158.44 417.241 158.895 417.138 159.462C417.302 159.6 417.307 159.42 417.384 159.407C417.97 159.972 417.996 160.06 417.745 160.646C417.834 160.731 417.924 160.817 418.009 160.898C418.084 160.835 418.15 160.779 418.204 160.733C418.818 161.215 419.212 161.788 419.066 162.58C419.285 162.663 419.324 162.374 419.539 162.477C419.995 163.107 420.419 163.823 420.974 164.417C421.387 164.858 421.806 165.304 422.244 165.726C422.709 166.175 423.159 166.638 423.616 167.095C424.073 167.552 424.484 168.069 424.997 168.452C425.921 169.145 426.835 169.848 427.843 170.443C428.655 170.922 429.499 171.298 430.347 171.668C430.92 171.917 431.562 172.041 432.186 172.128C432.496 172.171 432.784 172.229 433.074 172.335C433.182 172.373 433.33 172.375 433.418 172.24C433.465 172.005 433.286 171.845 433.138 171.788C432.269 171.456 431.657 170.784 430.992 170.192C430.342 169.612 429.738 168.979 429.138 168.347C428.158 167.316 427.325 166.179 426.62 164.936C426.175 164.15 425.672 163.402 425.263 162.59C424.627 161.327 424.097 160.03 423.745 158.665C423.696 158.475 423.473 158.364 423.539 158.171C423.636 157.892 423.161 157.694 423.383 157.502C423.687 157.239 423.242 157.162 423.324 156.95C423.397 156.759 423.355 156.535 423.162 156.344C423.039 156.223 423.232 156.072 423.344 155.949C422.922 155.757 422.997 155.318 422.976 155.013C422.91 154.049 422.854 153.064 422.984 152.112C423.078 151.425 423.137 150.713 423.345 150.042C423.549 149.386 423.84 148.756 424.021 148.095C424.145 147.638 424.463 147.307 424.643 146.897C424.818 146.499 425.133 146.175 425.3 145.811C425.546 145.278 426.066 145.077 426.377 144.635C426.664 144.226 427.204 143.997 427.647 143.757C428.188 143.462 428.755 143.158 429.356 142.983C429.933 142.816 430.489 142.592 431.086 142.464C431.872 142.295 432.639 142.095 433.452 142.097C433.814 142.098 434.141 141.861 434.535 141.902C435.028 141.954 435.515 141.91 436.012 142.084C436.467 142.244 436.976 142.145 437.483 142.267C439.364 142.717 439.699 142.688 441.481 143.631C441.745 143.77 441.902 144.119 442.264 144.073C443.319 145.22 444.597 146.162 445.433 147.509C446.449 149.147 447.229 150.89 447.766 152.745C447.916 153.263 448.214 153.738 448.217 154.306C448.526 153.286 447.805 152.421 447.744 151.223C448.229 152.071 448.352 152.798 448.525 153.497C448.755 154.427 448.926 155.363 448.962 156.337C448.978 156.777 449.088 157.247 449.124 157.711C449.155 158.128 448.832 158.457 448.909 158.893C448.975 159.269 448.995 159.683 448.91 160.05C448.629 161.255 448.396 162.467 448.05 163.661C447.677 164.946 447.1 166.119 446.496 167.284C446.102 168.043 445.67 168.809 444.997 169.373C444.723 169.601 444.689 170.044 444.274 170.138C444.249 170.144 444.293 170.32 444.193 170.386C443.981 170.527 444.135 170.736 444.051 170.905C445.094 171.188 446.107 171.381 447.114 171.603C447.87 171.769 448.636 171.769 449.391 171.921C450.136 172.071 450.945 172.034 451.708 171.935C452.826 171.791 453.961 171.684 455.045 171.347C456.102 171.017 457.079 170.488 458.08 170.02C458.394 169.873 458.483 169.422 458.903 169.434C459.492 168.615 460.521 168.267 461.044 167.338C461.357 166.781 461.939 166.381 462.331 165.836C462.901 165.043 463.406 164.207 463.971 163.413C464.43 162.769 464.758 162.049 465.16 161.377C465.753 160.388 466.15 159.272 466.543 158.178C466.764 157.56 467.048 156.967 467.203 156.315C467.423 155.392 467.791 154.504 467.722 153.53C467.693 153.132 467.456 152.78 467.511 152.348C467.544 152.089 467.667 151.953 467.822 151.799C468.098 152.233 468.187 152.769 468.678 153.232C468.551 152.847 469.133 152.717 468.739 152.283C468.554 152.079 468.764 151.611 468.425 151.36C468.581 151.231 468.679 151.148 468.877 150.984C468.984 151.128 469.141 151.287 469.232 151.478C469.31 151.641 469.275 151.879 469.645 151.766C469.394 151.424 469.475 151.047 469.477 150.639C469.882 150.655 470.249 150.539 470.574 150.784C470.698 150.707 470.551 150.517 470.73 150.462C470.886 150.629 471.112 150.75 471.214 150.994C471.299 151.198 471.403 151.394 471.502 151.6C471.711 151.43 471.484 151.183 471.678 151.039C471.882 151.341 472.006 151.649 471.995 152.031C471.97 152.967 471.959 153.905 471.998 154.841C472.019 155.322 471.83 155.755 471.76 156.209C471.609 157.185 471.35 158.16 470.995 159.082C470.696 159.859 470.545 160.705 470.049 161.403C469.521 163.246 468.212 164.647 467.285 166.264C467.058 166.659 466.702 167.005 466.389 167.339C465.212 168.599 464.15 169.972 462.845 171.11C461.045 172.681 459.076 174.006 456.871 174.933C455.965 175.314 455.009 175.592 454.051 175.853C453.353 176.044 452.618 176.087 451.949 176.386C451.895 176.411 451.827 176.404 451.766 176.412C450.653 176.55 446.414 176.756 445.551 176.585C444.617 176.4 443.663 176.35 442.738 176.132C441.86 175.925 440.991 175.674 440.117 175.445C440.056 175.429 439.968 175.47 439.927 175.439C439.124 174.839 438.199 174.812 437.169 174.878" fill="black"/>
<path d="M367.038 41.402C367.001 41.3807 366.964 41.3597 366.927 41.3384C366.837 41.4586 366.768 41.6062 366.653 41.6921C366.528 41.7858 366.319 41.7843 366.219 41.8915C366.01 42.1156 365.742 42.2165 365.484 42.3457C365.398 42.7484 365.023 42.8618 364.751 43.0787C364.538 43.2488 364.318 43.4109 364.114 43.5921C364.054 43.6456 364.042 43.753 364.009 43.8358C364.23 43.7455 364.352 43.543 364.604 43.6122C364.79 43.6638 364.771 43.4978 364.841 43.406C364.9 43.3298 365.162 43.3501 365.169 43.303C365.208 43.0419 365.42 43.001 365.591 42.8928C365.784 42.7706 365.99 42.6453 366.133 42.473C366.277 42.2988 366.464 42.3118 366.633 42.2613C366.591 42.1555 366.551 42.0534 366.485 41.8879H367.038V41.402ZM303.456 28.5006C303.009 28.7418 302.854 29.181 302.649 29.5841C302.456 29.9643 302.365 30.3943 302.19 30.7749C301.993 31.2027 301.894 31.6489 301.876 32.0852C301.857 32.5413 301.55 32.9824 301.783 33.4579C301.849 33.3447 301.924 33.244 301.968 33.131C301.997 33.0545 301.968 32.958 301.987 32.8752C302.054 32.5749 302.131 32.2768 302.203 31.978C302.282 31.6557 302.436 31.3476 302.388 31.0014C302.73 30.2873 302.859 29.4847 303.303 28.8129C303.366 28.7169 303.405 28.6049 303.456 28.5006V28.5006ZM371.022 46.1041C371.108 46.1128 371.167 46.1372 371.19 46.1181C371.565 45.8014 371.953 45.4979 372.303 45.1546C373.027 44.4429 373.608 43.6081 374.147 42.758C374.39 42.3752 374.675 41.9888 374.787 41.5116C374.838 41.2965 374.658 41.3449 374.636 41.244C374.183 42.1209 373.781 43.029 373.141 43.7835C372.47 44.5741 371.744 45.3177 371.022 46.1041ZM365.876 29.6812C365.999 29.7608 366.1 29.8292 366.204 29.8936C366.308 29.9582 366.415 30.0185 366.52 30.0807C366.348 30.3957 366.349 30.3928 366.564 30.5486C366.648 30.6096 366.77 30.6854 366.781 30.7674C366.825 31.089 367.021 30.9007 367.112 30.9157C367.092 30.6834 367.073 30.4642 367.054 30.2452C367.336 30.0628 367.064 29.8779 367.045 29.6988C367.034 29.5873 366.946 29.4743 366.866 29.3869C366.85 29.3702 366.708 29.4704 366.607 29.5263C366.533 29.3671 366.475 29.241 366.38 29.037C366.571 29.1152 366.67 29.1558 366.768 29.1958C366.885 28.9085 366.563 29.0186 366.538 28.8998C366.508 28.7592 366.531 28.6073 366.531 28.4154H365.64C365.598 28.3024 365.575 28.2412 365.519 28.0897C365.484 28.5993 365.484 28.5993 365.707 28.7929C365.733 28.7164 365.759 28.6399 365.786 28.5594C365.904 28.6702 366.009 28.7687 366.103 28.8563C366.221 28.7907 366.293 28.7508 366.419 28.6806C366.361 29.0866 366.069 29.1624 365.876 29.3124V29.6812ZM357.236 83.5615C357.146 83.7403 357.023 83.9126 357.05 83.9402C357.237 84.1323 357.136 84.3566 357.151 84.5628C357.168 84.7813 357.205 85.0182 357.142 85.2178C357.075 85.424 357.384 85.5881 357.163 85.7758C357.371 85.9418 357.272 86.1732 357.284 86.3779C357.298 86.5969 357.287 86.8175 357.287 87.0375C357.287 87.873 357.286 88.7088 357.289 89.5444C357.29 89.6276 357.319 89.7106 357.334 89.7934C357.383 89.4444 357.509 89.1195 357.534 88.7959C357.593 88.0243 357.525 87.247 357.672 86.4749C357.734 86.1487 357.598 85.8008 357.577 85.4743C357.538 84.8372 357.389 84.2347 357.236 83.5615V83.5615ZM357.368 98.9309C357.535 98.6848 357.696 98.489 357.811 98.2691C358.189 97.5475 358.814 96.9452 358.881 96.0719C358.884 96.0385 358.944 96.0124 358.971 95.9778C359.168 95.723 359.287 95.4355 359.264 95.1113C359.239 94.7633 359.349 94.4521 359.486 94.1458C359.55 94.0023 359.582 93.8731 359.389 93.7238C359.302 93.837 359.188 93.9348 359.142 94.0577C359.071 94.2496 359.063 94.4635 359 94.6595C358.827 95.202 358.724 95.7707 358.421 96.2677C358.38 96.3354 358.334 96.4288 358.349 96.4973C358.425 96.8467 358.235 97.1552 358.06 97.3633C357.7 97.7936 357.615 98.3789 357.155 98.7174L357.368 98.9309ZM308.504 27.7074C308.199 27.5493 307.95 27.4194 307.697 27.288C307.654 27.3267 307.589 27.3843 307.527 27.4397C307.574 27.4922 307.614 27.5377 307.637 27.5639C307.339 27.7979 307.046 28.0275 306.757 28.2547C306.781 28.284 306.862 28.3573 306.852 28.3747C306.755 28.5342 306.633 28.6787 306.534 28.8374C306.314 29.1926 306.062 29.5435 306.26 30.0107C306.546 29.8138 306.702 29.4196 307.115 29.4573C307.072 29.3472 306.979 29.2178 307.01 29.1691C307.158 28.94 307.303 28.6733 307.521 28.5352C307.744 28.3941 307.935 28.1916 307.989 28.0069C308.071 27.7224 308.267 27.8104 308.504 27.7074V27.7074ZM326.81 73.7607L326.903 73.6673C326.868 73.6364 326.83 73.5761 326.798 73.5793C326.543 73.6035 326.234 73.6003 326.146 73.5084C325.797 73.1459 325.365 73.2889 324.989 73.3605C324.641 73.4268 324.323 73.6528 323.991 73.807C323.886 73.8561 323.782 73.9217 323.672 73.9371C323.625 73.9437 323.567 73.7963 323.488 73.9171C323.436 73.9967 323.393 74.0826 323.279 74.2868C323.677 74.1281 323.939 74.5864 324.254 74.2403C324.259 74.2345 324.409 74.3141 324.414 74.3621C324.433 74.5385 324.581 74.5314 324.649 74.491C324.985 74.2938 325.358 74.4059 325.714 74.3497C325.735 74.2161 325.755 74.0952 325.76 74.0615C325.85 74.1515 325.961 74.2621 326.052 74.3531C326.027 74.3618 325.95 74.3887 325.977 74.3792C326.064 74.4659 326.175 74.5772 326.271 74.673C326.328 74.4659 326.125 74.0932 326.542 73.9621C326.746 74.1302 326.961 74.1535 327.223 74.0332C327.072 73.9335 326.941 73.8469 326.81 73.7607ZM328.589 75.9477C328.419 76.211 328.132 75.8691 327.958 76.0823C327.753 75.8645 327.47 75.9983 327.225 75.9243C327.105 75.9509 327.348 75.594 327.039 75.7539C326.844 75.8546 326.577 75.8149 326.314 75.841C326.284 75.6898 326.257 75.5555 326.215 75.3418C326.16 75.4993 326.133 75.5761 326.101 75.667C325.937 75.5581 325.774 75.4505 325.587 75.3273C325.623 75.2024 325.661 75.0689 325.701 74.9278C325.446 74.7674 325.153 74.6924 324.753 74.8361C325.024 74.9648 325.238 75.0665 325.47 75.1763C325.402 75.3159 325.343 75.4357 325.284 75.5557C325.165 75.4984 325.251 75.1374 324.935 75.3641C324.989 75.4846 325.046 75.6111 325.102 75.7362C325.053 75.7629 325.011 75.8004 324.995 75.7914C324.777 75.677 324.563 75.556 324.348 75.4364C324.148 75.8018 323.781 75.9354 323.342 76.068C323.385 75.9451 323.416 75.8563 323.462 75.7222C323.337 75.6443 323.285 75.3972 323.016 75.4258C323.054 75.6315 323.09 75.8243 323.125 76.0102C322.909 76.1067 322.879 76.1645 322.948 76.3032C322.642 76.5442 322.589 76.0808 322.345 76.0535C322.321 76.211 322.302 76.332 322.283 76.4581C322.15 76.438 322.081 76.2667 321.898 76.4097C321.644 76.6083 321.304 76.6969 321.052 76.8968C320.797 77.0986 320.596 76.9994 320.346 76.888C320.337 77.0054 320.329 77.1095 320.318 77.2658C319.972 77.2014 319.704 77.4269 319.395 77.5249C318.657 77.7592 317.947 78.067 317.223 78.3377C316.576 78.5797 315.944 78.8604 315.302 79.1166C314.774 79.3279 314.245 79.5396 313.709 79.7305C312.981 79.9902 312.28 80.3195 311.561 80.6017C311 80.8221 310.437 81.0721 309.877 81.3145C309.693 81.3946 309.527 81.5572 309.291 81.4984C309.241 81.4861 309.162 81.518 309.12 81.5555C308.614 82.0107 307.894 82.0114 307.353 82.3916C307.322 82.4133 307.271 82.423 307.233 82.4155C306.684 82.3069 306.282 82.6684 305.834 82.8646C305.121 83.177 304.39 83.4255 303.634 83.6065C303.474 83.6445 303.304 83.6682 303.164 83.7447C303.031 83.8175 302.89 83.7638 302.774 83.8156C302.625 83.8821 302.473 83.9746 302.365 84.0941C302.212 84.2625 302.113 83.9177 301.935 84.0924C301.804 84.2197 301.546 84.2042 301.367 84.2974C301.076 84.45 300.708 84.3888 300.454 84.6535C300.401 84.7085 300.225 84.6966 300.136 84.6538C299.974 84.5761 299.914 84.5502 299.813 84.7557C299.757 84.8682 299.485 84.8929 299.305 84.9217C298.734 85.0126 298.219 85.3415 297.622 85.3214C297.159 85.6432 296.597 85.6101 296.082 85.7466C295.964 85.7783 295.849 85.8242 295.729 85.8472C295.505 85.8905 295.279 85.7928 295.045 85.9634C294.881 86.0836 294.583 85.8881 294.377 86.1047C294.338 86.1468 294.162 86.1073 294.082 86.0546C293.874 85.9155 293.976 86.1388 293.929 86.1632C293.855 86.2024 293.739 86.1591 293.661 86.1945C293.304 86.3556 292.931 86.4224 292.549 86.373C291.874 86.2859 291.228 86.5417 290.557 86.5255C290.354 86.5206 290.146 86.6632 289.941 86.5093C289.559 86.7055 289.177 86.4265 288.796 86.5107C288.637 86.5458 288.447 86.676 288.329 86.6259C288.017 86.4938 287.703 86.531 287.388 86.5054C287.075 86.4795 286.764 86.4212 286.452 86.3774C286.411 86.3713 286.346 86.381 286.331 86.358C286.197 86.1521 285.98 86.2745 285.833 86.2225C285.496 86.1035 285.127 86.1785 284.808 85.9873C284.569 85.8443 284.348 85.7289 284.23 85.5815C284.187 85.6747 284.145 85.764 284.086 85.8903C283.603 85.521 282.888 85.5791 282.486 84.9437H281.997C281.935 84.8343 281.886 84.6731 281.839 84.6734C281.502 84.6753 281.223 84.6569 281.247 84.1972C281.251 84.1263 281.068 84.0455 280.848 83.8712C280.935 84.1258 280.972 84.2352 281.038 84.4283C280.782 84.2579 280.597 84.1437 280.422 84.0162C280.257 83.8959 280.071 83.7853 279.951 83.6271C279.811 83.4429 279.576 83.3873 279.454 83.1881C279.345 83.01 279.227 82.83 279.079 82.686C278.923 82.535 278.844 82.3298 278.637 82.2031C278.499 82.1188 278.472 81.8532 278.394 81.6649C278.437 81.6192 278.496 81.5553 278.553 81.4936C278.604 81.5388 278.649 81.5795 278.755 81.6736C278.737 81.5364 278.751 81.4471 278.713 81.3929C278.565 81.1768 278.331 81.0733 278.102 80.9632C278.01 80.9184 277.889 80.8611 277.857 80.7795C277.811 80.6658 277.868 80.5104 277.821 80.3984C277.783 80.3077 277.579 80.2532 277.58 80.185C277.586 79.8406 277.346 79.5348 277.435 79.1837C277.188 78.6235 277.344 78.0324 277.304 77.4565C277.229 76.3867 277.531 75.3781 277.883 74.3964C278.279 73.2899 278.863 72.2757 279.59 71.3398C280.096 70.6879 280.577 70.0208 281.13 69.4028C281.886 68.5573 282.55 67.6342 283.188 66.6948C283.383 66.4076 283.48 66.0678 283.692 65.7782C283.891 65.5057 284.011 65.1641 284.116 64.8371C284.212 64.5431 284.249 64.2291 284.296 63.9215C284.333 63.6742 284.223 63.4068 284.424 63.1789C284.463 63.1344 284.428 63.0114 284.407 62.9299C284.382 62.8321 284.308 62.7414 284.303 62.6453C284.229 61.2298 283.46 60.0586 282.378 59.2821C281.718 58.8081 281.012 58.427 280.338 57.988C279.387 57.3698 278.378 56.8544 277.433 56.2276C276.698 55.7403 275.919 55.319 275.16 54.867C274.31 54.3601 273.405 53.939 272.65 53.2806C272.234 53.2129 272.013 52.8296 271.65 52.6677C271.244 52.4867 270.972 52.1128 270.599 51.8667C270.173 51.5851 269.818 51.1955 269.431 50.8546C269.208 50.6583 269.039 50.4084 268.744 50.2835C268.594 50.2201 268.435 50.0667 268.378 49.9164C268.261 49.6127 268.001 49.4528 267.805 49.2299C266.868 48.1616 266.128 46.9863 265.674 45.6235C265.487 45.0602 265.422 44.462 265.16 43.9236C265.252 43.445 265.007 43.0003 265.025 42.5262C265.042 42.065 264.945 41.5832 265.048 41.1453C265.201 40.4888 265.182 39.7812 265.556 39.1816C265.679 38.2762 266.562 36.681 266.964 36.0691C267.434 35.3526 268.072 34.7815 268.707 34.2303C269.029 33.9513 269.419 33.6786 269.88 33.576C270.178 33.5097 270.447 33.3577 270.754 33.2849C271.036 33.2181 271.255 33.1598 271.53 33.2706C271.632 33.3115 271.786 33.199 271.918 33.1908C272.159 33.1758 272.404 33.1683 272.643 33.1925C272.823 33.2106 272.99 33.3851 273.18 33.221C273.384 33.426 273.645 33.252 273.864 33.3236C274.056 33.3865 274.226 33.5136 274.418 33.5782C274.728 33.6822 275.048 33.7553 275.362 33.8482C275.459 33.8768 275.559 33.9136 275.641 33.9699C276.14 34.3104 276.736 34.4101 277.283 34.6272C277.868 34.8595 278.484 35.0233 279.047 35.3057C279.45 35.5075 279.883 35.6323 280.295 35.7986C280.728 35.9735 281.145 36.1923 281.586 36.3478C282.491 36.667 283.328 37.135 284.192 37.5435C285.296 38.0654 286.398 38.5924 287.496 39.1272C289.418 40.0631 291.334 41.0122 293.259 41.9431C293.734 42.1729 294.22 42.3948 294.725 42.54C294.969 42.6104 295.163 42.7643 295.402 42.8219C295.762 42.9083 296.119 43.0073 296.481 43.0823C296.768 43.1418 297.083 43.1195 297.345 43.2294C297.807 43.4227 298.306 43.4295 298.78 43.5841C299.279 43.7472 299.814 43.5319 300.238 43.1774C300.423 43.0225 300.576 42.8314 300.755 42.668C301.453 42.0278 301.619 41.2626 301.328 40.3719C301.2 39.9794 301.046 39.5886 301.061 39.1625C300.796 38.9193 301.066 38.5227 300.807 38.2778C300.863 37.7927 300.723 37.3131 300.898 36.8081C301.014 36.4742 301.118 36.0853 301.069 35.6848C300.943 34.6659 301.162 33.6534 301.224 32.6405C301.267 31.9373 301.447 31.2209 301.647 30.5206C301.783 30.0436 302 29.6035 302.165 29.1469C302.351 28.6353 302.715 28.1836 303.03 27.7253C303.693 26.7612 304.575 26.0283 305.551 25.3994C306.257 24.944 306.994 24.5452 307.794 24.2863C308.126 24.1789 308.493 24.144 308.824 24.0528C309.19 23.9516 309.569 24.0489 309.891 23.9272C310.235 23.797 310.567 23.7963 310.899 23.8251C311.525 23.8795 312.149 23.9778 312.769 24.0833C313.376 24.1866 313.938 24.4385 314.511 24.6553C315.265 24.9411 315.972 25.3053 316.613 25.7948C316.712 25.8705 316.841 25.9211 316.914 26.0157C317.312 26.5299 317.727 27.0344 318.078 27.5796C318.673 28.5037 319.347 29.1619 320.174 29.8034C320.308 29.9072 320.397 30.0686 320.507 30.2041C320.724 30.1274 320.878 30.033 321.033 30.0291C321.213 30.025 321.351 29.9442 321.509 29.8975C321.671 29.8496 321.871 29.8464 322.03 29.8977C322.201 29.9529 322.294 29.6971 322.477 29.8358C322.528 29.8738 322.681 29.7758 322.787 29.74C322.903 29.701 323.031 29.6812 323.132 29.6182C323.287 29.5217 323.345 29.8089 323.516 29.6858C323.607 29.6204 323.761 29.6502 323.883 29.6204C324.021 29.5868 324.152 29.5212 324.291 29.4941C324.485 29.4561 324.656 29.5754 324.833 29.6023C324.956 29.6209 325.099 29.4068 325.251 29.3688C325.45 29.3192 325.652 29.3344 325.862 29.248C326.05 29.1711 326.379 29.1031 326.474 29.481C326.481 29.5057 326.669 29.4844 326.792 29.4844C326.734 29.3639 326.693 29.2788 326.65 29.1897C326.864 29.1016 327.025 28.8224 327.286 29.0694C327.377 28.925 327.458 29.082 327.517 29.0748C327.687 29.0537 327.75 28.6402 328.024 28.9351C328.206 28.8601 328.382 28.766 328.57 28.7203C328.647 28.7016 328.763 28.8364 328.837 28.8156C328.944 28.7854 329.027 28.5998 329.155 28.7532C329.274 28.8957 329.33 28.6791 329.387 28.7256C329.442 28.7706 329.453 28.8696 329.484 28.9451C329.93 28.803 329.93 28.803 330.037 28.4091C330.151 28.4633 330.272 28.5003 330.366 28.5715C330.45 28.6336 330.505 28.7341 330.565 28.8079C330.638 28.6881 330.712 28.5647 330.784 28.4461C331.71 28.6905 331.78 28.6709 332.11 28.0623H332.557C332.587 28.1243 332.628 28.2121 332.675 28.3135C332.758 27.982 332.758 27.982 333.092 27.7993C333.233 27.7616 332.981 28.1533 333.282 27.966C333.445 27.8646 333.632 27.8666 333.82 27.9847C333.905 28.0379 334.065 28.0236 334.169 27.9842C334.377 27.9055 334.675 27.908 334.635 27.5387C334.628 27.4753 334.738 27.3601 334.914 27.4816C335.084 27.5992 335.347 27.583 335.613 27.6338C335.574 27.5186 335.537 27.4075 335.489 27.2638C335.858 27.3974 336.163 27.486 336.448 27.1801C336.539 27.0821 336.67 27.2989 336.866 27.1796C337.135 27.0158 337.498 27.0056 337.865 26.919C337.875 26.8537 337.894 26.7327 337.911 26.6202C337.943 26.6049 337.962 26.5865 337.98 26.5887C338.138 26.6081 338.756 26.5135 338.938 26.4573C339.251 26.3612 339.568 26.2746 339.884 26.1919C341.366 25.8049 342.787 25.2232 344.253 24.7957C345.295 24.492 346.337 24.1793 347.395 23.9209C348.285 23.7036 349.182 23.4783 350.061 23.2013C350.553 23.0464 351.076 22.9944 351.583 22.8899C351.744 22.8567 351.897 22.7933 352.058 22.7619C352.324 22.7093 352.593 22.6716 352.86 22.6276C353.128 22.5835 353.407 22.5741 353.661 22.4884C354.233 22.2956 354.844 22.32 355.42 22.1187C355.743 22.0057 356.128 22.1044 356.485 21.9793C356.776 21.8774 357.15 21.9599 357.404 21.8145C357.698 21.6461 358.01 21.7397 358.31 21.6006C358.609 21.4622 359.012 21.5783 359.369 21.4564C359.51 21.4082 359.727 21.5234 359.887 21.6067C360.116 21.7255 360.313 21.7712 360.522 21.5754C360.617 21.4869 361.774 21.0232 361.818 21.0663C362.064 21.3056 362.276 21.0893 362.57 21C362.535 21.143 362.516 21.2299 362.492 21.3156C362.473 21.3869 362.449 21.4571 362.413 21.5689C362.717 21.4692 362.726 21.2594 362.694 21.0262C362.818 21.0975 362.919 21.1866 362.948 21.1672C363.099 21.0651 363.218 21.1094 363.377 21.1605C363.487 21.1958 363.641 21.0784 363.78 21.0472C363.864 21.0283 363.958 21.0315 364.043 21.0465C364.169 21.069 364.266 21.302 364.419 21.1024C364.565 20.9129 364.692 21.2202 364.779 21.128C365.028 20.8657 365.209 21.1692 365.419 21.1885C365.596 21.205 365.828 21.2379 365.876 21.5031C365.88 21.5292 366.039 21.5672 366.086 21.5372C366.178 21.4794 366.254 21.3763 366.361 21.4765C366.654 21.7504 367.086 21.7864 367.369 22.078C367.437 22.1484 367.547 22.2283 367.633 22.222C367.829 22.2077 367.91 22.3495 367.998 22.4586C368.121 22.614 368.252 22.7507 368.412 22.8705C368.58 22.9963 368.689 23.1606 368.954 23.1776C369.156 23.1904 369.262 23.487 369.507 23.5768C370.2 23.8311 370.839 24.2224 371.439 24.6306C372.025 25.0289 372.643 25.3967 373.178 25.8843C373.509 26.1858 373.859 26.4718 374.182 26.7862C374.701 27.2904 375.052 27.9293 375.514 28.4725C376.157 29.2275 376.526 30.1172 376.954 30.9835C377.337 31.7595 377.57 32.5783 377.768 33.4219C377.889 33.9395 377.873 34.4962 378.14 34.9797C378.149 34.9967 378.145 35.0238 378.141 35.045C378.042 35.5672 378.295 36.0572 378.277 36.5743C378.26 37.0796 378.285 37.5865 378.267 38.0918C378.26 38.2948 378.173 38.4937 378.145 38.6977C378.12 38.884 378.138 39.0597 378.026 39.2462C377.941 39.3868 377.987 39.6002 377.895 39.7846C377.841 39.8935 377.976 40.0893 378.006 40.2495C378.04 40.4268 378.026 40.5936 377.783 40.6059C377.733 40.9618 377.438 41.2421 377.388 41.5578C377.288 42.1795 376.802 42.5957 376.663 43.1776C376.365 43.3531 376.435 43.7499 376.162 43.9694C375.948 44.1409 375.851 44.4509 375.68 44.6832C375.492 44.9397 375.278 45.1776 375.077 45.4249C375.038 45.4728 374.97 45.5364 374.98 45.578C375.067 45.9591 374.767 46.121 374.562 46.3323C374.225 46.679 373.892 47.0318 373.534 47.357C372.923 47.9121 372.304 48.4546 371.606 48.9083C371.148 49.2065 370.776 49.6483 370.301 49.9094C369.773 50.2 369.296 50.5581 368.787 50.871C368.142 51.2676 367.475 51.6257 366.814 51.995C366.117 52.3843 365.395 52.7224 364.704 53.118C364.293 53.3527 363.915 53.6622 363.481 53.8318C362.882 54.0661 362.372 54.4472 361.816 54.7477C361.127 55.1206 360.497 55.6026 359.842 56.0399C359.279 56.4159 358.84 56.9282 358.354 57.3901C358.156 57.5791 357.984 57.7872 357.72 57.9224C357.488 58.042 357.316 58.2866 357.193 58.5489C356.951 59.0653 356.705 59.5812 356.552 60.1305C356.49 60.3528 356.527 60.6011 356.49 60.8329C356.462 61.0098 356.646 61.2922 356.274 61.3345C356.251 61.3372 356.234 61.4887 356.233 61.5712C356.229 62.0329 356.238 62.4951 356.229 62.9568C356.222 63.2566 356.462 63.5147 356.363 63.8259C356.633 64.0909 356.433 64.4674 356.605 64.7846C356.755 65.0607 356.691 65.4457 356.765 65.7724C356.861 66.1898 357.081 66.5929 357.103 67.0101C357.129 67.5061 357.391 67.9139 357.468 68.3886C357.538 68.8218 357.829 69.2193 357.899 69.6527C357.993 70.2286 358.182 70.7687 358.336 71.3231C358.352 71.3804 358.266 71.4656 358.222 71.5488C358.284 71.5704 358.361 71.5968 358.457 71.6297C358.478 72.0367 358.557 72.4388 358.709 72.8304C358.768 72.983 358.718 73.1754 358.743 73.3455C358.768 73.5062 358.847 73.6594 358.866 73.82C358.887 74.0083 358.883 74.1854 358.993 74.3647C359.086 74.5147 359.121 74.717 359.127 74.898C359.133 75.0945 359.165 75.2721 359.268 75.4367C359.364 75.5911 359.013 75.7575 359.291 75.9143C359.486 76.0244 359.325 76.2642 359.409 76.3884C359.609 76.6845 359.536 77.0337 359.639 77.3493C359.705 77.5523 359.752 77.7892 359.79 78.0135C359.828 78.2344 359.732 78.4781 359.907 78.6758C359.694 78.7888 359.924 78.8723 359.931 78.9703C359.939 79.0704 359.994 79.1663 360.006 79.2667C360.021 79.3843 360.017 79.5048 360.014 79.6236C360.012 79.6705 359.967 79.7472 359.982 79.7593C360.33 80.0352 360.147 80.4766 360.311 80.8148C360.386 80.9699 360.382 81.1722 360.433 81.3544C360.505 81.6073 360.652 81.8575 360.598 82.1534C360.575 82.2771 360.644 82.4465 360.726 82.5537C360.872 82.7461 360.859 82.9544 360.848 83.1637C360.832 83.4807 360.889 83.4659 360.964 83.8074C361.036 84.1323 361.234 84.4229 361.236 84.7499C361.239 85.0458 361.599 85.3347 361.269 85.6437C361.266 85.6469 361.366 85.7611 361.419 85.823C361.555 85.9832 361.537 86.1872 361.59 86.3706C361.657 86.6053 361.662 86.7999 361.527 87.006C361.603 87.0235 361.663 87.0373 361.723 87.051C361.738 87.0665 361.765 87.0806 361.768 87.0977C361.816 87.4745 361.857 87.852 361.908 88.2283C361.954 88.5619 361.791 88.915 362.032 89.2351C362.11 89.3399 361.82 89.4911 362.028 89.662C362.073 89.6995 361.975 89.9107 361.944 90.0421C362.018 90.068 362.094 90.0946 362.167 90.1203C362.148 90.4987 361.732 90.8087 362.019 91.2145C361.815 91.2985 361.485 91.238 361.517 91.6534C361.635 91.5951 361.719 91.5537 361.797 91.5155C361.842 91.5491 361.903 91.575 361.902 91.5978C361.894 91.7451 361.873 91.8918 361.855 92.0384C361.849 92.0854 361.829 92.1703 361.836 92.173C362.175 92.2864 361.82 92.5894 362.019 92.7946C362.201 92.9821 361.959 93.2807 361.885 93.5067C361.817 93.7141 361.794 93.9101 361.771 94.1184C361.741 94.4098 361.758 94.7389 361.623 94.977C361.48 95.2286 361.592 95.4904 361.475 95.7099C361.356 95.9325 361.205 96.136 361.247 96.408C360.938 96.762 360.964 97.261 360.714 97.6375C360.665 97.7113 360.549 97.7403 360.459 97.7926V98.4443C360.284 98.5476 360.048 98.5873 360.05 98.8592C359.73 99.0313 360.148 99.2249 360.029 99.4226C359.975 99.4274 359.892 99.4603 359.86 99.4327C359.775 99.3609 359.727 99.2892 359.617 99.4146C359.54 99.5027 359.586 99.5271 359.617 99.6094C359.698 99.8252 359.52 100.127 359.481 100.088C359.234 99.8385 359.211 100.161 359.095 100.217C359.05 100.239 358.998 100.329 359.009 100.372C359.111 100.781 358.779 100.882 358.538 101.024C357.849 101.429 357.844 101.421 357.287 101.442C357.287 101.566 357.27 101.696 357.291 101.819C357.323 102.003 357.229 102.122 357.098 102.201C356.695 102.444 356.294 102.697 355.869 102.897C355.466 103.087 355.044 103.297 354.612 103.352C353.966 103.434 353.362 103.72 352.691 103.676C352.055 103.635 351.415 103.661 350.778 103.669C350.098 103.677 349.462 103.473 348.811 103.32C348.368 103.216 347.95 103.079 347.536 102.889C347.279 102.77 346.981 102.691 346.672 102.741C346.26 102.807 345.892 102.639 345.529 102.478C344.537 102.04 343.792 101.497 342.952 100.889C342.522 100.579 342.078 100.299 341.707 99.9089C341.095 99.2643 340.673 98.5551 340.25 97.5402C340.032 97.0149 339.733 96.5155 339.419 96.0383C338.81 95.1132 338.425 94.2256 337.862 93.0535C337.392 92.0762 337.049 91.0553 336.651 90.0564C336.442 89.5311 336.207 89.0084 336.026 88.4661C335.848 87.9277 335.66 87.3925 335.34 86.8986C335.15 86.6039 335.036 86.2307 334.842 85.9237C334.481 85.3497 334.217 84.7305 333.928 84.1227C333.579 83.3873 333.195 82.6623 332.894 81.912C332.625 81.2422 332.2 80.666 331.933 79.9996C331.669 79.34 331.306 78.7191 330.978 78.0861C330.664 77.4809 330.252 76.9725 329.597 76.6981C329.203 76.5333 328.855 76.294 328.589 75.9477" fill="white"/>
<path d="M-43.057 160.624C-43.0399 160.624 -43.0224 160.624 -43.005 160.624V155.821C-43.0224 155.821 -43.0399 155.821 -43.057 155.821V160.624ZM-57.0256 107.969C-57.5282 108.938 -57.6913 111.119 -57.3658 112.213C-57.3806 110.724 -57.3697 109.33 -57.0256 107.969ZM-12.8705 181.313C-11.7514 181.313 -10.6322 181.323 -9.51309 181.312C-7.07348 181.286 -4.65275 181.055 -2.24654 180.649C1.23186 180.063 4.4879 178.855 7.62512 177.262C10.8381 175.631 13.697 173.561 16.0135 170.783C20.8569 164.975 21.8574 158.461 19.502 151.369C18.8814 149.499 18.1053 147.682 17.4089 145.838C15.967 142.018 15.4097 138.126 16.411 134.093C17.1324 131.187 18.371 128.5 19.7774 125.879C21.7529 122.197 23.9863 118.665 26.0923 115.059C27.8013 112.133 29.402 109.16 30.351 105.876C31.1619 103.071 31.1815 100.251 30.2663 97.5106C29.2467 94.4579 27.2646 92.0485 24.6636 90.1468C21.6745 87.9613 18.3495 86.9769 14.6429 87.1347C11.8757 87.2528 9.14303 87.624 6.42637 88.0983C3.04668 88.6884 -0.326219 89.268 -3.77027 88.8382C-5.99161 88.5612 -8.12293 87.9795 -9.99486 86.6754C-12.8843 84.6627 -14.6481 81.8144 -15.9342 78.6222C-16.407 77.4491 -16.7949 76.248 -17.1179 75.0187C-17.5648 73.3179 -18.1553 71.6492 -18.3585 69.8971C-18.3977 69.5573 -18.5519 69.3277 -18.6399 69.0429C-18.8222 68.4546 -18.9417 67.8451 -19.1503 67.267C-19.8987 65.1933 -20.7248 63.1546 -21.8974 61.2709C-22.4295 60.4157 -23.0192 59.4892 -23.7921 58.989C-24.8887 58.2788 -26.2228 57.8909 -27.6511 58.335C-28.1029 58.4753 -28.5859 58.4676 -29.0072 58.7741C-29.1899 58.907 -29.5144 58.9643 -29.7568 58.807C-30.0194 58.6367 -30.1113 58.7439 -30.3361 58.9317C-30.8174 59.3338 -31.0148 60.0269 -31.6933 60.218C-32.316 60.3937 -32.7053 60.9093 -33.0775 61.3657C-33.424 61.7904 -33.8907 62.05 -34.2198 62.5432C-34.9801 63.6812 -35.8079 64.7715 -36.4249 66.0027C-36.6352 66.4225 -36.899 66.8206 -37.1344 67.2189C-37.4572 67.7648 -37.6312 68.3685 -37.9564 68.9149C-38.4469 69.7383 -38.8396 70.6559 -39.0777 71.5841C-39.3417 72.6132 -39.7545 73.6044 -39.8876 74.6696C-39.9832 75.4344 -40.1824 76.1896 -40.2353 76.9557C-40.4011 79.3414 -40.3225 81.7278 -40.177 84.1134C-40.1037 85.3146 -40.0856 86.5194 -40.0229 87.7215C-39.9747 88.6439 -39.7139 89.5487 -39.7957 90.4839C-39.8644 91.266 -39.7613 92.0964 -39.9046 92.8219C-40.072 93.6693 -39.9096 94.6921 -40.6852 95.3742C-40.9267 97.3386 -42.2372 98.6133 -43.6223 99.8024C-45.2888 101.233 -47.3112 101.929 -49.4215 102.404C-50.6718 102.686 -51.8882 103.113 -52.9108 103.876C-54.1555 104.806 -54.9177 106.114 -55.263 107.633C-55.3579 108.049 -55.6766 108.349 -55.7284 108.776C-55.8089 109.441 -55.5263 110.125 -55.8639 110.781C-55.9437 110.937 -55.9352 111.194 -55.8641 111.361C-55.5897 112.002 -55.8694 112.717 -55.4878 113.389C-55.3155 113.692 -55.3768 114.306 -55.2756 114.743C-54.6973 117.239 -53.863 119.643 -52.5447 121.864C-51.321 123.925 -50.1523 126.028 -48.4091 127.712C-47.7398 128.359 -47.1455 129.073 -46.3743 129.639C-45.0952 130.578 -43.8945 131.631 -42.5581 132.49C-41.3833 133.247 -40.382 134.212 -39.2757 135.05C-37.6961 136.245 -36.9285 137.807 -37.3779 139.827C-37.5272 140.499 -37.7807 141.139 -37.9121 141.825C-38.0602 142.599 -38.255 143.391 -38.7257 144.08C-39.1494 144.701 -39.4801 145.385 -39.876 146.026C-40.0502 146.309 -40.1366 146.695 -40.5717 146.74C-40.6448 146.748 -40.7667 146.863 -40.699 146.92C-40.2975 147.259 -40.6883 147.509 -40.7846 147.781C-41.0702 148.586 -41.4 149.375 -41.6652 150.186C-42.086 151.474 -42.3062 152.818 -42.7851 154.095C-42.8739 154.331 -42.9835 154.652 -42.9518 154.977C-42.7021 157.53 -43.073 160.099 -42.7739 162.656C-42.7301 163.03 -42.6556 163.393 -42.6089 163.761C-42.4896 164.705 -42.206 165.551 -41.6966 166.375C-40.6515 168.063 -39.3565 169.564 -38.2245 171.185C-37.6895 171.952 -37.0231 172.59 -36.2256 173.077C-33.9962 174.44 -31.8601 175.948 -29.5722 177.222C-27.4155 178.424 -25.2234 179.518 -22.8423 180.199C-19.5827 181.13 -16.2381 181.363 -12.8705 181.313V181.313ZM-35.5838 62.0793C-36.522 62.6126 -36.8247 63.61 -37.366 64.4335C-37.012 64.0768 -36.686 63.6962 -36.4218 63.2768C-36.1607 62.8628 -35.6514 62.617 -35.5996 62.0641C-35.0791 61.7749 -34.0258 60.6158 -34.0635 60.2717C-34.3611 60.6966 -34.697 61.0006 -35.0309 61.3074C-35.2659 61.5235 -35.5812 61.6926 -35.5838 62.0793V62.0793ZM-43.821 150.96C-43.2571 150.388 -43.2107 149.58 -42.9148 148.89C-42.0543 146.883 -41.061 144.95 -39.9972 143.047C-39.6144 142.362 -39.2718 141.647 -38.9923 140.914C-38.3165 139.144 -38.7542 137.572 -40.2949 136.251C-41.8324 134.932 -43.5669 133.882 -45.2249 132.729C-47.0842 131.435 -48.8245 129.997 -50.365 128.335C-52.6124 125.909 -54.4265 123.186 -55.7429 120.15C-57.08 117.066 -58.1099 113.885 -57.9906 110.476C-57.9035 107.983 -57.2276 105.648 -55.3448 103.862C-54.0253 102.61 -52.3879 101.91 -50.641 101.472C-49.1098 101.089 -47.5755 100.752 -46.239 99.8247C-43.405 97.8576 -42.1934 95.0737 -42.0337 91.7252C-41.9178 89.3021 -42.2106 86.8985 -42.3604 84.4892C-42.6336 80.0915 -42.7524 75.7173 -41.3465 71.4464C-40.086 67.6179 -38.2267 64.1465 -35.45 61.1973C-34.32 59.9968 -33.0368 58.9735 -31.5699 58.235C-29.4406 57.1628 -27.2253 56.5347 -24.8401 57.4215C-23.0877 58.0731 -21.7602 59.2518 -20.696 60.7508C-19.4283 62.5369 -18.5811 64.5039 -17.9619 66.6127C-17.5975 67.8538 -17.0804 69.0586 -16.7794 70.328C-16.4026 71.9176 -15.9707 73.4998 -15.4901 75.0528C-14.2282 79.1299 -12.7306 83.1167 -9.12786 85.8273C-7.5976 86.9786 -5.80286 87.3859 -3.94424 87.5572C-1.38438 87.7934 1.14403 87.482 3.67389 87.1127C6.35934 86.7207 9.02277 86.1649 11.7404 86.0028C14.0767 85.8634 16.403 85.7864 18.7045 86.3793C24.3628 87.8367 28.594 91.1186 31.3112 96.2867C32.0966 97.7807 32.432 99.4363 32.5746 101.133C32.6585 102.135 32.7422 103.133 32.6191 104.129C32.379 106.067 31.8215 107.919 31.0547 109.716C30.1937 111.733 29.1934 113.679 28.1147 115.584C27.089 117.396 25.9713 119.155 24.9622 120.975C24.2641 122.235 23.4828 123.444 22.8527 124.751C22.5265 125.426 22.2756 126.199 21.6888 126.768C21.3086 127.137 21.3268 127.744 21.0606 128.201C19.8197 130.334 19.0159 132.641 18.3355 134.999C18.2936 135.144 18.2375 135.307 18.1349 135.408C17.7697 135.767 17.739 136.145 17.9725 136.585C18.0279 136.689 18.0165 136.843 17.9996 136.97C17.6662 139.462 18.1085 141.867 18.8122 144.243C19.4853 146.516 20.4053 148.702 21.1767 150.94C22.3315 154.289 23.0838 157.705 22.6494 161.283C22.4633 162.817 22.1493 164.346 21.5738 165.76C19.5076 170.838 16.0156 174.684 11.2436 177.396C9.93211 178.141 8.58431 178.814 7.22562 179.446C3.8273 181.029 0.237585 181.938 -3.50748 182.275C-6.69019 182.562 -9.87533 182.702 -13.068 182.697C-19.4893 182.685 -25.5634 181.367 -31.1097 177.973C-33.2638 176.655 -35.5792 175.616 -37.7173 174.26C-38.9594 173.472 -40.0393 172.532 -40.9095 171.342C-41.5452 170.472 -42.2062 169.62 -42.8818 168.781C-44.2071 167.134 -45.0933 165.331 -45.2626 163.173C-45.4732 160.493 -45.5714 157.811 -45.4001 155.136C-45.2544 152.855 -44.3402 150.747 -43.5516 148.632C-42.6171 146.123 -41.2599 143.817 -39.945 141.495C-39.8008 141.241 -39.6011 141.018 -39.3751 140.813C-39.4165 141.573 -39.8281 142.176 -40.1765 142.785C-41.4607 145.032 -42.6222 147.332 -43.5163 149.765C-43.6625 150.163 -43.7331 150.566 -43.8127 150.975C-44.1534 151.832 -44.4097 152.71 -44.5445 153.621C-44.3185 152.73 -43.7256 151.937 -43.821 150.96Z" fill="black"/>
</g>
<path d="M706.859 177.981C750.015 177.981 785 176.213 785 174.032C785 171.85 750.015 170.082 706.859 170.082C663.704 170.082 628.719 171.85 628.719 174.032C628.719 176.213 663.704 177.981 706.859 177.981Z" fill="#5DB9F4"/>
<path d="M688.576 24.1791C688.576 25.3678 682.266 26.3321 674.484 26.3321C666.702 26.3321 660.391 25.3678 660.391 24.1791C660.391 22.9905 666.702 22.0285 674.484 22.0285C682.266 22.0285 688.576 22.9905 688.576 24.1791Z" fill="#786470"/>
<path d="M674.484 26.0985C670.863 26.0985 667.461 25.8835 664.903 25.4927C661.136 24.9168 661.028 24.2531 661.028 24.1791C661.028 24.1051 661.136 23.4415 664.903 22.868C667.461 22.4771 670.863 22.2621 674.484 22.2621C678.105 22.2621 681.507 22.4771 684.065 22.868C687.831 23.4415 687.94 24.1051 687.94 24.1791C687.94 24.2531 687.831 24.9168 684.065 25.4927C681.507 25.8835 678.105 26.0985 674.484 26.0985Z" fill="#B4DEDE"/>
<path d="M710.25 106.56C705.554 104.428 698.383 95.8437 697.168 88.8807C696.356 84.2372 690.682 82.149 686.992 81.2726C687.782 83.8901 687.976 86.6521 687.559 89.3548C687.468 89.9847 687.263 90.5927 686.955 91.1493C687.278 91.88 687.58 92.5715 687.836 93.2074C689.22 96.6322 704.652 112.325 704.652 112.325C704.652 112.325 708.287 114.698 710.501 117.78C712.091 119.993 716.798 125.208 719.757 128.938C720.758 128.117 722.119 126.838 723.062 126.003C720.41 121.089 714.411 108.449 710.25 106.56Z" fill="#B96E16"/>
<path d="M701.421 111.101C700.814 109.42 702.706 86.3161 700.162 81.9177C698.653 79.2955 696.565 77.0556 694.056 75.371C694.056 75.371 686.424 79.3531 685.732 80.9349C685.04 82.5166 694.455 109.443 695.094 111.229C695.733 113.014 696.54 122.25 697.576 128.461C698.192 132.15 698.226 135.415 697.687 137.899C699.344 138.245 701.037 138.391 702.729 138.334C702.872 135.327 703.534 131.354 703.573 127.432C703.631 121.575 702.025 112.783 701.421 111.101Z" fill="#F6921E"/>
<path d="M689.667 35.2375C689.667 35.2375 689.037 34.2339 688.777 34.19C688.743 34.1833 688.707 34.1835 688.673 34.1906C688.639 34.1977 688.607 34.2116 688.578 34.2314C688.549 34.2512 688.525 34.2766 688.506 34.306C688.487 34.3354 688.474 34.3683 688.468 34.4027L689.667 35.2375Z" fill="#001429"/>
<path d="M696.42 47.9702C693.129 47.3134 684.955 45.1628 679.184 39.2382C670.775 30.6033 669.622 26.5194 669.622 26.5194C669.622 26.5194 669.935 24.8197 669.788 23.9039C669.64 22.9882 669.901 21.7371 669.326 21.8227C668.752 21.9083 668.865 23.0738 668.939 23.4646C668.949 23.5213 668.94 23.58 668.913 23.6308C668.886 23.6817 668.842 23.7217 668.789 23.7444C668.726 23.7752 668.658 23.7934 668.589 23.7979C668.519 23.8024 668.45 23.7931 668.384 23.7706C668.318 23.748 668.257 23.7127 668.204 23.6665C668.152 23.6203 668.109 23.5643 668.079 23.5016C667.869 22.9735 667.727 22.4211 667.654 21.8574C667.357 20.0305 666.948 18.4187 666.658 18.8234C666.367 19.2281 667.041 22.3985 667.147 23.0506C667.253 23.7028 666.132 20.5207 665.608 19.2211C665.085 17.9215 664.709 18.7193 665.046 19.4246C665.382 20.1299 666.503 23.2934 666.266 23.3328C666.028 23.3721 664.612 19.8062 664.026 19.9033C663.44 20.0004 664.075 20.5346 664.315 21.0919C664.554 21.6493 665.788 23.2634 665.468 23.7004C665.468 23.7004 663.493 21.7556 663.493 22.1094C663.493 22.2852 665.186 24.7203 665.994 25.6707C667.896 27.9023 675.219 42.2999 678.654 44.7627C681.993 47.1631 690.511 55.0071 694.453 54.6117C697.371 52.2021 696.949 51.2262 696.42 47.9702Z" fill="#FD5E5A"/>
<path d="M697.726 48.0419C697.726 48.0419 695.124 60.5918 695.468 65.4018C695.812 70.2118 696.16 71.0744 696.16 71.0744C696.16 71.0744 687.827 74.8692 684.704 73.3129C684.704 73.3129 681.394 59.5558 680.757 56.5495C680.121 53.5433 687.709 45.0194 687.709 45.0194C687.709 45.0194 696.241 48.2824 697.726 48.0419Z" fill="#C0B4FE"/>
<path d="M689.831 40.2256L687.266 48.1066C686.522 49.0722 685.857 50.097 685.278 51.1707C683.882 53.7329 692.928 47.6857 692.928 47.6857L693.33 39.2543L689.831 40.2256Z" fill="#FD5E5A"/>
<path d="M692.029 30.8646C692.029 30.8646 689.914 30.8807 689.201 31.7734C688.489 32.666 687.958 34.9808 687.317 35.4433C686.981 35.7066 686.584 35.8808 686.164 35.9498C686.164 35.9498 685.977 36.181 686.484 36.5487C686.992 36.9164 686.807 37.3766 686.463 37.3211C686.12 37.2656 686.154 37.9293 686.406 38.0472C686.316 38.069 686.236 38.1215 686.18 38.1957C686.124 38.2699 686.095 38.3613 686.099 38.4542C686.099 38.7918 686.367 39.037 686.124 39.4093C685.882 39.7816 685.785 41.1136 688.567 41.028C688.567 41.028 692.719 40.739 693.148 39.6405C693.577 38.5421 696.019 34.7218 694.748 32.9504C693.477 31.1791 692.029 30.8646 692.029 30.8646Z" fill="#FC7575"/>
<path d="M693.471 36.0492C693.471 36.0492 694.455 34.5808 694.739 34.9762C695.023 35.3717 694.811 37.7397 693.586 37.772C692.361 37.8044 693.471 36.0492 693.471 36.0492Z" fill="#FC7575"/>
<path d="M693.491 36.2504C693.491 36.2504 694.006 35.448 694.183 35.6838C694.361 35.9197 693.913 37.2471 693.639 37.2032C693.364 37.1592 693.353 36.6828 693.491 36.2504Z" fill="#FD5E5A"/>
<path d="M696.49 48.7079C693.574 47.0382 686.828 43.3151 683.23 35.8596C677.985 24.9908 678.181 20.7612 678.181 20.7612C678.181 20.7612 679.016 19.2489 679.166 18.3354C679.316 17.422 679.957 16.3166 679.396 16.2241C678.836 16.1316 678.573 17.267 678.508 17.6579C678.501 17.7153 678.474 17.7683 678.432 17.808C678.39 17.8476 678.335 17.8714 678.278 17.8752C678.206 17.8859 678.134 17.8819 678.064 17.8635C677.994 17.845 677.929 17.8125 677.872 17.7679C677.815 17.7233 677.768 17.6676 677.734 17.6042C677.699 17.5407 677.678 17.4708 677.671 17.3989C677.638 16.8312 677.677 16.2616 677.786 15.7038C678.084 13.8769 678.206 12.2188 677.803 12.5102C677.399 12.8016 677.035 16.0229 676.928 16.6727C676.822 17.3225 676.767 13.9509 676.682 12.5518C676.596 11.1528 675.99 11.791 676.084 12.5657C676.179 13.3404 676.243 16.6982 676.004 16.6612C675.764 16.6242 675.542 12.79 674.966 12.6952C674.389 12.6004 674.811 13.3103 674.862 13.9139C674.913 14.5175 675.575 16.4415 675.136 16.7583C675.136 16.7583 673.882 14.2862 673.771 14.6215C673.716 14.788 674.548 17.6278 675.014 18.784C676.112 21.5059 678.511 37.4922 680.981 40.9147C683.391 44.254 688.989 54.4012 692.852 55.28C696.383 53.9434 695.961 51.9662 696.49 48.7079Z" fill="#FC7575"/>
<path d="M709.92 91.2718C709.145 89.5328 708.248 87.729 707.21 85.8744C703.264 78.8305 700.263 73.1765 695.772 68.8197C695.772 68.8197 685.686 71.3103 683.963 70.1563C683.963 70.1563 686.069 100.131 684.676 103.919C684.676 103.919 692.645 107.559 696.882 104.529C700.016 102.291 705.056 103.44 709.498 101.061C711.786 99.8373 713.624 98.7828 713.867 96.9282C714.245 94.0191 710.333 91.5285 709.92 91.2718Z" fill="#006282"/>
<path d="M725.819 129.493C725.588 129.331 724.707 129.107 724.17 128.519C723.302 127.569 722.696 126.107 722.486 125.717C721.543 126.551 721.102 127.629 720.108 128.45C721.261 129.918 722.112 131.225 722.285 132.18C722.707 134.472 722.832 134.974 722.562 135.848C724.449 134.213 725.639 132.189 725.819 129.493Z" fill="#FC7575"/>
<path d="M726.414 129.847C726.208 129.742 726.009 129.624 725.819 129.493C725.639 132.199 724.449 134.213 722.562 135.848C722.435 136.25 722.227 136.733 721.923 137.508C720.809 140.343 723.731 139.097 724.199 137.908C725.18 135.791 726.271 133.728 727.47 131.727C727.874 131.082 727.094 130.196 726.414 129.847Z" fill="#68111E"/>
<path d="M702.729 138.324C701.047 138.403 701.075 137.311 699.41 136.985C699.537 138.724 698.342 141.347 697.426 142.193C696.981 142.605 694.197 143.194 693.71 143.398C696.478 144.827 700.002 145.142 702.858 144.436C702.858 143.999 703.319 143.742 703.204 143.444C703.146 143.278 703.022 143.109 702.916 142.815C702.597 141.929 702.657 139.8 702.729 138.324Z" fill="#FC7575"/>
<path d="M695.064 143.016C692.834 143.514 691.45 143.456 691.053 144.362C690.558 145.491 691.614 145.896 692.966 146.15C694.442 146.425 702.899 146.543 702.899 146.543C703.382 145.584 703.494 144.481 703.213 143.444C700.348 144.15 697.814 144.446 695.064 143.016Z" fill="#68111E"/>
<path d="M694.446 27.5739C694.628 26.8593 695.304 27.449 695.733 26.9472C695.941 26.7159 697.274 26.894 697.71 27.7658C697.214 26.1609 698.656 26.6095 699.883 27.9762C700.434 27.6016 701.696 28.0711 702.385 29.9511C703.121 29.9326 704.071 31.1074 703.954 32.2636C703.94 32.5039 703.858 32.7351 703.716 32.929C703.573 33.1228 703.378 33.2709 703.153 33.3551C703.153 33.3551 704.756 33.3343 704.604 34.8282C704.551 35.3393 703.55 35.2722 703.405 35.4387C703.291 35.5942 703.229 35.7822 703.229 35.9752C703.229 36.1682 703.291 36.3561 703.405 36.5117C703.762 37.1199 704.069 37.8645 703.674 38.1744C703.489 38.3144 703.256 38.3751 703.026 38.3432C703.755 39.3676 702.736 39.5249 701.626 38.7895C701.638 38.8645 701.627 38.9413 701.595 39.0101C701.563 39.0789 701.511 39.1366 701.446 39.1757C701.022 39.3861 699.331 38.8589 698.817 38.1281C697.346 37.7489 697.816 35.4826 696.803 34.5461C696.148 33.9379 695.989 34.4489 695.925 33.1077C695.89 32.37 695.54 32.7099 695.233 32.5712C694.836 32.3954 693.886 30.5038 693.77 30.1199C693.655 29.7361 693.568 29.2111 693.731 28.8342C693.976 28.2838 694.488 28.4549 694.778 28.6029C694.625 28.4856 694.511 28.3242 694.452 28.1404C694.393 27.9565 694.391 27.7589 694.446 27.5739V27.5739Z" fill="#40232F"/>
<path d="M691.088 29.6667C691.088 29.6667 690.585 28.6145 689.889 28.892C689.192 29.1695 689.427 29.5511 689.197 29.7384C688.966 29.9257 688.735 29.5071 688.419 29.9881C688.103 30.4691 688.219 30.9363 688.011 31.1005C687.804 31.2647 687.688 33.0407 688.569 32.8904C688.558 32.8904 692.112 30.298 691.088 29.6667Z" fill="#40232F"/>
<path d="M689.976 29.9049C689.877 29.9257 689.944 28.6723 690.878 28.5845C691.249 28.5498 692.031 28.4711 692.389 28.3925C692.85 28.2908 693.401 28.5012 693.874 28.4873C694.255 28.4758 694.704 28.3324 695.076 28.4018C695.31 28.4666 695.524 28.5891 695.698 28.7579C696.16 29.1302 696.575 29.5372 697.057 29.8748C697.417 30.1269 697.922 30.2703 698.104 30.7096C698.226 31.0056 698.15 31.3386 698.134 31.6578C698.132 32.0057 698.204 32.3501 698.344 32.6683C698.478 33.0083 698.644 33.3228 698.455 33.6766C698.333 33.8955 698.255 34.1357 698.224 34.3842C698.23 34.6718 698.207 34.9592 698.155 35.2421C697.876 35.9875 697.426 36.6562 696.84 37.1939C696.535 37.4012 696.26 37.6502 696.024 37.9339C695.687 38.3617 695.101 38.734 694.612 39.03C694.319 39.2104 694.075 39.4139 693.745 39.2104C693.745 39.2104 693.254 38.9051 693.417 37.8229C693.581 36.7406 694.091 37.0089 694.296 36.1232C694.501 35.2375 694.031 30.4715 689.976 29.9049Z" fill="#552E5D"/>
<path d="M689.976 29.9049C689.976 29.9049 688.957 26.3621 693.025 29.2851C693.909 29.9211 693.791 30.2101 693.897 30.5547C694.003 30.8992 693.807 30.9501 694.358 31.2484C694.91 31.5467 695.592 31.8751 695.316 32.4047C695.039 32.9342 694.455 32.6961 695.117 33.6072C695.779 34.5183 696.125 33.8384 695.777 34.5183C695.429 35.1982 694.647 34.9508 694.905 35.7671C695.163 36.5834 695.115 36.9464 694.333 36.9233C693.551 36.9002 693.904 36.4932 693.279 36.1671C692.654 35.8411 692.202 35.3508 692.49 34.7935C692.49 34.7935 691.595 34.5622 691.674 33.9124C691.701 33.5938 691.779 33.2815 691.904 32.9874C691.904 32.9874 690.982 32.7354 691.245 31.8936C691.245 31.8936 691.014 31.8127 691.014 31.3294C691.014 30.8461 690.675 31.2322 690.8 30.7582C690.924 30.2841 689.976 29.9049 689.976 29.9049Z" fill="#673770"/>
<path d="M692.153 35.4734C692.153 35.4734 692.594 34.0235 693.221 34.4929C693.849 34.9623 694.144 35.7393 693.341 36.4215C692.539 37.1037 692.087 36.1232 692.153 35.4734Z" fill="#9C5222"/>
<path d="M692.606 35.004C692.606 35.004 691.997 36.04 692.451 35.959C692.906 35.8781 693.429 35.6515 693.286 35.2051C693.143 34.7588 692.887 34.5785 692.606 35.004Z" fill="#753E1A"/>
<path d="M678.557 8.23903C679.288 7.3434 679.688 6.22145 679.687 5.06396C679.647 3.70722 679.081 2.41958 678.11 1.47418C677.138 0.52878 675.838 0 674.484 0C673.13 0 671.829 0.52878 670.858 1.47418C669.887 2.41958 669.321 3.70722 669.28 5.06396C669.28 6.22145 669.679 7.3434 670.411 8.23903C664.614 10.2833 660.391 16.564 660.391 24.0196C660.391 24.0704 660.391 24.1236 660.391 24.1745H688.574C688.574 24.1236 688.574 24.0704 688.574 24.0196C688.576 16.5779 684.353 10.2879 678.557 8.23903Z" fill="url(#paint0_linear)"/>
<path d="M646.34 172.089C671.381 172.089 691.681 171.063 691.681 169.797C691.681 168.532 671.381 167.506 646.34 167.506C621.3 167.506 601 168.532 601 169.797C601 171.063 621.3 172.089 646.34 172.089Z" fill="#5DB9F4"/>
<path d="M722.869 144.186H689.785V147.567H722.869V144.186Z" fill="#0E302E"/>
<path d="M726.091 169.756L723.57 134.567L718.071 134.023L724.393 169.756H726.091Z" fill="#0E302E"/>
<path d="M685.735 169.721L686.131 169.756H687.271L695.154 133.725L687.185 116.665L681.996 117.535L689.427 135.126L685.735 169.721Z" fill="#0E302E"/>
<path d="M725.809 131.928L693.189 131.28V134.363L725.809 134.696V131.928Z" fill="#C76130"/>
<path d="M682.346 104.213L675.971 105.477L681.996 119.528L688.445 118.448L682.346 104.213Z" fill="#C76130"/>
<defs>
<linearGradient id="paint0_linear" x1="18073.6" y1="7734.39" x2="17969.9" y2="10736.5" gradientUnits="userSpaceOnUse">
<stop stop-color="#F22626"/>
<stop offset="1" stop-color="#FFC476"/>
</linearGradient>
</defs>
</svg>
