<svg width="172" height="172" viewBox="0 0 172 172" fill="none" xmlns="http://www.w3.org/2000/svg">
<g clip-path="url(#clip0)">
<path d="M125.943 22.937C125.943 34.2159 116.799 43.3597 105.52 43.3597C94.2398 43.3597 85.0959 34.2159 85.0959 22.937C85.0959 11.6568 94.2398 2.51299 105.52 2.51299C116.799 2.51299 125.943 11.6568 125.943 22.937Z" fill="#FF5722"/>
<path d="M129.533 147.865V166.985C129.533 168.354 128.421 169.467 127.053 169.467H50.4942C49.1255 169.467 48.0127 168.354 48.0127 166.985V147.865C48.0127 138.176 54.3785 129.636 63.6693 126.869L68.0719 125.558C70.3027 124.896 72.1491 123.448 73.3314 121.569C73.8393 120.769 74.2225 119.892 74.4679 118.964C74.6765 118.191 74.7841 117.382 74.7841 116.554V107.641L100.586 103.302V115.905C100.586 118.302 101.496 120.536 103.033 122.224C104.159 123.461 105.621 124.405 107.301 124.91L113.882 126.869C123.171 129.636 129.533 138.176 129.533 147.865Z" fill="white"/>
<path d="M113.882 126.869L107.301 124.91C105.62 124.406 104.158 123.461 103.032 122.225C101.496 120.538 100.586 118.303 100.586 115.905V103.302L74.7827 107.642V112.745L91.0324 110.012V122.616C91.0324 125.012 91.9431 127.247 93.4785 128.935C94.6044 130.172 96.0663 131.116 97.7473 131.62L104.328 133.58C113.618 136.345 119.98 144.885 119.98 154.575V169.467H127.053C128.421 169.467 129.534 168.354 129.534 166.985V147.865C129.533 138.176 123.171 129.636 113.882 126.869Z" fill="#828282"/>
<path d="M100.586 103.302V115.13C96.0518 118.258 90.5561 120.086 84.6339 120.086H82.3584C79.6197 120.086 76.9716 119.697 74.4678 118.964C74.6751 118.191 74.7827 117.382 74.7827 116.554V107.641L100.586 103.302Z" fill="#828282"/>
<path d="M112.779 33.1753V83.2039C112.779 98.7476 100.179 111.349 84.6341 111.349H82.3586C66.8188 111.349 54.2185 98.7489 54.2185 83.2039V33.1753H112.779Z" fill="white"/>
<path d="M113.82 77.6543H112.778V58.973H113.82C118.978 58.973 123.159 63.1552 123.159 68.3136C123.159 73.4721 118.978 77.6543 113.82 77.6543Z" fill="white"/>
<path d="M115.612 44.3885C115.666 48.1219 115.088 51.7149 113.979 55.0624C113.257 57.2434 110.039 56.7566 109.989 54.4575C109.989 54.3499 109.987 54.2423 109.983 54.1347C109.58 43.1616 100.704 34.2146 89.7333 33.7369C80.1105 33.317 71.8223 39.3166 68.7975 47.8122C68.7569 47.9172 68.7241 48.0209 68.686 48.1258C66.4814 54.3368 61.6549 59.3076 55.5385 61.7064C52.9677 62.7195 50.1608 63.2693 47.2305 63.2693C45.7214 63.2693 44.2491 63.125 42.824 62.8428C46.5272 59.6868 49.321 55.3813 50.46 50.4682C50.6818 49.5129 50.8393 48.5313 50.9298 47.5327C50.8563 46.6561 50.8196 45.7651 50.8196 44.8649C50.8196 44.2402 50.8366 43.6143 50.8773 42.9988V42.9896C50.9679 41.4294 51.166 39.9006 51.4652 38.4085C52.7525 32.0323 55.9151 26.3318 60.3545 21.9121C66.3633 15.9269 74.7093 12.2867 83.8977 12.4757C101.251 12.8313 115.363 27.0326 115.612 44.3885Z" fill="#FF5722"/>
<path d="M70.4614 31.842C68.182 32.1635 60.4121 33.7343 56.0791 40.5134C55.4977 41.4241 54.9741 42.6432 54.4164 43.9345C53.4309 46.2296 52.3352 48.7767 50.46 50.4682C50.6817 49.5142 50.8405 48.5326 50.9311 47.534C50.8563 46.6561 50.8195 45.7651 50.8195 44.8649C50.8195 44.2402 50.8366 43.6143 50.8773 43.0001V42.9896C50.9678 41.4307 51.166 39.9006 51.4652 38.4085C51.5833 38.1999 51.704 37.9952 51.8313 37.797C57.3231 29.203 66.9433 27.2465 69.7594 26.8502C71.1372 26.6559 72.4115 27.6165 72.6057 28.9944C72.7999 30.3762 71.8393 31.6504 70.4614 31.842Z" fill="#3C3B41"/>
<path d="M113.882 126.871L107.783 125.053V169.465H127.054C128.421 169.465 129.533 168.354 129.533 166.986V147.867C129.534 138.176 123.17 129.637 113.882 126.871Z" fill="#E0E0E0"/>
<path opacity="0.4" d="M113.882 126.871L109.741 125.637L107.783 125.054V134.938C115.158 138.58 119.98 146.141 119.98 154.575V169.465H127.054C127.395 169.465 127.722 169.396 128.017 169.271C128.907 168.894 129.533 168.013 129.533 166.986V147.865C129.533 145.797 129.24 143.783 128.694 141.865C126.681 134.794 121.187 129.046 113.882 126.871Z" fill="#333333"/>
<path d="M66.8476 125.923L63.668 126.871C54.3798 129.637 48.0127 138.176 48.0127 147.865V166.986C48.0127 168.354 49.1242 169.465 50.4955 169.465H66.8489V125.923H66.8476Z" fill="#BDBDBD"/>
<path d="M66.8477 143.094H107.784V169.465H66.8477V143.094Z" fill="#E0E0E0"/>
<path d="M69.1348 64.5291C69.1348 66.1353 67.8318 67.4384 66.2242 67.4384C64.618 67.4384 63.3149 66.1353 63.3149 64.5291C63.3149 62.9216 64.618 61.6185 66.2242 61.6185C67.8318 61.6185 69.1348 62.9216 69.1348 64.5291Z" fill="black"/>
<path d="M92.4183 64.5291C92.4183 66.1353 91.1152 67.4384 89.509 67.4384C87.9015 67.4384 86.5984 66.1353 86.5984 64.5291C86.5984 62.9216 87.9015 61.6185 89.509 61.6185C91.1152 61.6185 92.4183 62.9216 92.4183 64.5291Z" fill="black"/>
<path d="M81.9267 94.9761C85.5669 93.6416 87.723 91.1063 88.6836 89.714C89.4748 88.5684 89.1875 86.9976 88.0405 86.2076C86.8949 85.4163 85.3255 85.705 84.5342 86.8506C83.9135 87.7508 82.5238 89.3885 80.1919 90.2428C77.1435 91.3595 74.4285 90.4528 73.4036 90.0118C72.1255 89.462 70.6413 90.0512 70.0915 91.3307C69.5403 92.6088 70.1308 94.0917 71.409 94.6415C72.4286 95.0811 74.5321 95.8173 77.1724 95.8173C78.6251 95.8173 80.2405 95.5942 81.9267 94.9761V94.9761Z" fill="black"/>
<path d="M131.108 141.098C128.679 132.649 122.022 126.662 113.744 124.199C111.88 123.644 109.996 123.129 108.146 122.532C104.672 121.409 103.107 118.508 103.107 115.014C103.107 112.568 103.107 110.122 103.107 107.676C107.848 104.096 111.487 99.1491 113.497 93.5589C115.081 89.1536 115.3 84.6998 115.3 80.0794C120.999 79.3668 125.482 74.455 125.675 68.7152C125.868 62.9465 121.695 57.7303 116.019 56.6608C117.128 54.6491 117.501 51.9169 117.811 49.6677C118.152 47.1862 118.228 44.668 118.032 42.1708C127.334 36.1147 131.009 23.828 126.511 13.6751C122.372 4.33177 112.219 -1.28208 102.104 0.250636C95.8066 1.20596 90.0628 4.83436 86.4948 10.1096C77.0636 9.20944 67.5641 12.2263 60.4018 18.4307C53.4101 24.4855 48.6689 33.5637 48.3579 42.8899C48.2647 44.4292 48.2844 45.9763 48.4012 47.5143C47.9091 52.3552 45.5523 56.8458 42.0276 60.1711C41.1903 60.9597 40.298 61.608 40.3124 62.873C40.3242 63.9333 41.0014 64.8466 41.9869 65.2193C44.593 66.2061 48.1702 65.9201 50.8669 65.5316C50.8669 67.7914 50.1701 71.5339 51.6976 73.4144C51.6976 77.3459 51.506 81.326 51.7645 85.2497C52.2671 92.8778 55.6698 100.165 61.2089 105.435C64.3609 108.433 68.152 110.74 72.2633 112.164C72.2633 115.846 72.7344 119.917 69.2071 122.272C67.8331 123.191 66.0629 123.527 64.4987 123.993C62.7193 124.522 60.9595 125.062 59.2812 125.871C53.9731 128.427 49.7331 132.924 47.4236 138.338C45.879 141.959 45.4932 145.726 45.4932 149.609C45.4932 155.348 45.3082 161.118 45.4932 166.854C45.5917 169.914 47.8343 171.953 50.8407 171.987C51.9968 172.001 53.1542 171.987 54.3116 171.987H90.7492H124.88C125.6 171.987 126.328 172.016 127.049 171.987C129.537 171.886 131.686 170.15 132.012 167.618C132.104 166.893 132.055 166.137 132.055 165.41C132.055 159.626 132.079 153.842 132.055 148.056C132.045 145.699 131.76 143.367 131.108 141.098ZM52.1201 140.24C54.372 135.032 58.8875 130.944 64.3268 129.305V160.34V166.944H50.5336C50.5336 162.977 50.5336 159.01 50.5336 155.042C50.5336 150.061 50.0927 144.929 52.1201 140.24ZM127.012 147.865V166.944H110.304C110.304 157.11 110.304 147.276 110.304 137.442C110.304 134.44 110.304 131.437 110.304 128.435L113.161 129.286H113.163C121.245 131.694 127.012 139.429 127.012 147.865ZM84.718 60.3298H100.453V69.7414H84.718V60.3298ZM101.784 55.2881C97.8734 55.2881 93.9616 55.2881 90.051 55.2881C88.0433 55.2881 86.0355 55.2737 84.0278 55.2881C81.4374 55.3078 79.6212 56.7854 79.6776 59.5294H75.5322C75.5755 57.2001 74.1714 55.3918 71.7621 55.2881C70.4288 55.2304 69.0811 55.2881 67.7452 55.2881C70.1795 51.9091 71.0088 47.8214 73.3158 44.4108C75.5177 41.1551 78.7433 38.6566 82.4425 37.3312C89.9264 34.6502 98.4495 37.1133 103.397 43.3164C104.691 44.937 105.715 46.7716 106.41 48.7268C107.185 50.9157 107.137 53.056 107.553 55.2881H101.784ZM120.64 68.3136C120.64 71.5667 118.351 74.2936 115.3 74.972V61.6552C118.351 62.3337 120.64 65.0618 120.64 68.3136ZM53.4311 47.8607C54.4245 40.4845 59.6971 34.9927 66.6364 32.7409C68.4355 32.1582 71.871 32.216 72.5205 30.0809C73.0428 28.3671 71.6545 26.7924 69.9446 26.8383C68.9223 26.8659 67.845 27.1822 66.8621 27.4354C62.7652 28.4931 58.8455 30.4221 55.6882 33.2619C58.2983 27.0706 63.0119 21.8478 68.9053 18.621C74.6648 15.4676 81.0437 14.5674 87.5105 15.2957C90.8554 15.776 94.1112 16.8376 97.0979 18.4215C98.6083 19.2246 100.049 20.1589 101.403 21.2048C102.535 22.0788 103.758 22.874 105.146 21.9449C108.662 19.5934 103.6 16.4754 101.798 15.3403C98.7972 13.4507 95.5074 12.0216 92.0798 11.1122C97.4062 5.08238 106.39 3.31608 113.576 6.95104C120.036 10.2199 123.977 17.2562 123.356 24.4736C122.955 29.1348 120.687 33.5348 117.126 36.5687C116.704 34.8602 116.156 33.1831 115.483 31.5559C114.934 30.2318 114.328 28.211 113.134 27.3344C112.139 26.6034 110.706 26.7189 109.841 27.6008C108.74 28.7227 109.154 30.0232 109.783 31.2423C113.023 37.5136 113.92 44.8688 112.302 51.7398C111.012 42.2521 103.796 34.2264 94.5127 31.8971C85.1012 29.5377 74.8892 33.3275 69.337 41.2876C67.8397 43.4332 66.9566 45.7519 65.9789 48.1494C64.7703 51.1138 62.8505 53.7725 60.4228 55.859C56.9532 58.7079 52.8275 60.486 48.312 60.7209C51.2081 56.9665 52.9862 52.5429 53.4311 47.8607ZM56.4585 64.0527C58.8127 63.1302 60.9832 61.8639 62.9227 60.3285H70.4918V69.7401H55.9086V64.2548C56.0924 64.1879 56.2761 64.1249 56.4585 64.0527ZM56.738 83.2038V74.7818H67.2768C68.753 74.7818 70.2411 74.8408 71.7161 74.7818C74.1307 74.6847 75.5072 72.9538 75.5322 70.6376C75.5545 68.6154 75.5322 66.5919 75.5322 64.5711H79.6776V69.0472C79.6776 70.824 79.4886 72.6638 81.0279 73.934C82.8926 75.4733 86.7993 74.7831 89.0104 74.7831H100.064C100.973 74.7831 102.006 74.8894 102.885 74.6151C104.836 74.0075 105.494 72.232 105.494 70.3765C105.494 67.0276 105.494 63.6787 105.494 60.3298H110.257V73.6506C110.257 77.3892 110.45 81.1843 110.201 84.9111C109.583 94.1809 103.804 102.562 95.3801 106.473C87.7834 109.999 77.6869 109.753 70.2963 105.827C62.0067 101.423 56.738 92.5813 56.738 83.2038ZM75.4613 122.917C77.3326 119.962 77.3037 116.79 77.3037 113.45C84.2062 114.598 91.7609 113.858 98.065 110.778C98.065 112.703 97.9771 114.648 98.0847 116.572C98.3353 121.042 101.154 125.061 105.263 126.839V140.573C98.4298 140.573 91.5969 140.573 84.7639 140.573C83.3834 140.573 81.9124 140.526 81.2116 142.031C80.2222 144.16 82.1525 145.594 84.0488 145.615C87.6798 145.656 91.3121 145.615 94.9431 145.615H105.263V166.944H69.3685V145.615C71.4419 145.615 75.5335 146.296 75.5335 143.094C75.5335 139.887 71.4432 140.573 69.3685 140.573V127.785C71.8854 126.896 74.0336 125.184 75.4613 122.917Z" fill="black"/>
</g>
<defs>
<clipPath id="clip0">
<rect width="172" height="172" fill="white"/>
</clipPath>
</defs>
</svg>