<svg width="174" height="174" viewBox="0 0 174 174" fill="none" xmlns="http://www.w3.org/2000/svg">
<g clip-path="url(#clip0)">
<path d="M109.243 117.879H64.7562C47.5574 117.879 33.6152 131.822 33.6152 149.02V171.284H140.384V149.02C140.384 131.822 126.442 117.879 109.243 117.879Z" fill="#FF5722"/>
<path d="M52.9375 31.2776C42.9655 31.2776 34.8816 39.3615 34.8816 49.3335V62.0104H52.9375V31.2776Z" fill="#85A1A6"/>
<path d="M121.062 31.2776C131.034 31.2776 139.118 39.3615 139.118 49.3335V62.0104H121.062V31.2776Z" fill="#85A1A6"/>
<path d="M46.8597 51.4422C39.5448 51.4422 33.6152 57.3719 33.6152 64.6867C33.6152 72.0015 39.5448 77.9311 46.8597 77.9311H52.9381V51.4422H46.8597Z" fill="white"/>
<path d="M127.14 51.4422C134.455 51.4422 140.384 57.3719 140.384 64.6867C140.384 72.0015 134.455 77.9311 127.14 77.9311H121.061V51.4422H127.14Z" fill="white"/>
<path d="M98.4127 95.6241H75.585V121.501H98.4127V95.6241Z" fill="#F4C49D"/>
<path opacity="0.15" d="M75.5854 110.993C79.2476 111.879 83.0695 112.352 87.0001 112.352C90.9308 112.352 94.7523 111.879 98.4148 110.993V93.9806H75.5858L75.5854 110.993Z" fill="#333333"/>
<path d="M86.9998 2.71638C64.1887 2.71638 45.6968 21.2087 45.6968 44.0194V65.4483C45.6968 88.2593 64.1891 106.751 86.9998 106.751C109.811 106.751 128.303 88.2593 128.303 65.4483V44.0194C128.303 21.2083 109.811 2.71638 86.9998 2.71638Z" fill="white"/>
<path opacity="0.1" d="M52.4573 65.4483V44.0194C52.4573 22.3468 69.1505 4.57465 90.3799 2.85504C89.2648 2.76498 88.1379 2.71672 86.9998 2.71672C64.1887 2.71672 45.6968 21.209 45.6968 44.0194V65.4483C45.6968 88.2593 64.1887 106.751 86.9998 106.751C88.1382 106.751 89.2652 106.703 90.3799 106.613C69.1501 104.893 52.4573 87.1211 52.4573 65.4483Z" fill="#333333"/>
<path d="M52.9374 120.207C41.6012 124.862 33.6152 136.006 33.6152 149.021V171.284H52.9374V120.207Z" fill="#FFF9F2"/>
<path d="M121.062 120.207C132.398 124.862 140.384 136.006 140.384 149.021V171.284H121.062V120.207Z" fill="#FFF9F2"/>
<path d="M87.0007 156.174C87.0007 156.174 105.167 130.68 114.027 118.245C112.467 118.005 110.87 117.879 109.243 117.879H64.7562C63.1301 117.879 61.5335 118.005 59.9746 118.245L87.0007 156.174Z" fill="#FFF9F2"/>
<path d="M89.6706 117.879L93.9112 123.673L89.6706 131.083H84.3293L80.0884 123.673L84.3293 117.879H89.6706Z" fill="#828282"/>
<path d="M93.4289 147.15L89.6706 131.083H84.3292L80.5706 147.15L87.0008 156.174L93.4289 147.15Z" fill="#BDBDBD"/>
<path d="M86.9999 86.2206C101.632 96.2711 110.831 83.5596 110.831 83.5596C110.831 83.5596 104.453 83.7078 102.133 78.6825C96.1414 64.9596 87.0002 68.8253 87.0002 68.8253C87.0002 68.8253 77.8591 64.9599 71.8673 78.6825C69.5479 83.7081 63.1697 83.5596 63.1697 83.5596C63.1697 83.5596 72.3676 96.2711 86.9999 86.2206Z" fill="#85A1A6"/>
<path d="M102.985 31.0026H71.0147C69.5143 31.0026 68.2983 29.7863 68.2983 28.2863C68.2983 26.7862 69.5143 25.5699 71.0147 25.5699H102.985C104.485 25.5699 105.701 26.7862 105.701 28.2863C105.701 29.7863 104.485 31.0026 102.985 31.0026Z" fill="#FFC78C"/>
<path d="M107.237 40.6668H66.7625C65.2621 40.6668 64.0461 39.4505 64.0461 37.9504C64.0461 36.4503 65.2621 35.234 66.7625 35.234H107.237C108.738 35.234 109.954 36.4503 109.954 37.9504C109.954 39.4505 108.737 40.6668 107.237 40.6668Z" fill="#FFC78C"/>
<path d="M67.6896 64.323C70.6428 64.323 73.0368 61.929 73.0368 58.9759C73.0368 56.0228 70.6428 53.6288 67.6896 53.6288C64.7365 53.6288 62.3425 56.0228 62.3425 58.9759C62.3425 61.929 64.7365 64.323 67.6896 64.323Z" fill="#26150C"/>
<path d="M106.42 64.323C109.373 64.323 111.767 61.929 111.767 58.9759C111.767 56.0228 109.373 53.6288 106.42 53.6288C103.467 53.6288 101.073 56.0228 101.073 58.9759C101.073 61.929 103.467 64.323 106.42 64.323Z" fill="#26150C"/>
<path d="M142.982 147.581C142.692 143.158 141.924 138.853 139.891 134.556C138.454 131.52 136.577 128.69 134.308 126.211C129.697 121.174 123.518 117.629 116.883 116.054C111.736 114.832 106.432 115.162 101.185 115.162V107.14C113.769 102.864 123.812 93.0402 128.386 80.5968C136.632 79.9844 143.154 73.0849 143.154 64.686C143.154 62.511 142.701 60.4237 141.888 58.5144V49.3325C141.888 40.7409 136.682 33.1579 128.795 30.0321C122.937 12.5963 106.44 0 87.0549 0C67.6698 0 51.1721 12.5963 45.3142 30.0331C37.4271 33.159 32.221 40.7422 32.221 49.3335V58.5154C31.4081 60.4243 30.9544 62.512 30.9544 64.687C30.9544 73.0863 37.477 79.9854 45.7223 80.5978C50.2977 93.0413 60.3408 102.865 72.9238 107.141V115.163H64.8111C55.5493 115.163 46.3755 119.148 40.0527 125.916C34.6081 131.745 31.3571 139.553 30.9704 147.513C30.6944 153.193 30.9537 158.953 30.9537 164.641C30.9537 166.855 30.9537 169.07 30.9537 171.284C30.9537 172.784 32.17 174 33.6701 174H52.9926H121.117H140.44C141.94 174 143.156 172.784 143.156 171.284C143.156 166.373 143.156 161.461 143.156 156.549C143.155 153.488 143.174 150.509 142.982 147.581ZM136.456 49.3335V51.6995C135.188 50.7948 133.788 50.0781 132.303 49.5738C132.269 49.5622 132.235 49.5514 132.201 49.5401C132.012 49.4776 131.822 49.4171 131.631 49.3617C131.555 49.3396 131.478 49.3192 131.402 49.2982C131.292 49.2683 131.184 49.2353 131.074 49.2074C131.074 45.2166 131.167 41.218 130.555 37.2609C130.554 37.2486 130.552 37.2364 130.55 37.2235C134.211 40.0663 136.456 44.4826 136.456 49.3335ZM130.262 74.4976C130.567 73.5454 130.753 70.7672 130.798 70.3655C131.157 67.1522 131.074 63.9159 131.074 60.6887C131.074 60.2096 131.405 55.0405 131.074 54.9093C131.097 54.9185 131.119 54.9277 131.142 54.9369C131.358 55.0256 131.572 55.1194 131.781 55.222C131.786 55.2244 131.791 55.2268 131.796 55.2291C135.306 56.9569 137.723 60.5912 137.723 64.6867C137.723 69.4938 134.483 73.559 130.073 74.8144C130.14 74.7953 130.203 74.6798 130.262 74.4976ZM37.6534 49.3335C37.6534 44.4826 39.8991 40.0663 43.5592 37.2235C43.5575 37.2357 43.5558 37.2486 43.5541 37.2609C43.1847 39.6034 43.0264 41.9766 43.024 44.3477C43.0236 44.7558 43.2282 49.1592 43.0355 49.2078C42.087 49.4467 41.1402 49.7852 40.2515 50.194C39.9008 50.3551 37.6531 51.3114 37.6531 51.6999L37.6534 49.3335ZM36.3868 64.6863C36.3868 60.5909 38.8035 56.9569 42.3134 55.2288C42.3185 55.2264 42.3232 55.224 42.3283 55.2217C42.5373 55.119 42.7511 55.0252 42.9676 54.9365C42.9903 54.927 43.0128 54.9182 43.0355 54.909C43.0355 61.4262 42.6196 68.0331 43.964 74.4589C43.9885 74.5768 44.0102 74.6958 44.036 74.8137C39.6262 73.559 36.3868 69.4938 36.3868 64.6863ZM50.2763 168.568H36.3861V149.02C36.3861 148.581 36.3994 148.146 36.4194 147.713C36.4239 147.617 36.4283 147.52 36.4337 147.425C36.4578 146.988 36.4891 146.554 36.533 146.123C36.5336 146.116 36.5347 146.109 36.5353 146.102C36.5809 145.654 36.639 145.209 36.7053 144.767C36.7114 144.728 36.7168 144.688 36.7229 144.649C38.0425 136.134 43.1569 128.859 50.2759 124.605L50.2763 168.568ZM109.072 120.595L94.7602 140.681L92.6137 131.505L96.3238 125.022C96.8567 124.091 96.7918 122.934 96.158 122.069L95.0797 120.596L109.072 120.595ZM88.1502 128.367H85.9596L83.3774 123.855L85.7628 120.596H88.348L90.7334 123.855L88.1502 128.367ZM90.5597 146.574L87.0556 151.493L83.5501 146.573L86.5383 133.799H87.5708L90.5597 146.574ZM78.3562 115.163V108.607C78.3562 109.069 85.2802 109.434 85.9229 109.45C89.216 109.534 92.5227 109.254 95.7532 108.607V115.163H78.3562ZM50.0102 76.168C48.9777 72.5568 48.4713 68.7995 48.4679 65.0085C48.4649 61.3599 48.4679 57.711 48.4679 54.0625C48.4679 53.2071 48.4679 52.3517 48.4679 51.4959C48.4679 44.8003 48.3392 37.9018 50.5573 31.4907C52.2542 26.5867 54.9332 22.0471 58.4094 18.1939C65.4894 10.3476 75.6545 5.66521 86.226 5.44159C86.5023 5.43581 86.7783 5.43275 87.0546 5.43275C97.8055 5.43275 108.222 10.04 115.487 17.9598C119.583 22.4257 122.587 27.8662 124.219 33.7007C125.641 38.7847 125.641 43.8929 125.641 49.1184C125.641 49.9109 125.641 50.7031 125.641 51.4956C125.641 58.4009 126.17 65.3755 125.008 72.2224C124.028 78.0004 121.639 83.4787 118.175 88.1998C114.524 93.1755 109.696 97.2791 104.166 100.026C92.9672 105.591 79.3547 105.289 68.4294 99.2159C62.0804 95.6869 56.7418 90.3752 53.2343 84.0099C51.8572 81.5097 50.7857 78.8799 50.0102 76.168ZM79.0298 120.595L77.9515 122.068C77.3177 122.934 77.2528 124.091 77.7856 125.022L81.4957 131.504L79.3496 140.678L65.0394 120.595L79.0298 120.595ZM118.4 168.568H55.709V122.099C56.7238 121.755 57.763 121.464 58.825 121.235L81.2079 152.648L84.8439 157.751C84.9713 157.929 85.1185 158.09 85.2809 158.231C85.7693 158.652 86.397 158.891 87.0559 158.891C87.1402 158.891 87.2235 158.883 87.3071 158.876C87.3322 158.874 87.3574 158.874 87.3825 158.871C87.4722 158.86 87.5606 158.842 87.6483 158.823C87.6656 158.818 87.6833 158.817 87.701 158.813C87.7574 158.799 87.8117 158.779 87.8668 158.762C87.9133 158.747 87.9616 158.736 88.0082 158.719C88.0262 158.712 88.0432 158.702 88.0612 158.695C88.5393 158.504 88.9614 158.182 89.2683 157.751L115.286 121.236C116.348 121.464 117.386 121.755 118.4 122.1V168.568ZM137.723 168.568H123.833V124.605C130.951 128.859 136.066 136.134 137.386 144.649C137.392 144.688 137.397 144.728 137.403 144.767C137.47 145.209 137.528 145.654 137.573 146.102C137.574 146.109 137.575 146.116 137.576 146.123C137.62 146.554 137.651 146.988 137.675 147.425C137.681 147.52 137.685 147.617 137.689 147.713C137.709 148.146 137.723 148.582 137.723 149.02V168.568Z" fill="#26150C"/>
<path d="M98.0974 92.8044C107.441 92.8044 112.86 85.4641 113.086 85.1518C113.691 84.3158 113.773 83.2096 113.293 82.2957C112.813 81.3826 111.855 80.8198 110.828 80.8436C110.639 80.8436 106.18 80.8065 104.664 77.5654C102.702 73.0846 98.2034 65.6066 90.041 65.6066C88.7935 65.6066 87.7675 65.7925 87.0545 65.9771C86.3422 65.7918 85.3158 65.6066 84.0683 65.6066C75.9059 65.6066 71.4067 73.0849 69.4451 77.5654C67.9294 80.8058 63.4706 80.8436 63.2871 80.8439C62.2554 80.8242 61.299 81.3826 60.8192 82.2961C60.339 83.2096 60.4182 84.3161 61.0234 85.1524C61.2498 85.4648 66.6696 92.8034 76.0112 92.8044C76.0123 92.8044 76.0123 92.8044 76.0133 92.8044C79.6561 92.8044 83.3631 91.6775 87.0545 89.4511C90.7462 91.6775 94.4536 92.8044 98.0974 92.8044ZM76.0136 87.3716C76.0133 87.3716 76.0126 87.3716 76.0123 87.3716C73.0784 87.3713 70.6471 86.2851 68.8575 85.0862C70.9414 84.1842 73.1052 82.6002 74.3882 79.8199C74.396 79.803 74.4034 79.786 74.4109 79.7686C76.9044 74.0575 80.244 71.0387 84.0686 71.0387C85.1422 71.0387 85.8922 71.2902 86.0153 71.3344C86.7208 71.6528 87.3892 71.6528 88.0948 71.3344C88.2174 71.2902 88.9671 71.0387 90.0414 71.0387C93.866 71.0387 97.2053 74.0575 99.6987 79.7686C99.7062 79.786 99.714 79.803 99.7215 79.8199C101.01 82.6104 103.184 84.1958 105.275 85.096C103.494 86.2909 101.064 87.3713 98.0977 87.3713C95.0663 87.3713 91.8684 86.2308 88.593 83.981C87.6662 83.3445 86.4435 83.3445 85.517 83.981C82.2413 86.2315 79.044 87.3716 76.0136 87.3716Z" fill="#26150C"/>
<path d="M71.0694 31.003H103.04C104.54 31.003 105.756 29.787 105.756 28.2866C105.756 26.7862 104.54 25.5702 103.04 25.5702H71.0694C69.569 25.5702 68.353 26.7862 68.353 28.2866C68.3534 29.787 69.5693 31.003 71.0694 31.003Z" fill="#26150C"/>
<path d="M66.8172 40.6668H107.292C108.792 40.6668 110.008 39.4508 110.008 37.9504C110.008 36.45 108.792 35.2341 107.292 35.2341H66.8172C65.3171 35.2341 64.1008 36.45 64.1008 37.9504C64.1008 39.4508 65.3175 40.6668 66.8172 40.6668Z" fill="#26150C"/>
</g>
<defs>
<clipPath id="clip0">
<rect width="174" height="174" fill="white"/>
</clipPath>
</defs>
</svg>