<svg width="99" height="32" viewBox="0 0 99 32" fill="none" xmlns="http://www.w3.org/2000/svg">
<path d="M49.7783 19.6426C49.7783 19.1445 49.6025 18.7637 49.251 18.5C48.8994 18.2305 48.2666 17.9492 47.3525 17.6562C46.4385 17.3574 45.7148 17.0645 45.1816 16.7773C43.7285 15.9922 43.002 14.9346 43.002 13.6045C43.002 12.9131 43.1953 12.2979 43.582 11.7588C43.9746 11.2139 44.5342 10.7891 45.2607 10.4844C45.9932 10.1797 46.8135 10.0273 47.7217 10.0273C48.6357 10.0273 49.4502 10.1943 50.165 10.5283C50.8799 10.8564 51.4336 11.3223 51.8262 11.9258C52.2246 12.5293 52.4238 13.2148 52.4238 13.9824H49.7871C49.7871 13.3965 49.6025 12.9424 49.2334 12.6201C48.8643 12.292 48.3457 12.1279 47.6777 12.1279C47.0332 12.1279 46.5322 12.2656 46.1748 12.541C45.8174 12.8105 45.6387 13.168 45.6387 13.6133C45.6387 14.0293 45.8467 14.3779 46.2627 14.6592C46.6846 14.9404 47.3027 15.2041 48.1172 15.4502C49.6172 15.9014 50.71 16.4609 51.3955 17.1289C52.0811 17.7969 52.4238 18.6289 52.4238 19.625C52.4238 20.7324 52.0049 21.6025 51.167 22.2354C50.3291 22.8623 49.2012 23.1758 47.7832 23.1758C46.7988 23.1758 45.9023 22.9971 45.0938 22.6396C44.2852 22.2764 43.667 21.7812 43.2393 21.1543C42.8174 20.5273 42.6064 19.8008 42.6064 18.9746H45.252C45.252 20.3867 46.0957 21.0928 47.7832 21.0928C48.4102 21.0928 48.8994 20.9668 49.251 20.7148C49.6025 20.457 49.7783 20.0996 49.7783 19.6426ZM57.0205 23H54.3838V10.2031H57.0205V23ZM64.21 18.3154H62.1094V23H59.4727V10.2031H64.2275C65.7393 10.2031 66.9053 10.54 67.7256 11.2139C68.5459 11.8877 68.9561 12.8398 68.9561 14.0703C68.9561 14.9434 68.7656 15.6729 68.3848 16.2588C68.0098 16.8389 67.4385 17.3018 66.6709 17.6475L69.4395 22.877V23H66.6094L64.21 18.3154ZM62.1094 16.1797H64.2363C64.8984 16.1797 65.4111 16.0127 65.7744 15.6787C66.1377 15.3389 66.3193 14.873 66.3193 14.2812C66.3193 13.6777 66.1465 13.2031 65.8008 12.8574C65.4609 12.5117 64.9365 12.3389 64.2275 12.3389H62.1094V16.1797ZM73.7725 23H71.1357V10.2031H73.7725V23ZM85.9102 10.2031V18.6318C85.9102 20.0322 85.4707 21.1396 84.5918 21.9541C83.7188 22.7686 82.5234 23.1758 81.0059 23.1758C79.5117 23.1758 78.3252 22.7803 77.4463 21.9893C76.5674 21.1982 76.1191 20.1113 76.1016 18.7285V10.2031H78.7383V18.6494C78.7383 19.4873 78.9375 20.0996 79.3359 20.4863C79.7402 20.8672 80.2969 21.0576 81.0059 21.0576C82.4883 21.0576 83.2412 20.2783 83.2646 18.7197V10.2031H85.9102ZM94.708 19.6426C94.708 19.1445 94.5322 18.7637 94.1807 18.5C93.8291 18.2305 93.1963 17.9492 92.2822 17.6562C91.3682 17.3574 90.6445 17.0645 90.1113 16.7773C88.6582 15.9922 87.9316 14.9346 87.9316 13.6045C87.9316 12.9131 88.125 12.2979 88.5117 11.7588C88.9043 11.2139 89.4639 10.7891 90.1904 10.4844C90.9229 10.1797 91.7432 10.0273 92.6514 10.0273C93.5654 10.0273 94.3799 10.1943 95.0947 10.5283C95.8096 10.8564 96.3633 11.3223 96.7559 11.9258C97.1543 12.5293 97.3535 13.2148 97.3535 13.9824H94.7168C94.7168 13.3965 94.5322 12.9424 94.1631 12.6201C93.7939 12.292 93.2754 12.1279 92.6074 12.1279C91.9629 12.1279 91.4619 12.2656 91.1045 12.541C90.7471 12.8105 90.5684 13.168 90.5684 13.6133C90.5684 14.0293 90.7764 14.3779 91.1924 14.6592C91.6143 14.9404 92.2324 15.2041 93.0469 15.4502C94.5469 15.9014 95.6396 16.4609 96.3252 17.1289C97.0107 17.7969 97.3535 18.6289 97.3535 19.625C97.3535 20.7324 96.9346 21.6025 96.0967 22.2354C95.2588 22.8623 94.1309 23.1758 92.7129 23.1758C91.7285 23.1758 90.832 22.9971 90.0234 22.6396C89.2148 22.2764 88.5967 21.7812 88.1689 21.1543C87.7471 20.5273 87.5361 19.8008 87.5361 18.9746H90.1816C90.1816 20.3867 91.0254 21.0928 92.7129 21.0928C93.3398 21.0928 93.8291 20.9668 94.1807 20.7148C94.5322 20.457 94.708 20.0996 94.708 19.6426Z" fill="black"/>
<circle cx="16" cy="16" r="16" fill="#329FF6"/>
<mask id="mask0" mask-type="alpha" maskUnits="userSpaceOnUse" x="0" y="0" width="32" height="32">
<circle cx="16" cy="16" r="16" fill="#2196F3"/>
</mask>
<g mask="url(#mask0)">
<rect x="-1.15201" y="-0.572472" width="17.472" height="35.712" fill="#2196F3"/>
</g>
<path d="M21.2053 19.138C20.9848 19.138 20.7643 19.054 20.5959 18.8858C20.2589 18.5493 20.2585 18.0032 20.595 17.6662L25.0918 13.1627C25.2552 12.9994 25.3449 12.7828 25.3449 12.5525C25.3449 12.3221 25.2551 12.1056 25.0923 11.9427C24.756 11.6064 24.2089 11.6064 23.8726 11.9427C23.8711 11.9442 23.8697 11.9456 23.8682 11.9471L20.4884 15.2778C20 15.765 19.3512 16.0333 18.6612 16.0333C17.9701 16.0333 17.3204 15.7642 16.8318 15.2755C16.3431 14.7868 16.074 14.1371 16.074 13.4461C16.074 12.755 16.3431 12.1053 16.8318 11.6166L20.2633 8.19097C20.4257 8.02857 20.5154 7.81202 20.5154 7.58167C20.5154 7.35132 20.4257 7.13477 20.2628 6.97186C20.0999 6.809 19.8834 6.71926 19.653 6.71926C19.4227 6.71926 19.2061 6.809 19.0432 6.97186L13.1469 12.8494C12.8096 13.1857 12.2636 13.1848 11.9273 12.8475C11.5911 12.5102 11.5919 11.9641 11.9293 11.6279L17.8245 5.75125C18.8323 4.74344 20.4737 4.74348 21.4824 5.7522C22.4912 6.76096 22.4912 8.4023 21.4824 9.4111L18.0509 12.8368C17.8885 12.9991 17.7988 13.2157 17.7988 13.4461C17.7988 13.6764 17.8885 13.893 18.0514 14.0559C18.2143 14.2187 18.4308 14.3085 18.6612 14.3085C18.8915 14.3085 19.1081 14.2188 19.271 14.0559C19.2725 14.0544 19.274 14.0529 19.2755 14.0514L22.6556 10.7204C23.6646 9.71428 25.304 9.71515 26.3119 10.723C26.8006 11.2117 27.0697 11.8614 27.0697 12.5525C27.0697 13.2436 26.8006 13.8933 26.3119 14.3819L21.8156 18.8849C21.6472 19.0536 21.4262 19.138 21.2053 19.138ZM21.205 24.289L26.2517 19.3214C26.5911 18.9872 26.5954 18.4412 26.2613 18.1017C25.9272 17.7623 25.3811 17.758 25.0417 18.0921L19.9929 23.0618C19.9913 23.0634 19.9897 23.065 19.9881 23.0666C16.9569 26.0978 12.0249 26.0977 8.9938 23.0666C5.96269 20.0355 5.96269 15.1035 8.99552 12.0706L14.012 7.02551C14.3479 6.68774 14.3463 6.14171 14.0086 5.80589C13.6708 5.47006 13.1248 5.47162 12.789 5.80934L7.77418 10.8527C5.98007 12.6468 4.992 15.0322 4.992 17.5695C4.992 20.1067 5.98007 22.4921 7.77418 24.2862C9.56829 26.0804 11.9537 27.0684 14.491 27.0684C17.027 27.0685 19.4112 26.0815 21.205 24.289Z" fill="#F2F2F2"/>
<path d="M12.7732 22.7995C10.8236 22.7995 9.23737 21.2133 9.23737 19.2636C9.23737 17.3139 10.8236 15.7277 12.7732 15.7277C14.7229 15.7277 16.3091 17.3139 16.3091 19.2636C16.3091 21.2133 14.7229 22.7995 12.7732 22.7995ZM12.7732 17.4525C11.7746 17.4525 10.9622 18.265 10.9622 19.2636C10.9622 20.2622 11.7746 21.0747 12.7732 21.0747C13.7719 21.0747 14.5843 20.2622 14.5843 19.2636C14.5843 18.265 13.7718 17.4525 12.7732 17.4525Z" fill="#F2F2F2"/>
</svg>