<svg width="32" height="32" viewBox="0 0 32 32" fill="none" xmlns="http://www.w3.org/2000/svg">
<circle cx="16" cy="16" r="16" fill="#329FF6"/>
<mask id="mask0" mask-type="alpha" maskUnits="userSpaceOnUse" x="0" y="0" width="32" height="32">
<circle cx="16" cy="16" r="16" fill="#2196F3"/>
</mask>
<g mask="url(#mask0)">
<rect x="-1.15201" y="-0.572472" width="17.472" height="35.712" fill="#2196F3"/>
</g>
<path d="M21.2053 19.138C20.9848 19.138 20.7643 19.054 20.5959 18.8858C20.2589 18.5493 20.2585 18.0032 20.595 17.6662L25.0918 13.1627C25.2552 12.9994 25.3449 12.7828 25.3449 12.5525C25.3449 12.3221 25.2551 12.1056 25.0923 11.9427C24.756 11.6064 24.2089 11.6064 23.8726 11.9427C23.8711 11.9442 23.8697 11.9456 23.8682 11.9471L20.4884 15.2778C20 15.765 19.3512 16.0333 18.6612 16.0333C17.9701 16.0333 17.3204 15.7642 16.8318 15.2755C16.3431 14.7868 16.074 14.1371 16.074 13.4461C16.074 12.755 16.3431 12.1053 16.8318 11.6166L20.2633 8.19097C20.4257 8.02857 20.5154 7.81202 20.5154 7.58167C20.5154 7.35132 20.4257 7.13477 20.2628 6.97186C20.0999 6.809 19.8834 6.71926 19.653 6.71926C19.4227 6.71926 19.2061 6.809 19.0432 6.97186L13.1469 12.8494C12.8096 13.1857 12.2636 13.1848 11.9273 12.8475C11.5911 12.5102 11.5919 11.9641 11.9293 11.6279L17.8245 5.75125C18.8323 4.74344 20.4737 4.74348 21.4824 5.7522C22.4912 6.76096 22.4912 8.4023 21.4824 9.4111L18.0509 12.8368C17.8885 12.9991 17.7988 13.2157 17.7988 13.4461C17.7988 13.6764 17.8885 13.893 18.0514 14.0559C18.2143 14.2187 18.4308 14.3085 18.6612 14.3085C18.8915 14.3085 19.1081 14.2188 19.271 14.0559C19.2725 14.0544 19.274 14.0529 19.2755 14.0514L22.6556 10.7204C23.6646 9.71428 25.304 9.71515 26.3119 10.723C26.8006 11.2117 27.0697 11.8614 27.0697 12.5525C27.0697 13.2436 26.8006 13.8933 26.3119 14.3819L21.8156 18.8849C21.6472 19.0536 21.4262 19.138 21.2053 19.138V19.138ZM21.205 24.289L26.2517 19.3214C26.5911 18.9872 26.5954 18.4412 26.2613 18.1017C25.9272 17.7623 25.3811 17.758 25.0417 18.0921L19.9929 23.0618C19.9913 23.0634 19.9897 23.065 19.9881 23.0666C16.9569 26.0978 12.0249 26.0977 8.9938 23.0666C5.96269 20.0355 5.96269 15.1035 8.99552 12.0706L14.012 7.02551C14.3479 6.68774 14.3463 6.14171 14.0086 5.80589C13.6708 5.47006 13.1248 5.47162 12.789 5.80934L7.77418 10.8527C5.98007 12.6468 4.992 15.0322 4.992 17.5695C4.992 20.1067 5.98007 22.4921 7.77418 24.2862C9.56829 26.0804 11.9537 27.0684 14.491 27.0684C17.027 27.0685 19.4112 26.0815 21.205 24.289V24.289Z" fill="#F2F2F2"/>
<path d="M12.7732 22.7995C10.8236 22.7995 9.23737 21.2133 9.23737 19.2636C9.23737 17.3139 10.8236 15.7277 12.7732 15.7277C14.7229 15.7277 16.3091 17.3139 16.3091 19.2636C16.3091 21.2133 14.7229 22.7995 12.7732 22.7995ZM12.7732 17.4525C11.7746 17.4525 10.9622 18.265 10.9622 19.2636C10.9622 20.2622 11.7746 21.0747 12.7732 21.0747C13.7719 21.0747 14.5843 20.2622 14.5843 19.2636C14.5843 18.265 13.7718 17.4525 12.7732 17.4525Z" fill="#F2F2F2"/>
</svg>